<svg width="24" height="24" viewBox="0 0 24 24" fill="none" xmlns="http://www.w3.org/2000/svg">
<g clip-path="url(#clip0_2012_4203)">
<path d="M1.00086 4.75073H3.73659C4.27654 6.73737 6.32472 7.91016 8.31137 7.37022C9.58732 7.02342 10.5841 6.02668 10.9309 4.75073H22.9987C23.5509 4.75073 23.9985 4.30307 23.9985 3.75084C23.9985 3.19862 23.5509 2.75096 22.9987 2.75096H10.9309C10.3909 0.764267 8.34272 -0.408523 6.35608 0.131424C5.08013 0.478217 4.08338 1.47496 3.73659 2.75091H1.00086C0.448635 2.75091 0.000976562 3.19857 0.000976562 3.7508C0.000976562 4.30302 0.448635 4.75073 1.00086 4.75073Z" fill="#FE5D35"/>
<path d="M22.9987 10.9999H20.2629C19.7241 9.01358 17.677 7.84013 15.6906 8.37896C14.4137 8.72537 13.4161 9.72292 13.0696 10.9999H1.00086C0.448635 10.9999 0.000976562 11.4476 0.000976562 11.9998C0.000976562 12.5521 0.448635 12.9997 1.00086 12.9997H13.0696C13.6085 14.9861 15.6556 16.1595 17.6419 15.6207C18.9189 15.2743 19.9165 14.2767 20.2629 12.9997H22.9987C23.5509 12.9997 23.9985 12.5521 23.9985 11.9998C23.9985 11.4476 23.5509 10.9999 22.9987 10.9999Z" fill="#FE5D35"/>
<path d="M22.9987 19.249H10.9309C10.3909 17.2623 8.34272 16.0895 6.35608 16.6295C5.08013 16.9763 4.08338 17.973 3.73659 19.249H1.00086C0.448635 19.249 0.000976562 19.6966 0.000976562 20.2488C0.000976562 20.8011 0.448635 21.2487 1.00086 21.2487H3.73659C4.27654 23.2354 6.32472 24.4082 8.31137 23.8682C9.58732 23.5214 10.5841 22.5247 10.9309 21.2487H22.9987C23.5509 21.2487 23.9985 20.8011 23.9985 20.2488C23.9985 19.6966 23.5509 19.249 22.9987 19.249Z" fill="#FE5D35"/>
</g>
<defs>
<clipPath id="clip0_2012_4203">
<rect width="24" height="24" fill="white"/>
</clipPath>
</defs>
</svg>
