<svg width="48" height="48" viewBox="0 0 48 48" fill="none" xmlns="http://www.w3.org/2000/svg">
<path d="M24 0C14.886 0 7.5 7.386 7.5 16.5C7.5 22.5465 13.032 28.9545 15.0465 34.5825C18.051 42.975 17.718 48 24 48C30.375 48 29.9475 42.999 32.9535 34.617C34.974 28.977 40.5 22.5 40.5 16.5C40.5 7.386 33.111 0 24 0ZM27.888 40.764L20.451 41.6925C20.1855 40.9245 19.9005 40.026 19.554 38.853C19.5495 38.838 19.5435 38.8215 19.5405 38.8065L28.8225 37.647C28.6905 38.0895 28.5495 38.5545 28.4265 38.9715C28.23 39.645 28.0545 40.23 27.888 40.764ZM19.104 37.362C18.831 36.459 18.5235 35.508 18.1815 34.5H29.8305C29.646 35.0385 29.4615 35.5785 29.3025 36.0885L19.104 37.362ZM24 45C22.4805 45 21.7815 44.8245 21.0045 43.125L27.3615 42.3285C26.4405 44.8095 25.77 45 24 45ZM31.008 31.5H17.0085C16.2615 29.88 15.3645 28.26 14.4795 26.6745C12.522 23.172 10.5 19.5495 10.5 16.5C10.5 9.0555 16.5555 3 24 3C31.4445 3 37.5 9.0555 37.5 16.5C37.5 19.527 35.475 23.169 33.516 26.6925C32.64 28.272 31.749 29.889 31.008 31.5Z" fill="#717171"/>
<path d="M24 7.5C19.0365 7.5 15 11.5365 15 16.5C15 16.914 15.336 17.25 15.75 17.25C16.164 17.25 16.5 16.914 16.5 16.5C16.5 12.3645 19.8645 9 24 9C24.414 9 24.75 8.664 24.75 8.25C24.75 7.836 24.4125 7.5 24 7.5Z" fill="#717171"/>
</svg>
