<svg width="48" height="48" viewBox="0 0 48 48" fill="none" xmlns="http://www.w3.org/2000/svg">
<g clip-path="url(#clip0_415_2107)">
<path d="M43 48H29C28.447 48 28 47.552 28 47V1C28 0.448 28.447 0 29 0H43C43.553 0 44 0.448 44 1V47C44 47.552 43.553 48 43 48ZM30 46H42V2H30V46Z" fill="#717171" stroke="#717171" stroke-width="0.3"/>
<path d="M34 8H29V10H34V8Z" fill="#717171" stroke="#717171" stroke-width="0.3"/>
<path d="M34 14H29V16H34V14Z" fill="#717171" stroke="#717171" stroke-width="0.3"/>
<path d="M34 20H29V22H34V20Z" fill="#717171" stroke="#717171" stroke-width="0.3"/>
<path d="M34 26H29V28H34V26Z" fill="#717171" stroke="#717171" stroke-width="0.3"/>
<path d="M34 32H29V34H34V32Z" fill="#717171" stroke="#717171" stroke-width="0.3"/>
<path d="M34 38H29V40H34V38Z" fill="#717171" stroke="#717171" stroke-width="0.3"/>
<path d="M15 46.0001H11C8.243 46.0001 6 43.7571 6 41.0001V12.0001C6 11.8031 6.059 11.6091 6.168 11.4451L12.168 2.44509C12.539 1.88809 13.461 1.88809 13.832 2.44509L19.832 11.4451C19.941 11.6091 20 11.8031 20 12.0001V41.0001C20 43.7571 17.757 46.0001 15 46.0001ZM8 12.3031V41.0001C8 42.6541 9.346 44.0001 11 44.0001H15C16.654 44.0001 18 42.6541 18 41.0001V12.3031L13 4.80309L8 12.3031Z" fill="#717171" stroke="#717171" stroke-width="0.3"/>
<path d="M19 40H7C6.447 40 6 39.552 6 39C6 38.448 6.447 38 7 38H19C19.553 38 20 38.448 20 39C20 39.552 19.553 40 19 40Z" fill="#717171" stroke="#717171" stroke-width="0.3"/>
<path d="M19 36H7C6.447 36 6 35.552 6 35C6 34.448 6.447 34 7 34H19C19.553 34 20 34.448 20 35C20 35.552 19.553 36 19 36Z" fill="#717171" stroke="#717171" stroke-width="0.3"/>
<path d="M11 36C10.447 36 10 35.552 10 35V16C10 15.448 10.447 15 11 15C11.553 15 12 15.448 12 16V35C12 35.552 11.553 36 11 36Z" fill="#717171" stroke="#717171" stroke-width="0.3"/>
<path d="M15 36C14.447 36 14 35.552 14 35V16C14 15.448 14.447 15 15 15C15.553 15 16 15.448 16 16V35C16 35.552 15.553 36 15 36Z" fill="#717171" stroke="#717171" stroke-width="0.3"/>
<path d="M16 7H10V9H16V7Z" fill="#717171" stroke="#717171" stroke-width="0.3"/>
<path d="M10 17C7.794 17 6 15.206 6 13C6 12.448 6.447 12 7 12C7.553 12 8 12.448 8 13C8 14.103 8.897 15 10 15C11.103 15 12 14.103 12 13C12 12.448 12.447 12 13 12C13.553 12 14 12.448 14 13C14 15.206 12.206 17 10 17Z" fill="#717171" stroke="#717171" stroke-width="0.3"/>
<path d="M16 17C13.794 17 12 15.206 12 13C12 12.448 12.447 12 13 12C13.553 12 14 12.448 14 13C14 14.103 14.897 15 16 15C17.103 15 18 14.103 18 13C18 12.448 18.447 12 19 12C19.553 12 20 12.448 20 13C20 15.206 18.206 17 16 17Z" fill="#717171" stroke="#717171" stroke-width="0.3"/>
</g>
<defs>
<clipPath id="clip0_415_2107">
<rect width="48" height="48" fill="white"/>
</clipPath>
</defs>
</svg>
