<svg width="50" height="50" viewBox="0 0 50 50" fill="none" xmlns="http://www.w3.org/2000/svg">
<path d="M47.6138 18.6541C47.0865 18.0346 46.4313 17.5368 45.6932 17.1947C44.9551 16.8527 44.1517 16.6746 43.3382 16.6728H30.1988V8.22599C30.1957 7.26112 29.9447 6.31323 29.4699 5.47324C28.9951 4.63325 28.3125 3.92935 27.4875 3.42905L24.1505 1.34342C23.9024 1.18014 23.6222 1.07174 23.3289 1.02547C23.0355 0.979195 22.7356 0.996115 22.4493 1.0751C22.163 1.15408 21.8968 1.2933 21.6687 1.48345C21.4405 1.6736 21.2556 1.91028 21.1263 2.17767L11.1153 22.9297H3.08563C2.53248 22.9297 2.002 23.1494 1.61087 23.5405C1.21973 23.9317 1 24.4621 1 25.0153V46.9144C1 47.4675 1.21973 47.998 1.61087 48.3891C2.002 48.7803 2.53248 49 3.08563 49H40.2098C41.5636 48.9936 42.8715 48.5086 43.9021 47.6307C44.9326 46.7528 45.6195 45.5386 45.841 44.2031L48.9694 23.2425C49.0942 22.4251 49.0374 21.5902 48.8031 20.7972C48.5688 20.0042 48.1628 19.2725 47.6138 18.6541ZM5.17125 27.1009H10.3853V44.8287H5.17125V27.1009ZM44.7982 22.6168L41.6697 43.5774C41.6192 43.9274 41.4434 44.2472 41.1749 44.4773C40.9064 44.7075 40.5634 44.8324 40.2098 44.8287H14.5566V25.5367L23.9419 6.14036L25.2976 6.97461C25.5176 7.10164 25.7007 7.2839 25.8287 7.50337C25.9567 7.72284 26.0253 7.97192 26.0275 8.22599V18.7584C26.0275 19.3115 26.2473 19.842 26.6384 20.2332C27.0295 20.6243 27.56 20.844 28.1132 20.844H43.3382C43.5594 20.8389 43.7788 20.884 43.9799 20.9761C44.181 21.0682 44.3586 21.2047 44.4992 21.3755C44.6398 21.5462 44.7398 21.7467 44.7916 21.9617C44.8434 22.1768 44.8456 22.4008 44.7982 22.6168Z" fill="#717171" stroke="white"/>
</svg>
