<svg width="48" height="48" viewBox="0 0 48 48" fill="none" xmlns="http://www.w3.org/2000/svg">
<g clip-path="url(#clip0_417_3860)">
<path d="M11.5936 8.91155H29.5002L45.7395 0.646787C46.5269 0.245965 47.4454 0.828773 47.4448 1.69221L47.4459 38.2107C47.4459 39.1166 46.4668 39.6683 45.6958 39.234L29.4996 30.9913H21.4186V38.4958L24.493 45.8597C24.8151 46.6364 24.2345 47.4817 23.4108 47.4817L16.4159 47.4834C15.8904 47.4834 15.4454 47.1376 15.2957 46.6614L12.1679 39.0231C12.1084 38.8774 12.08 38.7266 12.08 38.5786L12.0761 30.9913H11.5936C5.51948 30.9913 0.553711 26.0261 0.553711 19.9514C0.553711 13.8773 5.51948 8.91155 11.5936 8.91155ZM15.7538 15.501C18.2114 15.501 20.2042 17.4938 20.2042 19.9514C20.2042 22.4091 18.2114 24.4019 15.7538 24.4019C13.2961 24.4019 11.3033 22.4091 11.3033 19.9514C11.3033 17.4938 13.2961 15.501 15.7538 15.501ZM15.7538 17.8493C14.5927 17.8493 13.6516 18.7904 13.6516 19.9514C13.6516 21.1125 14.5927 22.0536 15.7538 22.0536C16.9148 22.0536 17.856 21.1125 17.856 19.9514C17.856 18.7904 16.9148 17.8493 15.7538 17.8493ZM19.0709 30.9913H14.4243V38.3575L17.2 45.1352H21.6504L19.1917 39.2448C19.114 39.0883 19.0709 38.912 19.0709 38.7255V30.9913ZM30.9533 10.8045V29.0989L45.0977 36.2967V3.60618L30.9533 10.8045ZM28.6056 11.2598H11.5936C6.81606 11.2598 2.90195 15.1733 2.90195 19.9514C2.90195 24.7296 6.81549 28.6431 11.5936 28.6431C17.2641 28.6431 22.9351 28.6431 28.6056 28.6431V11.2598Z" fill="#333333"/>
</g>
<defs>
<clipPath id="clip0_417_3860">
<rect width="48" height="48" fill="white"/>
</clipPath>
</defs>
</svg>
