<svg width="40" height="40" viewBox="0 0 40 40" fill="none" xmlns="http://www.w3.org/2000/svg">
<path fill-rule="evenodd" clip-rule="evenodd" d="M20 40C31.0457 40 40 31.0457 40 20C40 8.9543 31.0457 0 20 0C8.9543 0 0 8.9543 0 20C0 31.0457 8.9543 40 20 40Z" fill="#373C45"/>
<path fill-rule="evenodd" clip-rule="evenodd" d="M10 14.5347V25.8598C10 26.476 10.451 26.9753 11.0723 26.9753H28.7471C29.3677 26.9753 29.8194 26.4701 29.8194 25.8598V14.5347C29.8194 13.8585 29.4155 13.3334 28.7471 13.3334H11.0723C10.3781 13.3334 10 13.8714 10 14.5347ZM11.6297 15.5211C11.6297 15.2482 11.7948 15.0921 12.0587 15.0921C12.2219 15.0921 18.6445 19.1618 19.0335 19.4005L20.0387 20.0256C20.3574 19.8121 20.6774 19.6295 21.0077 19.4082C21.6819 18.9772 27.6806 15.0921 27.8458 15.0921C28.1103 15.0921 28.2748 15.2482 28.2748 15.5211C28.2748 15.8101 27.7181 16.0972 27.3555 16.3185C25.0774 17.7069 22.8 19.2205 20.5445 20.6605C20.4129 20.7495 20.1581 20.9398 19.9671 20.9108C19.7542 20.8779 13.2187 16.6792 12.0297 15.9798C11.851 15.8747 11.6297 15.7785 11.6297 15.5211Z" fill="white"/>
</svg>
