<svg width="90" height="90" viewBox="0 0 90 90" fill="none" xmlns="http://www.w3.org/2000/svg">
<rect width="90" height="90" rx="4" fill="#F59300"/>
<g clip-path="url(#clip0_1833_7044)">
<path d="M44.9232 67.0143L43.6452 65.9188C41.8834 64.4436 26.5 51.158 26.5 41.4398C26.5 31.265 34.7484 23.0166 44.9232 23.0166C55.098 23.0166 63.3464 31.265 63.3464 41.4398C63.3464 51.158 47.963 64.4437 46.2085 65.9261L44.9232 67.0143ZM44.9232 27.0002C36.9522 27.0093 30.4927 33.4688 30.4837 41.4397C30.4837 47.5449 39.9482 57.2978 44.9232 61.7616C49.8983 57.296 59.3627 47.5375 59.3627 41.4397C59.3536 33.4688 52.8942 27.0093 44.9232 27.0002Z" fill="white"/>
<path d="M44.9229 48.7423C40.8897 48.7423 37.6201 45.4727 37.6201 41.4395C37.6201 37.4063 40.8897 34.1367 44.9229 34.1367C48.9561 34.1367 52.2257 37.4063 52.2257 41.4395C52.2257 45.4727 48.9562 48.7423 44.9229 48.7423ZM44.9229 37.788C42.9063 37.788 41.2715 39.4228 41.2715 41.4394C41.2715 43.456 42.9063 45.0908 44.9229 45.0908C46.9395 45.0908 48.5743 43.456 48.5743 41.4394C48.5743 39.4228 46.9396 37.788 44.9229 37.788Z" fill="white"/>
</g>
<defs>
<clipPath id="clip0_1833_7044">
<rect width="44" height="44" fill="white" transform="translate(23 23)"/>
</clipPath>
</defs>
</svg>
