<svg width="90" height="90" viewBox="0 0 90 90" fill="none" xmlns="http://www.w3.org/2000/svg">
<rect width="90" height="90" rx="4" fill="#F59300"/>
<g clip-path="url(#clip0_1833_7038)">
<path d="M66.4629 63.8706L55.5198 52.9274C58.5019 49.2802 59.9681 44.6263 59.6151 39.9283C59.2622 35.2303 57.117 30.8477 53.6233 27.687C50.1297 24.5264 45.5548 22.8294 40.8451 22.9471C36.1354 23.0649 31.651 24.9884 28.3197 28.3197C24.9884 31.651 23.0649 36.1354 22.9471 40.8451C22.8294 45.5548 24.5264 50.1297 27.687 53.6233C30.8477 57.117 35.2303 59.2622 39.9283 59.6151C44.6263 59.9681 49.2802 58.5019 52.9274 55.5198L63.8706 66.4629C64.2164 66.7969 64.6795 66.9817 65.1602 66.9775C65.6409 66.9733 66.1007 66.7805 66.4406 66.4406C66.7805 66.1007 66.9733 65.6409 66.9775 65.1602C66.9817 64.6795 66.7969 64.2164 66.4629 63.8706ZM41.3334 56.0001C38.4326 56.0001 35.597 55.1399 33.1851 53.5283C30.7731 51.9167 28.8933 49.6261 27.7832 46.9461C26.6731 44.2661 26.3827 41.3172 26.9486 38.4721C27.5145 35.627 28.9114 33.0137 30.9625 30.9625C33.0137 28.9114 35.627 27.5145 38.4721 26.9486C41.3172 26.3827 44.2661 26.6731 46.9461 27.7832C49.6261 28.8933 51.9167 30.7731 53.5283 33.1851C55.1399 35.597 56.0001 38.4326 56.0001 41.3334C55.9957 45.2219 54.4491 48.9499 51.6995 51.6995C48.9499 54.4491 45.2219 55.9957 41.3334 56.0001Z" fill="white"/>
</g>
<defs>
<clipPath id="clip0_1833_7038">
<rect width="44" height="44" fill="white" transform="translate(23 23)"/>
</clipPath>
</defs>
</svg>
