<svg width="175" height="35" viewBox="0 0 175 35" fill="none" xmlns="http://www.w3.org/2000/svg">
<circle cx="2.92611" cy="2.92611" r="2.92611" fill="#007FFF"/>
<circle cx="172.074" cy="23.5033" r="2.92611" fill="#007FFF"/>
<path d="M20.1995 0H7.36243L7.36243 5.81446V26.4293H13.4034V5.81446H20.1995V0Z" fill="#292C2F"/>
<path d="M24.3223 19.2557H37.7258C37.8768 18.5383 37.9523 17.7832 37.9523 16.9903C37.9523 11.2891 33.8747 7.02265 28.3622 7.02265C22.3968 7.02265 18.3191 11.3646 18.3191 16.9903C18.3191 22.616 22.3213 26.9579 28.7776 26.9579C32.3644 26.9579 35.1584 25.6365 37.0084 23.069L32.4777 20.4639C31.7226 21.2945 30.4011 21.8986 28.8531 21.8986C26.7765 21.8986 25.0397 21.219 24.3223 19.2557ZM24.2091 15.027C24.7377 13.1014 26.1724 12.0442 28.3245 12.0442C30.0235 12.0442 31.7226 12.8371 32.3267 15.027H24.2091Z" fill="#292C2F"/>
<path d="M50.0417 26.9579C53.7418 26.9579 56.9511 25.0324 58.5746 22.0874L53.6285 19.2557C53.0244 20.5771 51.6274 21.37 49.9662 21.37C47.512 21.37 45.6997 19.5955 45.6997 16.9903C45.6997 14.3851 47.512 12.6106 49.9662 12.6106C51.6274 12.6106 52.9867 13.4035 53.6285 14.7249L58.5746 11.8554C56.9511 8.94822 53.704 7.02265 50.0417 7.02265C44.3027 7.02265 40.0363 11.3646 40.0363 16.9903C40.0363 22.616 44.3027 26.9579 50.0417 26.9579Z" fill="#292C2F"/>
<path d="M72.1007 7.02265C69.6088 7.02265 67.721 7.9288 66.7016 9.32578V7.55124H61.0382V26.4293H66.7016V16.1219C66.7016 13.4412 68.1363 12.233 70.2129 12.233C72.0252 12.233 73.4977 13.3279 73.4977 15.6688V26.4293H79.1612V14.8382C79.1612 9.7411 75.9141 7.02265 72.1007 7.02265Z" fill="#292C2F"/>
<path d="M92.1118 26.9579C97.662 26.9579 102.117 22.616 102.117 16.9903C102.117 11.3646 97.662 7.02265 92.1118 7.02265C86.5617 7.02265 82.1064 11.3646 82.1064 16.9903C82.1064 22.616 86.5617 26.9579 92.1118 26.9579ZM92.1118 21.4455C89.6577 21.4455 87.7699 19.671 87.7699 16.9903C87.7699 14.3096 89.6577 12.5351 92.1118 12.5351C94.566 12.5351 96.4538 14.3096 96.4538 16.9903C96.4538 19.671 94.566 21.4455 92.1118 21.4455Z" fill="#292C2F"/>
<path d="M119.177 7.55124V9.47681C117.931 7.9288 116.119 7.02265 113.665 7.02265C108.303 7.02265 104.377 11.4024 104.377 16.6127C104.377 21.8231 108.303 26.2028 113.665 26.2028C116.119 26.2028 117.931 25.2967 119.177 23.7487V25.4854C119.177 28.1661 117.554 29.5254 114.911 29.5254C112.419 29.5254 111.324 28.4682 110.606 27.1467L105.774 29.9407C107.51 33.0367 110.795 34.5092 114.722 34.5092C119.743 34.5092 124.69 31.8285 124.69 25.4854V7.55124H119.177ZM114.609 20.9925C111.928 20.9925 110.04 19.2179 110.04 16.6127C110.04 14.0076 111.928 12.233 114.609 12.233C117.289 12.233 119.177 14.0076 119.177 16.6127C119.177 19.2179 117.289 20.9925 114.609 20.9925Z" fill="#292C2F"/>
<path d="M133.904 19.2557H147.307C147.458 18.5383 147.534 17.7832 147.534 16.9903C147.534 11.2891 143.456 7.02265 137.944 7.02265C131.978 7.02265 127.901 11.3646 127.901 16.9903C127.901 22.616 131.903 26.9579 138.359 26.9579C141.946 26.9579 144.74 25.6365 146.59 23.069L142.059 20.4639C141.304 21.2945 139.983 21.8986 138.435 21.8986C136.358 21.8986 134.621 21.219 133.904 19.2557ZM133.791 15.027C134.319 13.1014 135.754 12.0442 137.906 12.0442C139.605 12.0442 141.304 12.8371 141.908 15.027H133.791Z" fill="#292C2F"/>
<path d="M167.537 26.4293L160.779 16.8393L167.311 7.55124H160.817L157.532 12.233L154.247 7.55124H147.753L154.285 16.8393L147.526 26.4293H154.02L157.532 21.4455L161.043 26.4293H167.537Z" fill="#292C2F"/>
</svg>
