<svg width="24" height="24" viewBox="0 0 24 24" fill="none" xmlns="http://www.w3.org/2000/svg">
<g clip-path="url(#clip0_721_2456)">
<path d="M21.5 24H14.5C14.2235 24 14 23.776 14 23.5V0.5C14 0.224 14.2235 0 14.5 0H21.5C21.7765 0 22 0.224 22 0.5V23.5C22 23.776 21.7765 24 21.5 24ZM15 23H21V1H15V23Z" fill="#333333" stroke="#333333" stroke-width="0.3"/>
<path d="M17 4H14.5V5H17V4Z" fill="#333333" stroke="#333333" stroke-width="0.3"/>
<path d="M17 7H14.5V8H17V7Z" fill="#333333" stroke="#333333" stroke-width="0.3"/>
<path d="M17 10H14.5V11H17V10Z" fill="#333333" stroke="#333333" stroke-width="0.3"/>
<path d="M17 13H14.5V14H17V13Z" fill="#333333" stroke="#333333" stroke-width="0.3"/>
<path d="M17 16H14.5V17H17V16Z" fill="#333333" stroke="#333333" stroke-width="0.3"/>
<path d="M17 19H14.5V20H17V19Z" fill="#333333" stroke="#333333" stroke-width="0.3"/>
<path d="M7.5 23H5.5C4.1215 23 3 21.8785 3 20.5V6.00005C3 5.90155 3.0295 5.80455 3.084 5.72255L6.084 1.22255C6.2695 0.944047 6.7305 0.944047 6.916 1.22255L9.916 5.72255C9.9705 5.80455 10 5.90155 10 6.00005V20.5C10 21.8785 8.8785 23 7.5 23ZM4 6.15155V20.5C4 21.327 4.673 22 5.5 22H7.5C8.327 22 9 21.327 9 20.5V6.15155L6.5 2.40155L4 6.15155Z" fill="#333333" stroke="#333333" stroke-width="0.3"/>
<path d="M9.5 20H3.5C3.2235 20 3 19.776 3 19.5C3 19.224 3.2235 19 3.5 19H9.5C9.7765 19 10 19.224 10 19.5C10 19.776 9.7765 20 9.5 20Z" fill="#333333" stroke="#333333" stroke-width="0.3"/>
<path d="M9.5 18H3.5C3.2235 18 3 17.776 3 17.5C3 17.224 3.2235 17 3.5 17H9.5C9.7765 17 10 17.224 10 17.5C10 17.776 9.7765 18 9.5 18Z" fill="#333333" stroke="#333333" stroke-width="0.3"/>
<path d="M5.5 18C5.2235 18 5 17.776 5 17.5V8C5 7.724 5.2235 7.5 5.5 7.5C5.7765 7.5 6 7.724 6 8V17.5C6 17.776 5.7765 18 5.5 18Z" fill="#333333" stroke="#333333" stroke-width="0.3"/>
<path d="M7.5 18C7.2235 18 7 17.776 7 17.5V8C7 7.724 7.2235 7.5 7.5 7.5C7.7765 7.5 8 7.724 8 8V17.5C8 17.776 7.7765 18 7.5 18Z" fill="#333333" stroke="#333333" stroke-width="0.3"/>
<path d="M8 3.5H5V4.5H8V3.5Z" fill="#333333" stroke="#333333" stroke-width="0.3"/>
<path d="M5 8.5C3.897 8.5 3 7.603 3 6.5C3 6.224 3.2235 6 3.5 6C3.7765 6 4 6.224 4 6.5C4 7.0515 4.4485 7.5 5 7.5C5.5515 7.5 6 7.0515 6 6.5C6 6.224 6.2235 6 6.5 6C6.7765 6 7 6.224 7 6.5C7 7.603 6.103 8.5 5 8.5Z" fill="#333333" stroke="#333333" stroke-width="0.3"/>
<path d="M8 8.5C6.897 8.5 6 7.603 6 6.5C6 6.224 6.2235 6 6.5 6C6.7765 6 7 6.224 7 6.5C7 7.0515 7.4485 7.5 8 7.5C8.5515 7.5 9 7.0515 9 6.5C9 6.224 9.2235 6 9.5 6C9.7765 6 10 6.224 10 6.5C10 7.603 9.103 8.5 8 8.5Z" fill="#333333" stroke="#333333" stroke-width="0.3"/>
</g>
<defs>
<clipPath id="clip0_721_2456">
<rect width="24" height="24" fill="white"/>
</clipPath>
</defs>
</svg>
