<svg width="24" height="24" viewBox="0 0 24 24" fill="none" xmlns="http://www.w3.org/2000/svg">
<path d="M12 0C7.443 0 3.75 3.693 3.75 8.25C3.75 11.2733 6.516 14.4773 7.52325 17.2913C9.0255 21.4875 8.859 24 12 24C15.1875 24 14.9738 21.4995 16.4767 17.3085C17.487 14.4885 20.25 11.25 20.25 8.25C20.25 3.693 16.5555 0 12 0ZM13.944 20.382L10.2255 20.8463C10.0928 20.4622 9.95025 20.013 9.777 19.4265C9.77475 19.419 9.77175 19.4107 9.77025 19.4032L14.4113 18.8235C14.3453 19.0448 14.2747 19.2773 14.2133 19.4858C14.115 19.8225 14.0272 20.115 13.944 20.382ZM9.552 18.681C9.4155 18.2295 9.26175 17.754 9.09075 17.25H14.9152C14.823 17.5193 14.7308 17.7892 14.6512 18.0443L9.552 18.681ZM12 22.5C11.2403 22.5 10.8908 22.4123 10.5023 21.5625L13.6807 21.1642C13.2202 22.4048 12.885 22.5 12 22.5ZM15.504 15.75H8.50425C8.13075 14.94 7.68225 14.13 7.23975 13.3373C6.261 11.586 5.25 9.77475 5.25 8.25C5.25 4.52775 8.27775 1.5 12 1.5C15.7222 1.5 18.75 4.52775 18.75 8.25C18.75 9.7635 17.7375 11.5845 16.758 13.3463C16.32 14.136 15.8745 14.9445 15.504 15.75Z" fill="#333333"/>
<path d="M12 3.75C9.51825 3.75 7.5 5.76825 7.5 8.25C7.5 8.457 7.668 8.625 7.875 8.625C8.082 8.625 8.25 8.457 8.25 8.25C8.25 6.18225 9.93225 4.5 12 4.5C12.207 4.5 12.375 4.332 12.375 4.125C12.375 3.918 12.2063 3.75 12 3.75Z" fill="#333333"/>
</svg>
