<svg width="25" height="24" viewBox="0 0 25 24" fill="none" xmlns="http://www.w3.org/2000/svg">
<path d="M23.3069 8.82706C23.0433 8.51732 22.7157 8.26838 22.3466 8.09736C21.9776 7.92634 21.5759 7.83731 21.1691 7.83639H14.5994V3.61299C14.5978 3.13056 14.4724 2.65661 14.235 2.23662C13.9976 1.81663 13.6563 1.46467 13.2437 1.21452L11.5752 0.17171C11.4512 0.0900724 11.3111 0.0358716 11.1644 0.0127345C11.0177 -0.0104026 10.8678 -0.00194239 10.7246 0.037549C10.5815 0.0770404 10.4484 0.146652 10.3343 0.241726C10.2203 0.3368 10.1278 0.455142 10.0632 0.588835L5.05765 10.9648H1.04281C0.766242 10.9648 0.500999 11.0747 0.305433 11.2703C0.109868 11.4658 0 11.7311 0 12.0076V22.9572C0 23.2338 0.109868 23.499 0.305433 23.6946C0.500999 23.8901 0.766242 24 1.04281 24H19.6049C20.2818 23.9968 20.9357 23.7543 21.451 23.3153C21.9663 22.8764 22.3097 22.2693 22.4205 21.6015L23.9847 11.1213C24.0471 10.7125 24.0187 10.2951 23.9016 9.89859C23.7844 9.50208 23.5814 9.13624 23.3069 8.82706ZM2.08563 13.0505H4.69266V21.9144H2.08563V13.0505ZM21.8991 10.8084L20.3349 21.2887C20.3096 21.4637 20.2217 21.6236 20.0874 21.7387C19.9532 21.8538 19.7817 21.9162 19.6049 21.9144H6.77829V12.2683L11.471 2.57018L12.1488 2.98731C12.2588 3.05082 12.3503 3.14195 12.4144 3.25169C12.4784 3.36142 12.5126 3.48596 12.5138 3.61299V8.8792C12.5138 9.15578 12.6236 9.42102 12.8192 9.61658C13.0148 9.81215 13.28 9.92202 13.5566 9.92202H21.1691C21.2797 9.91944 21.3894 9.94202 21.4899 9.98806C21.5905 10.0341 21.6793 10.1024 21.7496 10.1877C21.8199 10.2731 21.8699 10.3733 21.8958 10.4809C21.9217 10.5884 21.9228 10.7004 21.8991 10.8084Z" fill="#333333"/>
</svg>
