<svg width="450" height="386" viewBox="0 0 450 386" fill="none" xmlns="http://www.w3.org/2000/svg">
<path d="M449.568 210.517C451.867 179.777 444.696 147.657 435.043 119.043C420.713 76.5236 392.903 32.924 346.051 22.8688C319.034 17.1229 291.546 23.2825 268.39 37.808C246.107 51.7934 228.744 69.8469 201.359 73.3518C173.664 76.8913 145.245 75.4663 117.4 75.4663C45.8185 75.4663 -12.2836 150.162 2.24191 227.973C16.7674 305.783 85.235 359.725 143.337 359.725C195.544 359.725 238.489 328.617 288.133 320.263C312.725 316.126 337.409 321.021 361.749 314.816C390.03 307.599 416.621 290.384 432.296 265.459C442.914 248.486 448.109 229.766 449.568 210.517Z" fill="#88B5FF"/>
<path opacity="0.7" d="M449.568 210.517C451.867 179.777 444.696 147.657 435.043 119.043C420.713 76.5236 392.903 32.924 346.051 22.8688C319.034 17.1229 291.546 23.2825 268.39 37.808C246.107 51.7934 228.744 69.8469 201.359 73.3518C173.664 76.8913 145.245 75.4663 117.4 75.4663C45.8185 75.4663 -12.2836 150.162 2.24191 227.973C16.7674 305.783 85.235 359.725 143.337 359.725C195.544 359.725 238.489 328.617 288.133 320.263C312.725 316.126 337.409 321.021 361.749 314.816C390.03 307.599 416.621 290.384 432.296 265.459C442.914 248.486 448.109 229.766 449.568 210.517Z" fill="white"/>
<path d="M225.812 385.674C349.287 385.674 449.384 382.885 449.384 379.445C449.384 376.005 349.287 373.217 225.812 373.217C102.337 373.217 2.24121 376.005 2.24121 379.445C2.24121 382.885 102.337 385.674 225.812 385.674Z" fill="#2E353A"/>
<path d="M339.075 373.768H318.39V1L339.075 25.0521V373.768Z" stroke="#2E353A" stroke-linecap="round" stroke-linejoin="round"/>
<path d="M318.585 285.995H338.879L318.585 266.379H338.879L318.585 285.995Z" stroke="#2E353A" stroke-linecap="round" stroke-linejoin="round"/>
<path d="M318.585 265.884H338.879L318.585 246.268H338.879L318.585 265.884Z" stroke="#2E353A" stroke-linecap="round" stroke-linejoin="round"/>
<path d="M318.585 326.043H338.879L318.585 306.427H338.879L318.585 326.043Z" stroke="#2E353A" stroke-linecap="round" stroke-linejoin="round"/>
<path d="M318.585 305.933H338.879L318.585 286.316H338.879L318.585 305.933Z" stroke="#2E353A" stroke-linecap="round" stroke-linejoin="round"/>
<path d="M318.585 245.774H338.879L318.585 226.157H338.879L318.585 245.774Z" stroke="#2E353A" stroke-linecap="round" stroke-linejoin="round"/>
<path d="M318.585 225.663H338.879L318.585 206.047H338.879L318.585 225.663Z" stroke="#2E353A" stroke-linecap="round" stroke-linejoin="round"/>
<path d="M318.585 205.553H338.879L318.585 185.937H338.879L318.585 205.553Z" stroke="#2E353A" stroke-linecap="round" stroke-linejoin="round"/>
<path d="M318.585 185.443H338.879L318.585 165.826H338.879L318.585 185.443Z" stroke="#2E353A" stroke-linecap="round" stroke-linejoin="round"/>
<path d="M318.585 165.331H338.879L318.585 145.715H338.879L318.585 165.331Z" stroke="#2E353A" stroke-linecap="round" stroke-linejoin="round"/>
<path d="M318.585 145.221H338.879L318.585 125.604H338.879L318.585 145.221Z" stroke="#2E353A" stroke-linecap="round" stroke-linejoin="round"/>
<path d="M318.585 125.11H338.879L318.585 105.494H338.879L318.585 125.11Z" stroke="#2E353A" stroke-linecap="round" stroke-linejoin="round"/>
<path d="M318.585 105H338.879L318.585 85.3838H338.879L318.585 105Z" stroke="#2E353A" stroke-linecap="round" stroke-linejoin="round"/>
<path d="M318.585 84.8898H338.879L318.585 65.2734H338.879L318.585 84.8898Z" stroke="#2E353A" stroke-linecap="round" stroke-linejoin="round"/>
<path d="M318.585 64.7794H338.879L318.585 45.1631H338.879L318.585 64.7794Z" stroke="#2E353A" stroke-linecap="round" stroke-linejoin="round"/>
<path d="M318.585 44.6691H338.879L318.585 25.0527H338.879L318.585 44.6691Z" stroke="#2E353A" stroke-linecap="round" stroke-linejoin="round"/>
<path d="M435.1 45.2093L425.079 38.9004H353.577L344.844 45.2093H435.1Z" stroke="#2E353A" stroke-linecap="round" stroke-linejoin="round"/>
<path d="M436.754 44.668H262.08V49.2647H436.754V44.668Z" fill="#2E353A" stroke="#2E353A" stroke-linecap="round" stroke-linejoin="round"/>
<path d="M425.079 38.8997L318.39 1L353.577 38.8997" stroke="#2E353A" stroke-linecap="round" stroke-linejoin="round"/>
<path d="M318.389 1L262.08 44.6685" stroke="#2E353A" stroke-linecap="round" stroke-linejoin="round"/>
<path d="M354.014 54.4365H310.92V82.0166H354.014V54.4365Z" fill="#2E353A" stroke="#2E353A" stroke-linecap="round" stroke-linejoin="round"/>
<path d="M354.014 346.739H310.92V374.319H354.014V346.739Z" fill="#2E353A" stroke="#2E353A" stroke-linecap="round" stroke-linejoin="round"/>
<path d="M345.027 60.1826H319.895V68.2268H345.027V60.1826Z" fill="white" stroke="#2E353A" stroke-linecap="round" stroke-linejoin="round"/>
<path d="M436.754 49.2656V98.8179" stroke="#2E353A" stroke-linecap="round" stroke-linejoin="round"/>
<path d="M443.316 115.733H430.549V130.201H443.316V115.733Z" fill="#2E353A" stroke="#2E353A" stroke-linecap="round" stroke-linejoin="round"/>
<path d="M430.549 115.733L436.927 97.875L443.316 115.733" stroke="#2E353A" stroke-linecap="round" stroke-linejoin="round"/>
<path d="M266.586 343.224V317.666H191.257V343.247C191.245 351.596 188.41 359.695 183.213 366.23L179.915 370.39H277.882L274.572 366.23C269.395 359.679 266.581 351.573 266.586 343.224Z" fill="white" stroke="#2E353A" stroke-width="1.09543" stroke-linecap="round" stroke-linejoin="round"/>
<g style="mix-blend-mode:multiply">
<path d="M186.627 361.139H271.217C268.192 355.653 266.611 349.488 266.621 343.224V317.666H191.258V343.247C191.254 349.507 189.66 355.663 186.627 361.139Z" fill="#88B5FF"/>
</g>
<path d="M266.586 321.492H191.258V332.294H266.586V321.492Z" fill="#2E353A" stroke="#2E353A" stroke-width="1.09543" stroke-linecap="round" stroke-linejoin="round"/>
<path d="M369.632 98.6338H88.2119C82.3158 98.6338 77.5361 103.414 77.5361 109.31V315.034C77.5361 320.93 82.3158 325.71 88.2119 325.71H369.632C375.529 325.71 380.308 320.93 380.308 315.034V109.31C380.308 103.414 375.529 98.6338 369.632 98.6338Z" fill="#2E353A" stroke="#2E353A" stroke-width="1.09543" stroke-linecap="round" stroke-linejoin="round"/>
<path d="M77.5361 290.419H380.308V315.034C380.308 317.866 379.183 320.581 377.181 322.583C375.179 324.585 372.464 325.71 369.632 325.71H88.2694C85.438 325.71 82.7226 324.585 80.7205 322.583C78.7184 320.581 77.5936 317.866 77.5936 315.034V290.419H77.5361Z" fill="white" stroke="#2E353A" stroke-width="1.09543" stroke-linecap="round" stroke-linejoin="round"/>
<path d="M365.069 112.769H92.7617V273.193H365.069V112.769Z" fill="#88B5FF" stroke="#2E353A" stroke-width="1.09543" stroke-linecap="round" stroke-linejoin="round"/>
<path d="M234.502 308.07C234.504 306.965 234.179 305.884 233.566 304.964C232.954 304.044 232.083 303.327 231.062 302.902C230.042 302.478 228.919 302.365 227.834 302.58C226.75 302.794 225.754 303.325 224.972 304.105C224.19 304.886 223.657 305.881 223.44 306.965C223.224 308.048 223.334 309.172 223.756 310.193C224.178 311.214 224.894 312.087 225.813 312.702C226.732 313.316 227.812 313.644 228.917 313.644C229.65 313.645 230.376 313.502 231.053 313.223C231.731 312.943 232.347 312.533 232.865 312.015C233.384 311.498 233.796 310.883 234.077 310.206C234.357 309.529 234.502 308.803 234.502 308.07Z" fill="#2E353A" stroke="#2E353A" stroke-width="1.09543" stroke-linecap="round" stroke-linejoin="round"/>
<path d="M277.906 370.379H179.95V374.941H277.906V370.379Z" fill="white" stroke="#2E353A" stroke-width="1.09543" stroke-linecap="round" stroke-linejoin="round"/>
<path d="M317.54 152.966C320.695 149.806 323.025 145.919 324.325 141.646C325.626 137.374 325.857 132.848 324.998 128.466L307.91 145.554C306.939 146.52 305.625 147.062 304.255 147.062C302.886 147.062 301.572 146.52 300.601 145.554L286.397 131.35C285.916 130.87 285.534 130.299 285.274 129.671C285.013 129.043 284.879 128.37 284.879 127.69C284.879 127.01 285.013 126.337 285.274 125.709C285.534 125.081 285.916 124.51 286.397 124.03L303.474 106.953C298.688 106.019 293.739 106.386 289.143 108.016C284.548 109.646 280.473 112.479 277.346 116.22C274.219 119.962 272.153 124.474 271.364 129.286C270.575 134.098 271.091 139.033 272.86 143.577L228.766 186.66L224.514 182.396L231.409 175.501C231.762 175.143 231.959 174.66 231.959 174.157C231.959 173.654 231.762 173.171 231.409 172.812L226.031 167.434C225.676 167.08 225.194 166.881 224.692 166.881C224.19 166.881 223.709 167.08 223.354 167.434L220.665 170.123L214.838 164.309L217.079 162.068C217.554 161.592 217.82 160.947 217.82 160.275C217.82 159.603 217.554 158.958 217.079 158.482L168.963 110.366C167.817 109.218 166.456 108.308 164.957 107.686C163.458 107.065 161.852 106.745 160.23 106.745C158.607 106.745 157.001 107.065 155.502 107.686C154.004 108.308 152.642 109.218 151.496 110.366L146.577 115.285C145.43 116.43 144.519 117.791 143.898 119.288C143.277 120.786 142.957 122.391 142.957 124.013C142.957 125.634 143.277 127.24 143.898 128.737C144.519 130.235 145.43 131.595 146.577 132.741L194.693 180.868C195.169 181.342 195.814 181.609 196.486 181.609C197.158 181.609 197.803 181.342 198.279 180.868L200.52 178.627L206.334 184.454L203.657 187.131C203.48 187.307 203.339 187.517 203.243 187.748C203.147 187.978 203.098 188.226 203.098 188.476C203.098 188.726 203.147 188.973 203.243 189.204C203.339 189.434 203.48 189.644 203.657 189.82L209.023 195.198C209.382 195.551 209.865 195.748 210.368 195.748C210.871 195.748 211.354 195.551 211.712 195.198L218.608 188.303L222.791 192.486L186.224 228.111C181.679 226.343 176.743 225.827 171.932 226.617C167.12 227.406 162.607 229.472 158.866 232.599C155.124 235.726 152.289 239.799 150.657 244.394C149.026 248.989 148.656 253.938 149.588 258.724L166.676 241.648C167.157 241.167 167.727 240.785 168.355 240.524C168.983 240.264 169.657 240.13 170.337 240.13C171.017 240.13 171.69 240.264 172.318 240.524C172.946 240.785 173.516 241.167 173.997 241.648L188.246 255.76C188.728 256.24 189.109 256.81 189.37 257.438C189.63 258.067 189.765 258.74 189.765 259.42C189.765 260.1 189.63 260.773 189.37 261.401C189.109 262.029 188.728 262.599 188.246 263.08L171.17 280.156C175.956 281.09 180.904 280.722 185.5 279.092C190.095 277.461 194.169 274.628 197.297 270.888C200.425 267.147 202.492 262.636 203.283 257.825C204.075 253.013 203.561 248.078 201.795 243.532L238.362 207.908L288.224 257.713C287.508 259.56 287.344 261.575 287.752 263.513C288.16 265.451 289.122 267.229 290.523 268.63L302.554 280.662L316.988 266.217L304.956 254.197C303.555 252.797 301.777 251.834 299.839 251.426C297.901 251.018 295.886 251.182 294.039 251.898L244.257 202.116L288.397 159.08C293.324 160.997 298.702 161.44 303.877 160.354C309.051 159.269 313.798 156.702 317.54 152.966Z" fill="#2E353A" stroke="#2E353A" stroke-width="1.09543" stroke-linecap="round" stroke-linejoin="round"/>
<path d="M198.76 237.407L285.327 152.955C289.874 154.726 294.814 155.244 299.629 154.453C304.445 153.663 308.96 151.594 312.703 148.462C316.445 145.33 319.278 141.25 320.905 136.649C322.532 132.048 322.893 127.095 321.951 122.306L304.874 139.383C304.394 139.864 303.823 140.246 303.195 140.507C302.567 140.767 301.894 140.901 301.214 140.901C300.534 140.901 299.861 140.767 299.233 140.507C298.605 140.246 298.034 139.864 297.554 139.383L283.35 125.179C282.869 124.7 282.488 124.13 282.227 123.503C281.967 122.876 281.833 122.204 281.833 121.525C281.833 120.846 281.967 120.174 282.227 119.547C282.488 118.92 282.869 118.35 283.35 117.871L300.427 100.782C295.639 99.8493 290.688 100.219 286.091 101.852C281.494 103.486 277.421 106.323 274.295 110.069C271.169 113.814 269.107 118.33 268.322 123.145C267.538 127.96 268.061 132.897 269.836 137.441L183.269 221.894C178.725 220.125 173.789 219.608 168.977 220.397C164.165 221.187 159.653 223.252 155.912 226.38C152.171 229.507 149.337 233.581 147.707 238.177C146.077 242.773 145.71 247.722 146.645 252.507L163.722 235.431C164.202 234.95 164.772 234.568 165.4 234.307C166.028 234.047 166.702 233.913 167.382 233.913C168.062 233.913 168.735 234.047 169.363 234.307C169.991 234.568 170.561 234.95 171.042 235.431L185.245 249.635C185.726 250.114 186.108 250.683 186.368 251.311C186.629 251.938 186.763 252.61 186.763 253.289C186.763 253.968 186.629 254.64 186.368 255.267C186.108 255.894 185.726 256.464 185.245 256.943L168.134 273.997C172.92 274.93 177.869 274.562 182.464 272.932C187.06 271.302 191.134 268.469 194.262 264.728C197.39 260.988 199.457 256.477 200.248 251.665C201.039 246.854 200.525 241.918 198.76 237.373V237.407Z" fill="white" stroke="#2E353A" stroke-miterlimit="10"/>
<path d="M192.095 228.547C191.433 227.884 191.062 226.985 191.062 226.048C191.062 225.111 191.433 224.212 192.095 223.548L269.928 147.829C270.594 147.167 271.494 146.795 272.433 146.795C273.372 146.795 274.273 147.167 274.939 147.829C275.601 148.495 275.973 149.395 275.973 150.334C275.973 151.273 275.601 152.174 274.939 152.84L197.105 228.547C196.44 229.21 195.539 229.581 194.6 229.581C193.661 229.581 192.76 229.21 192.095 228.547Z" fill="white" stroke="#2E353A" stroke-miterlimit="10"/>
<path d="M215.177 169.944L209.359 175.762L293.308 259.71L299.126 253.892L215.177 169.944Z" fill="white" stroke="#2E353A" stroke-miterlimit="10"/>
<path d="M313.941 260.092L299.507 274.526L287.475 262.505C285.56 260.59 284.484 257.992 284.484 255.283C284.484 252.574 285.56 249.976 287.475 248.06C288.423 247.112 289.548 246.36 290.786 245.847C292.025 245.334 293.352 245.07 294.692 245.07C296.032 245.07 297.36 245.334 298.598 245.847C299.836 246.36 300.961 247.112 301.909 248.06L313.941 260.092Z" fill="white" stroke="#2E353A" stroke-miterlimit="10"/>
<path d="M207.347 153.608L193.021 167.934L204.658 179.57L218.984 165.244L207.347 153.608Z" fill="white" stroke="#2E353A" stroke-miterlimit="10"/>
<path d="M143.557 109.066L148.482 104.142C149.628 102.995 150.988 102.086 152.486 101.466C153.983 100.846 155.588 100.527 157.209 100.527C158.83 100.527 160.434 100.846 161.932 101.466C163.429 102.086 164.79 102.995 165.936 104.142L214.057 152.263C214.531 152.737 214.798 153.38 214.798 154.051C214.798 154.721 214.531 155.364 214.057 155.838L195.254 174.642C194.78 175.116 194.137 175.382 193.466 175.382C192.796 175.382 192.153 175.116 191.679 174.642L143.557 126.52C141.243 124.206 139.942 121.066 139.942 117.793C139.942 114.52 141.243 111.38 143.557 109.066Z" fill="white" stroke="#2E353A" stroke-miterlimit="10"/>
<path d="M220.324 161.226L200.627 180.923C199.886 181.663 199.886 182.864 200.627 183.604L206.006 188.984C206.747 189.724 207.947 189.724 208.688 188.984L228.385 169.287C229.125 168.546 229.125 167.346 228.385 166.605L223.006 161.226C222.265 160.485 221.064 160.485 220.324 161.226Z" fill="white" stroke="#2E353A" stroke-miterlimit="10"/>
<path d="M197.944 167.492L193.991 171.456L146.737 124.202C146.211 123.677 145.916 122.964 145.916 122.22C145.916 121.477 146.211 120.764 146.737 120.238C146.996 119.976 147.305 119.768 147.646 119.627C147.986 119.485 148.351 119.412 148.719 119.412C149.088 119.412 149.453 119.485 149.793 119.627C150.133 119.768 150.442 119.976 150.702 120.238L197.944 167.492Z" fill="white" stroke="#2E353A" stroke-miterlimit="10"/>
<path d="M204.689 160.746L200.712 164.71L153.459 117.456C152.933 116.931 152.638 116.217 152.638 115.474C152.638 114.731 152.933 114.018 153.459 113.492C153.718 113.23 154.027 113.022 154.367 112.881C154.707 112.739 155.072 112.666 155.441 112.666C155.809 112.666 156.174 112.739 156.515 112.881C156.855 113.022 157.164 113.23 157.423 113.492L204.689 160.746Z" fill="white" stroke="#2E353A" stroke-miterlimit="10"/>
<path d="M211.436 154L207.46 157.931L160.206 110.711C159.68 110.185 159.385 109.472 159.385 108.729C159.385 107.985 159.68 107.272 160.206 106.747C160.465 106.485 160.774 106.277 161.114 106.136C161.454 105.994 161.819 105.921 162.188 105.921C162.557 105.921 162.921 105.994 163.262 106.136C163.602 106.277 163.911 106.485 164.17 106.747L211.436 154Z" fill="white" stroke="#2E353A" stroke-miterlimit="10"/>
<path d="M369.608 376.354H365.782L341.04 173.342H344.878L369.608 376.354Z" fill="white" stroke="#2E353A" stroke-miterlimit="10"/>
<path d="M399.486 376.354H395.66L370.918 173.342H374.756L399.486 376.354Z" fill="white" stroke="#2E353A" stroke-miterlimit="10"/>
<path d="M374.998 190.165H345.131L344.361 183.902H374.24L374.998 190.165Z" fill="white" stroke="#2E353A" stroke-miterlimit="10"/>
<path d="M377.813 213.287H347.946L347.188 207.024H377.054L377.813 213.287Z" fill="white" stroke="#2E353A" stroke-miterlimit="10"/>
<path d="M380.641 236.409H350.762L350.004 230.146H379.871L380.641 236.409Z" fill="white" stroke="#2E353A" stroke-miterlimit="10"/>
<path d="M383.456 259.541H353.589L352.819 253.278H382.686L383.456 259.541Z" fill="white" stroke="#2E353A" stroke-miterlimit="10"/>
<path d="M386.272 282.663H356.405L355.635 276.4H385.502L386.272 282.663Z" fill="white" stroke="#2E353A" stroke-miterlimit="10"/>
<path d="M389.087 305.784H359.22L358.462 299.521H388.329L389.087 305.784Z" fill="white" stroke="#2E353A" stroke-miterlimit="10"/>
<path d="M391.903 328.917H362.036L361.277 322.654H391.144L391.903 328.917Z" fill="white" stroke="#2E353A" stroke-miterlimit="10"/>
<path d="M394.73 352.037H364.851L364.093 345.774H393.96L394.73 352.037Z" fill="white" stroke="#2E353A" stroke-miterlimit="10"/>
<path d="M344.672 186.361H348.579" stroke="#2E353A" stroke-width="0.5" stroke-miterlimit="10"/>
<path d="M345.592 188.2H353.176" stroke="#2E353A" stroke-width="0.5" stroke-miterlimit="10"/>
<path d="M374.537 188.2H369.021" stroke="#2E353A" stroke-width="0.5" stroke-miterlimit="10"/>
<path d="M377.298 210.482H372.241" stroke="#2E353A" stroke-width="0.5" stroke-miterlimit="10"/>
<path d="M348.35 211.633H360.071" stroke="#2E353A" stroke-width="0.5" stroke-miterlimit="10"/>
<path d="M350.418 233.225H360.531" stroke="#2E353A" stroke-width="0.5" stroke-miterlimit="10"/>
<path d="M350.877 235.064H356.393" stroke="#2E353A" stroke-width="0.5" stroke-miterlimit="10"/>
<path d="M383.26 255.967H377.066" stroke="#2E353A" stroke-width="0.5" stroke-miterlimit="10"/>
<path d="M382.812 257.807H372.47" stroke="#2E353A" stroke-width="0.5" stroke-miterlimit="10"/>
<path d="M391.811 326.561H382.33" stroke="#2E353A" stroke-width="0.5" stroke-miterlimit="10"/>
<path d="M361.645 324.837H367.39" stroke="#2E353A" stroke-width="0.5" stroke-miterlimit="10"/>
<path d="M380.892 326.561H373.423" stroke="#2E353A" stroke-width="0.5" stroke-miterlimit="10"/>
<path d="M364.518 348.683H372.562" stroke="#2E353A" stroke-width="0.5" stroke-miterlimit="10"/>
<path d="M366.241 350.693H375.435" stroke="#2E353A" stroke-width="0.5" stroke-miterlimit="10"/>
<path d="M357.048 280.595H359.633" stroke="#2E353A" stroke-width="0.5" stroke-miterlimit="10"/>
<path d="M385.202 280.02H375.722" stroke="#2E353A" stroke-width="0.5" stroke-miterlimit="10"/>
<path d="M145.693 254.967L141.142 260.897L42.1523 183.615L46.7145 177.686L145.693 254.967Z" fill="#2E353A" stroke="#2E353A" stroke-width="1.09543" stroke-linecap="round" stroke-linejoin="round"/>
<path d="M42.1523 254.967L46.7145 260.897L145.693 183.615L141.142 177.686L42.1523 254.967Z" fill="#2E353A" stroke="#2E353A" stroke-width="1.09543" stroke-linecap="round" stroke-linejoin="round"/>
<path d="M145.693 341.776L142.877 349.418L42.1523 270.424L45.0368 262.713L145.693 341.776Z" fill="#2E353A" stroke="#2E353A" stroke-width="1.09543" stroke-linecap="round" stroke-linejoin="round"/>
<path d="M42.1523 341.776L42.8418 350.74L145.693 270.424L141.142 264.506L42.1523 341.776Z" fill="#2E353A" stroke="#2E353A" stroke-width="1.09543" stroke-linecap="round" stroke-linejoin="round"/>
<path d="M44.485 176.869H40.4629V376.365H44.485V176.869Z" fill="#2E353A" stroke="#2E353A" stroke-width="1.09543" stroke-linecap="round" stroke-linejoin="round"/>
<path d="M146.245 176.869H142.223V376.365H146.245V176.869Z" fill="#2E353A" stroke="#2E353A" stroke-width="1.09543" stroke-linecap="round" stroke-linejoin="round"/>
<path d="M126.329 254.967L121.767 260.897L22.7891 183.615L27.3398 177.686L126.329 254.967Z" fill="white" stroke="#2E353A" stroke-width="1.09543" stroke-linecap="round" stroke-linejoin="round"/>
<path d="M22.7891 254.967L27.3398 260.897L126.329 183.615L121.767 177.686L22.7891 254.967Z" fill="white" stroke="#2E353A" stroke-width="1.09543" stroke-linecap="round" stroke-linejoin="round"/>
<path d="M126.329 341.776L123.502 349.418L22.7891 270.424L24.237 262.713L126.329 341.776Z" fill="white" stroke="#2E353A" stroke-width="1.09543" stroke-linecap="round" stroke-linejoin="round"/>
<path d="M22.7891 341.776L23.4786 350.74L126.329 270.424L121.767 264.506L22.7891 341.776Z" fill="white" stroke="#2E353A" stroke-width="1.09543" stroke-linecap="round" stroke-linejoin="round"/>
<path d="M25.11 176.869H21.0879V376.365H25.11V176.869Z" fill="white" stroke="#2E353A" stroke-width="1.09543" stroke-linecap="round" stroke-linejoin="round"/>
<path d="M126.869 176.869H122.847V376.365H126.869V176.869Z" fill="white" stroke="#2E353A" stroke-width="1.09543" stroke-linecap="round" stroke-linejoin="round"/>
<path d="M132.052 175.02H15.917V181.34H132.052V175.02Z" fill="white" stroke="#2E353A" stroke-width="1.09543" stroke-linecap="round" stroke-linejoin="round"/>
<path d="M149.945 175.02H117.711V181.34H149.945V175.02Z" fill="#2E353A" stroke="#2E353A" stroke-width="1.09543" stroke-linecap="round" stroke-linejoin="round"/>
<path d="M132.052 257.806H15.917V264.126H132.052V257.806Z" fill="white" stroke="#2E353A" stroke-width="1.09543" stroke-linecap="round" stroke-linejoin="round"/>
<path d="M149.945 257.807H117.711V264.127H149.945V257.807Z" fill="#2E353A" stroke="#2E353A" stroke-width="1.09543" stroke-linecap="round" stroke-linejoin="round"/>
<path d="M276.768 376.354H267.678L279.802 305.324H288.903L276.768 376.354Z" fill="#2E353A" stroke="#2E353A" stroke-width="0.972732" stroke-miterlimit="10"/>
<path d="M294.958 376.354H304.059L291.924 305.324H282.834L294.958 376.354Z" fill="white" stroke="#2E353A" stroke-width="0.972732" stroke-miterlimit="10"/>
<path d="M405.843 376.354H396.753L408.877 305.324H417.967L405.843 376.354Z" fill="#2E353A" stroke="#2E353A" stroke-width="0.972732" stroke-miterlimit="10"/>
<path d="M424.034 376.354H433.135L421 305.324H411.91L424.034 376.354Z" fill="white" stroke="#2E353A" stroke-width="0.972732" stroke-miterlimit="10"/>
<path d="M430.399 284.789H256.908V308.887H430.399V284.789Z" fill="#88B5FF" stroke="#2E353A" stroke-width="0.972732" stroke-miterlimit="10"/>
<path d="M434.629 284.789H261.139V308.887H434.629V284.789Z" fill="#88B5FF" stroke="#2E353A" stroke-width="0.972732" stroke-miterlimit="10"/>
<path d="M263.978 308.887H278.698L286.306 284.789H271.585L263.978 308.887Z" fill="#2E353A"/>
<path d="M322.264 284.789H307.531L299.924 308.887H314.656L322.264 284.789Z" fill="#2E353A"/>
<path d="M430.113 284.789H415.381L407.773 308.887H422.506L430.113 284.789Z" fill="#2E353A"/>
<path d="M394.156 284.789H379.435L371.827 308.887H386.548L394.156 284.789Z" fill="#2E353A"/>
<path d="M358.208 284.789H343.476L335.868 308.887H350.601L358.208 284.789Z" fill="#2E353A"/>
<path d="M433.675 295.487H404.969" stroke="#2E353A" stroke-miterlimit="10"/>
<path d="M433.17 299.51H428.643" stroke="#2E353A" stroke-miterlimit="10"/>
<path d="M260.403 298.51H289.11" stroke="#2E353A" stroke-miterlimit="10"/>
<path d="M260.896 293.971H297.164" stroke="#2E353A" stroke-miterlimit="10"/>
</svg>
