<svg width="24" height="24" viewBox="0 0 24 24" fill="none" xmlns="http://www.w3.org/2000/svg">
<g clip-path="url(#clip0_2012_4197)">
<path d="M15 15.625C15 14.4978 14.5522 13.4168 13.7552 12.6198C12.9582 11.8228 11.8772 11.375 10.75 11.375C9.62283 11.375 8.54183 11.8228 7.7448 12.6198C6.94777 13.4168 6.5 14.4978 6.5 15.625C6.5 16.0228 6.65804 16.4044 6.93934 16.6857C7.22064 16.967 7.60218 17.125 8 17.125C8.39782 17.125 8.77936 16.967 9.06066 16.6857C9.34196 16.4044 9.5 16.0228 9.5 15.625C9.5 15.2935 9.6317 14.9755 9.86612 14.7411C10.1005 14.5067 10.4185 14.375 10.75 14.375C11.0815 14.375 11.3995 14.5067 11.6339 14.7411C11.8683 14.9755 12 15.2935 12 15.625C12 16.25 10.808 17.144 9.85 17.862C8.28 19.04 6.5 20.375 6.5 22.5C6.5 22.8978 6.65804 23.2794 6.93934 23.5607C7.22064 23.842 7.60218 24 8 24H13.5C13.8978 24 14.2794 23.842 14.5607 23.5607C14.842 23.2794 15 22.8978 15 22.5C15 22.1022 14.842 21.7206 14.5607 21.4393C14.2794 21.158 13.8978 21 13.5 21H10.7C11.01 20.746 11.345 20.5 11.655 20.263C13.22 19.085 15 17.75 15 15.625Z" fill="#FE5D35"/>
<path d="M22.5 11C22.1022 11 21.7206 11.158 21.4393 11.4393C21.158 11.7206 21 12.1022 21 12.5V17H20.25C19.9186 16.9995 19.601 16.8676 19.3667 16.6333C19.1324 16.399 19.0005 16.0814 19 15.75V12.5C19 12.1022 18.842 11.7206 18.5607 11.4393C18.2794 11.158 17.8978 11 17.5 11C17.1022 11 16.7206 11.158 16.4393 11.4393C16.158 11.7206 16 12.1022 16 12.5V15.75C16.0013 16.8768 16.4495 17.957 17.2463 18.7537C18.043 19.5505 19.1232 19.9987 20.25 20H21V22.5C21 22.8978 21.158 23.2794 21.4393 23.5607C21.7206 23.842 22.1022 24 22.5 24C22.8978 24 23.2794 23.842 23.5607 23.5607C23.842 23.2794 24 22.8978 24 22.5V12.5C24 12.1022 23.842 11.7206 23.5607 11.4393C23.2794 11.158 22.8978 11 22.5 11Z" fill="#FE5D35"/>
<path d="M22.2931 2.70652L20.9701 4.02952C19.0084 1.82165 16.3013 0.414782 13.367 0.078204C10.4328 -0.258374 7.47748 0.49898 5.06676 2.2053C2.65604 3.91163 0.959263 6.44706 0.301194 9.3263C-0.356875 12.2056 0.0699949 15.2264 1.5001 17.8105C1.59563 17.9828 1.72417 18.1346 1.87837 18.2572C2.03257 18.3798 2.20941 18.4709 2.39879 18.5252C2.58818 18.5794 2.7864 18.5959 2.98214 18.5736C3.17788 18.5512 3.3673 18.4906 3.5396 18.395C3.71189 18.2995 3.86368 18.1709 3.9863 18.0167C4.10892 17.8625 4.19997 17.6857 4.25424 17.4963C4.30852 17.3069 4.32496 17.1087 4.30263 16.913C4.2803 16.7172 4.21964 16.5278 4.1241 16.3555C3.04306 14.4052 2.72525 12.1228 3.23235 9.95134C3.73945 7.77989 5.03529 5.87432 6.86832 4.60453C8.70135 3.33474 10.9408 2.79133 13.1519 3.07978C15.3631 3.36824 17.3882 4.46798 18.8341 6.16552L17.7071 7.29252C17.5673 7.43237 17.4721 7.61054 17.4335 7.80449C17.3949 7.99844 17.4148 8.19947 17.4904 8.38217C17.5661 8.56487 17.6942 8.72104 17.8586 8.83092C18.0231 8.94081 18.2163 8.99948 18.4141 8.99952H23.0001C23.2653 8.99952 23.5197 8.89416 23.7072 8.70663C23.8947 8.51909 24.0001 8.26474 24.0001 7.99952V3.41352C24.0001 3.21577 23.9414 3.02247 23.8315 2.85806C23.7216 2.69365 23.5655 2.56551 23.3828 2.48984C23.2001 2.41417 22.999 2.39437 22.8051 2.43294C22.6111 2.4715 22.433 2.56671 22.2931 2.70652Z" fill="#FE5D35"/>
</g>
<defs>
<clipPath id="clip0_2012_4197">
<rect width="24" height="24" fill="white"/>
</clipPath>
</defs>
</svg>
