<svg width="630" height="391" viewBox="0 0 630 391" fill="none" xmlns="http://www.w3.org/2000/svg">
<path d="M589.555 172.38C578.966 166.469 566 162.224 552.089 158.994C543.881 157.086 516.248 155.649 511.042 149.679C499.432 136.367 508.827 120.287 512.861 106.092C522.269 72.9789 490.716 46.5179 465.316 31.6095C440.566 17.0832 411.419 19.6549 384.083 23.1846C354.853 26.9594 327.044 33.611 300.394 46.3982C276.072 58.0734 251.37 79.9641 223.224 80.8565C195.902 81.7261 175.12 60.7392 154.287 46.3012C89.9066 1.68444 12.294 66.8348 18.9799 137.938C22.4496 174.843 46.778 212.261 15.4046 244.418C13.9648 245.895 12.6447 247.358 11.5157 248.803C1.07213 262.166 -0.644232 271.027 0.179734 288.87C2.33231 335.337 43.8813 355.945 84.8459 361.037C120.051 365.413 148.328 339.24 180.081 329.409C210.685 319.935 243.669 334.772 272.801 343.488C331.349 361.002 412.753 400.858 453.638 332.623C473.231 299.92 499.099 304.591 532.397 303.233C571.186 301.654 600.327 271.17 612.281 235.691C623.05 203.733 611.321 184.528 589.55 172.374L589.555 172.38Z" fill="url(#paint0_linear_418_1443)"/>
<path d="M240.898 203.294C232.153 170.458 213.513 143.715 190.71 127.407C170.325 112.829 156.172 90.9954 151.707 66.3591C151.236 63.7703 150.658 61.1673 149.962 58.5614C139.447 19.0708 106.725 -6.50064 76.877 1.44822C47.0289 9.39707 31.3564 47.8527 41.8741 87.3432C44.0238 95.4175 47.103 102.91 50.8978 109.65C63.0036 131.162 66.9523 156.442 61.0021 180.412C55.6848 201.832 55.7105 226.246 62.2651 250.862C72.0415 287.578 94.1945 316.68 120.701 332.09C130.728 337.917 139.658 345.53 146.926 354.556C159.003 369.553 176.657 377.197 193.413 372.735C211.489 367.922 223.466 350.368 225.257 329.287C226.269 317.358 229.619 305.783 234.702 294.931C246.703 269.32 249.736 236.493 240.898 203.294Z" fill="#BDD0FB"/>
<path d="M98.5171 40.6767C109.366 65.7378 119.401 91.1268 129.172 116.621C131.618 122.994 133.959 129.406 136.323 135.809L139.867 145.415L143.331 155.048C145.614 161.48 147.986 167.881 150.199 174.342L156.833 193.715C161.09 206.687 165.458 219.623 169.475 232.675C171.494 239.198 173.638 245.679 175.522 252.242L181.267 271.903C188.66 298.193 195.397 324.683 200.78 351.458L199.628 351.7L194.839 331.819L193.652 326.847L192.341 321.906L189.701 312.03L187.081 302.151C186.214 298.855 185.225 295.593 184.301 292.312C182.411 285.763 180.574 279.199 178.644 272.665C170.75 246.571 162.507 220.581 153.729 194.764C149.241 181.889 144.864 168.979 140.288 156.135L136.881 146.492L133.395 136.878C131.074 130.469 128.753 124.057 126.367 117.671C121.705 104.855 116.949 92.0734 112.091 79.329C107.298 66.5618 102.386 53.8345 97.4365 41.1272L98.5228 40.6738L98.5171 40.6767Z" fill="url(#paint1_linear_418_1443)"/>
<path d="M142.268 282.806C132.751 264.77 118.276 251.615 102.774 245.117C88.918 239.31 77.7218 228.43 71.8057 214.616C71.1842 213.165 70.4942 211.72 69.7387 210.288C58.2944 188.597 35.7593 178.005 19.4026 186.636C3.0487 195.263 -0.934285 219.845 10.51 241.536C12.8508 245.973 15.6534 249.941 18.7753 253.38C28.7342 264.345 34.4336 278.603 34.1827 293.415C33.9574 306.65 37.2533 320.925 44.3867 334.448C55.027 354.616 71.8684 368.681 89.4112 374.158C96.0457 376.231 102.284 379.489 107.738 383.8C116.802 390.959 128.135 393.075 137.315 388.231C147.22 383.005 151.853 371.144 150.065 358.577C149.053 351.466 149.452 344.25 150.964 337.225C154.527 320.646 151.887 301.044 142.268 282.809V282.806Z" fill="#91B3FA"/>
<path d="M37.3045 206.693C47.0039 219.902 56.2729 233.41 65.4021 247.019C67.6858 250.42 69.9154 253.856 72.1535 257.286L75.5121 262.432L78.8279 267.604C81.0261 271.062 83.2699 274.489 85.4282 277.97L91.903 288.417C96.1312 295.436 100.419 302.418 104.516 309.515C106.569 313.059 108.693 316.566 110.675 320.152L116.67 330.884C124.52 345.273 132.009 359.865 138.749 374.808L138.111 375.104L132.642 364.116L131.282 361.368L129.854 358.653L126.986 353.228L124.129 347.799C123.18 345.989 122.165 344.213 121.184 342.416C119.202 338.838 117.246 335.246 115.242 331.682C107.128 317.475 98.8226 303.374 90.2323 289.449C85.8815 282.518 81.5934 275.55 77.197 268.65L73.9126 263.467L70.5854 258.309C68.3701 254.871 66.1519 251.429 63.9024 248.014C59.4604 241.143 54.9671 234.3 50.4196 227.494C45.9063 220.666 41.3303 213.878 36.7314 207.109L37.3045 206.699V206.693Z" fill="#BDD0FB"/>
<path d="M560.565 212.582C558.068 205.568 556.517 198.338 556.79 190.671C557.475 171.358 570.49 154.887 580.426 139.252C589.558 124.879 597.547 102.869 571.944 102.19C551.547 101.649 525.634 119.286 520.693 140.016C514.845 164.552 523.629 197.206 506.876 218.281C483.437 247.764 469.718 238.983 464.061 292.33C461.644 315.124 472.937 329.035 486.665 337.494C508.333 350.846 536.017 349.312 556.069 333.639C573.783 319.795 585.706 298.454 584.854 275.671C583.993 252.66 568.038 233.589 560.562 212.582H560.565Z" fill="#BDD0FB"/>
<path d="M536.978 390.758C536.935 390.764 536.895 390.766 536.856 390.766C536.425 390.766 536.049 390.45 535.986 390.011C528.727 338.449 526.104 291.754 528.194 251.225C529.868 218.771 534.546 190.169 542.104 166.211C555.017 125.275 571.636 112.257 572.337 111.724C572.722 111.43 573.273 111.505 573.569 111.889C573.863 112.274 573.789 112.825 573.404 113.121C573.361 113.153 569.133 116.434 563.388 124.677C558.079 132.289 550.355 145.809 543.704 166.987C536.22 190.808 531.59 219.253 529.939 251.533C527.877 291.899 530.498 338.406 537.728 389.763C537.796 390.245 537.46 390.687 536.981 390.755L536.978 390.758Z" fill="#91B3FA"/>
<path d="M586.679 158.482C585.729 158.114 584.663 157.917 583.505 157.926C577.102 157.983 573.795 164.381 571.383 169.399C569.318 173.698 566.867 178.922 567.294 183.862C567.756 189.203 572.859 194.061 577.455 189.174C582.679 183.62 590.539 175.078 591.429 167.078C591.871 163.101 589.966 159.756 586.676 158.479L586.679 158.482Z" fill="#BDD0FB"/>
<path d="M622.822 309.496C627.218 292.72 623.095 272.489 621.915 254.133C621.291 244.428 621.536 234.886 624.085 225.446C626.619 216.057 632.202 206.207 629.071 196.253C622.768 176.204 602.026 182.825 589.145 196.051C574.196 211.398 567.696 238.375 560.46 258.915C556.098 271.297 550.173 283.842 547.211 296.615C542.301 317.776 545.571 333.174 554.763 344.316C563.579 355.002 578.348 358.589 591.095 353.163C602.608 348.262 615.731 336.561 622.822 309.499V309.496Z" fill="#91B3FA"/>
<path d="M569.173 390.767C568.711 390.767 568.323 390.405 568.298 389.94C568.281 389.661 566.73 361.501 570.422 323.929C573.832 289.234 582.536 239.169 604.655 197.697C604.883 197.269 605.413 197.107 605.844 197.335C606.271 197.563 606.434 198.096 606.206 198.524C584.23 239.733 575.568 289.542 572.175 324.069C568.494 361.512 570.04 389.561 570.054 389.841C570.082 390.325 569.712 390.742 569.227 390.767C569.21 390.767 569.193 390.767 569.176 390.767H569.173Z" fill="#7D97F4"/>
<path d="M257.116 289.058L247.933 371.438H354.498L340.616 289.058H257.116Z" fill="url(#paint2_linear_418_1443)"/>
<path d="M78.1035 121.995V310.661C78.1035 326.182 90.4716 338.872 105.987 339.274C174.898 341.051 415.913 345.359 481.511 344.392C492.784 344.227 501.919 335.203 502.244 323.933C503.51 280.103 505.563 174.706 497.962 125.776C496.359 115.472 487.663 107.765 477.24 107.432C419.502 105.584 164.01 99.7197 98.4432 101.191C87.1358 101.445 78.1064 110.682 78.1064 121.992L78.1035 121.995Z" fill="url(#paint3_linear_418_1443)"/>
<path d="M89.9443 121.077V300.323C89.9443 309.383 97.2174 316.768 106.278 316.905L472.074 321.424C481.058 321.558 488.419 314.33 488.453 305.346L489.066 127.7C489.089 121.277 483.971 116.014 477.551 115.857L103.042 108.29C95.8603 108.116 89.9414 113.89 89.9414 121.074L89.9443 121.077Z" fill="#7D97F4"/>
<path d="M491.208 328.848H491.197L89.9334 322.011C89.6113 322.005 89.3518 321.737 89.3575 321.415C89.3632 321.093 89.6284 320.839 89.9534 320.839L491.217 327.676C491.539 327.682 491.798 327.95 491.793 328.272C491.787 328.592 491.524 328.848 491.208 328.848Z" fill="#91B3FA"/>
<path d="M377.451 388.29H221.485C217.248 388.29 214.066 385.274 214.885 382.035L216.886 374.12C217.488 371.74 220.108 369.992 223.216 369.895L373.574 365.202C376.824 365.099 379.701 366.824 380.408 369.299L384.015 381.907C384.953 385.183 381.754 388.29 377.448 388.29H377.451Z" fill="url(#paint4_linear_418_1443)"/>
<path d="M305.444 372.116C305.125 372.116 304.862 371.859 304.859 371.54C304.854 371.217 305.113 370.949 305.435 370.947L311.879 370.853H311.887C312.207 370.853 312.469 371.109 312.472 371.428C312.478 371.751 312.218 372.019 311.896 372.024L305.453 372.118H305.444V372.116Z" fill="#91B3FA"/>
<path d="M220.659 384.005C220.627 384.005 220.596 384.005 220.564 383.997C220.245 383.945 220.028 383.646 220.08 383.327L220.998 377.57C221.497 374.44 224.16 372.133 227.33 372.088L295.668 371.09H295.677C295.996 371.09 296.258 371.346 296.261 371.666C296.267 371.988 296.007 372.256 295.685 372.259L227.347 373.257C224.747 373.294 222.563 375.187 222.153 377.753L221.234 383.509C221.189 383.797 220.941 384.002 220.656 384.002L220.659 384.005Z" fill="#91B3FA"/>
<path d="M375.962 273.801L120.094 267.572C115.697 267.463 112.19 263.871 112.19 259.472V132.701C112.19 128.227 115.817 124.601 120.293 124.601H372.53C376.918 124.601 380.507 128.093 380.627 132.481L384.259 265.482C384.385 270.118 380.601 273.915 375.962 273.801Z" fill="url(#paint5_linear_418_1443)"/>
<path d="M272.034 208.365C285.993 194.406 285.993 171.774 272.034 157.815C258.075 143.856 235.443 143.856 221.484 157.815C207.525 171.774 207.525 194.406 221.484 208.365C235.443 222.324 258.075 222.324 272.034 208.365Z" fill="url(#paint6_linear_418_1443)"/>
<path opacity="0.56" d="M273.847 201.084C273.739 201.084 273.628 201.053 273.531 200.99C273.26 200.816 273.18 200.451 273.354 200.181C275.19 197.332 276.544 194.227 277.382 190.954C277.462 190.641 277.779 190.45 278.095 190.532C278.409 190.612 278.597 190.932 278.517 191.245C277.648 194.638 276.242 197.86 274.34 200.814C274.229 200.987 274.041 201.082 273.847 201.082V201.084Z" fill="white"/>
<path opacity="0.56" d="M278.956 183.676C278.634 183.676 278.371 183.413 278.371 183.091C278.371 165.662 264.19 151.481 246.761 151.481C246.439 151.481 246.177 151.219 246.177 150.896C246.177 150.574 246.439 150.312 246.761 150.312C264.837 150.312 279.543 165.018 279.543 183.094C279.543 183.416 279.281 183.678 278.959 183.678L278.956 183.676Z" fill="white"/>
<path opacity="0.7" d="M235.226 201.763C234.223 201.763 233.396 200.964 233.367 199.952L232.518 168.242C232.489 167.196 232.997 166.23 233.869 165.656C234.744 165.083 235.831 165.004 236.78 165.448L268.102 180.1C269.137 180.582 269.796 181.591 269.827 182.735C269.856 183.875 269.251 184.918 268.242 185.454L240.592 200.195C239.685 200.676 238.559 200.334 238.077 199.428C237.593 198.521 237.938 197.395 238.844 196.913L265.214 182.854L236.264 169.314L237.082 199.853C237.111 200.879 236.301 201.734 235.275 201.76C235.258 201.76 235.241 201.76 235.223 201.76L235.226 201.763Z" fill="white"/>
<path d="M112.193 240.15V259.475C112.193 263.871 115.7 267.466 120.097 267.575L375.965 273.804C380.601 273.918 384.387 270.121 384.262 265.485L383.569 240.153H112.193V240.15Z" fill="url(#paint7_linear_418_1443)"/>
<path d="M119.807 254.348L120.041 256.68C120.255 258.819 122.054 260.444 124.201 260.444H350.173C352.483 260.444 354.356 258.571 354.356 256.264C354.356 253.972 352.511 252.107 350.219 252.084L124.013 249.752C121.521 249.727 119.562 251.871 119.81 254.351L119.807 254.348Z" fill="#7D97F4"/>
<path d="M264.424 257.767C264.159 255.594 263.837 253.396 263.523 251.187L124.01 249.75C121.518 249.724 119.557 251.868 119.808 254.349L120.042 256.681C120.255 258.819 122.054 260.444 124.201 260.444H264.812C264.663 259.506 264.524 258.605 264.421 257.767H264.424Z" fill="url(#paint8_linear_418_1443)"/>
<path d="M273.103 255.6C273.103 259.777 269.718 263.161 265.542 263.161C261.365 263.161 257.98 259.777 257.98 255.6C257.98 251.423 261.365 248.039 265.542 248.039C269.718 248.039 273.103 251.423 273.103 255.6Z" fill="url(#paint9_linear_418_1443)"/>
<path d="M364.067 250.081H359.554V260.342H364.067V250.081Z" fill="#7D97F4"/>
<path d="M376.38 247.208H371.867V260.343H376.38V247.208Z" fill="#7D97F4"/>
<path d="M370.226 244.746H366.12V260.341H370.226V244.746Z" fill="#7D97F4"/>
<path d="M112.093 283.689L112.304 305.386C112.335 308.491 114.876 310.983 117.978 310.951L375.962 308.451C379.067 308.42 381.559 305.879 381.527 302.777L381.385 288.068C381.356 285.023 378.907 282.557 375.862 282.503L117.809 278.015C114.645 277.961 112.062 280.527 112.09 283.689H112.093Z" fill="#91B3FA"/>
<path d="M315.653 286.144H120.758C120.364 286.144 120.045 286.463 120.045 286.857V290.481C120.045 290.874 120.364 291.193 120.758 291.193H315.653C316.047 291.193 316.366 290.874 316.366 290.481V286.857C316.366 286.463 316.047 286.144 315.653 286.144Z" fill="#BDD0FB"/>
<path d="M257.878 293.437H120.758C120.364 293.437 120.045 293.756 120.045 294.15V296.65C120.045 297.044 120.364 297.363 120.758 297.363H257.878C258.272 297.363 258.591 297.044 258.591 296.65V294.15C258.591 293.756 258.272 293.437 257.878 293.437Z" fill="#BDD0FB"/>
<path d="M194.55 300.728H120.704C120.34 300.728 120.045 301.022 120.045 301.386V302.874C120.045 303.238 120.34 303.533 120.704 303.533H194.55C194.913 303.533 195.208 303.238 195.208 302.874V301.386C195.208 301.022 194.913 300.728 194.55 300.728Z" fill="#BDD0FB"/>
<path d="M473.136 183.271L402.865 180.962C401.235 180.922 399.935 179.59 399.935 177.959V130.97C399.935 129.311 401.28 127.968 402.937 127.968H471.862C473.49 127.968 474.819 129.263 474.864 130.891L476.21 180.189C476.256 181.908 474.853 183.314 473.136 183.274V183.271Z" fill="#91B3FA"/>
<path d="M450.598 158.138C452.289 150.975 447.853 143.798 440.69 142.107C433.527 140.417 426.349 144.853 424.659 152.016C422.968 159.179 427.404 166.356 434.567 168.046C441.73 169.737 448.908 165.301 450.598 158.138Z" fill="url(#paint10_linear_418_1443)"/>
<path opacity="0.56" d="M447.745 161.859C447.693 161.859 447.639 161.845 447.594 161.813C447.462 161.731 447.425 161.557 447.511 161.426C448.192 160.371 448.694 159.219 449.005 158.004C449.045 157.853 449.196 157.762 449.347 157.802C449.498 157.839 449.586 157.993 449.549 158.144C449.224 159.416 448.697 160.622 447.984 161.731C447.93 161.813 447.842 161.859 447.748 161.859H447.745Z" fill="white"/>
<path opacity="0.7" d="M449.649 155.37C449.495 155.37 449.369 155.245 449.369 155.091C449.369 148.627 444.112 143.37 437.649 143.37C437.495 143.37 437.369 143.244 437.369 143.09C437.369 142.936 437.495 142.811 437.649 142.811C444.423 142.811 449.931 148.322 449.931 155.094C449.931 155.248 449.806 155.373 449.652 155.373L449.649 155.37Z" fill="white"/>
<path opacity="0.7" d="M433.346 162.052C432.972 162.052 432.664 161.753 432.653 161.376L432.336 149.556C432.325 149.165 432.516 148.806 432.841 148.592C433.166 148.378 433.571 148.35 433.925 148.515L445.603 153.978C445.987 154.157 446.236 154.534 446.247 154.959C446.258 155.383 446.033 155.771 445.657 155.974L435.35 161.468C435.011 161.647 434.592 161.519 434.412 161.183C434.232 160.846 434.361 160.424 434.697 160.245L444.528 155.004L433.736 149.958L434.041 161.342C434.053 161.724 433.751 162.044 433.369 162.055C433.363 162.055 433.357 162.055 433.349 162.055L433.346 162.052Z" fill="white"/>
<path d="M473.136 244.971L402.865 242.662C401.235 242.622 399.935 241.29 399.935 239.66V192.671C399.935 191.011 401.28 189.668 402.937 189.668H471.862C473.49 189.668 474.819 190.963 474.864 192.591L476.21 241.889C476.256 243.608 474.853 245.014 473.136 244.974V244.971Z" fill="#91B3FA"/>
<path d="M450.599 219.836C452.29 212.673 447.853 205.496 440.691 203.805C433.528 202.115 426.35 206.551 424.66 213.714C422.969 220.877 427.405 228.054 434.568 229.745C441.731 231.435 448.908 226.999 450.599 219.836Z" fill="url(#paint11_linear_418_1443)"/>
<path d="M447.745 223.559C447.693 223.559 447.639 223.545 447.594 223.514C447.462 223.431 447.425 223.257 447.511 223.126C448.192 222.071 448.694 220.919 449.005 219.704C449.045 219.553 449.196 219.462 449.347 219.502C449.498 219.539 449.586 219.693 449.549 219.844C449.224 221.116 448.697 222.322 447.984 223.431C447.93 223.514 447.842 223.559 447.748 223.559H447.745Z" fill="white"/>
<path d="M449.65 217.07C449.496 217.07 449.37 216.944 449.37 216.79C449.37 210.327 444.113 205.07 437.65 205.07C437.496 205.07 437.37 204.944 437.37 204.79C437.37 204.636 437.496 204.511 437.65 204.511C444.424 204.511 449.932 210.022 449.932 216.793C449.932 216.947 449.807 217.073 449.653 217.073L449.65 217.07Z" fill="white"/>
<path d="M433.346 223.753C432.972 223.753 432.664 223.454 432.653 223.078L432.336 211.257C432.325 210.866 432.516 210.507 432.841 210.293C433.166 210.079 433.571 210.051 433.925 210.216L445.603 215.679C445.987 215.859 446.236 216.235 446.247 216.66C446.258 217.085 446.033 217.472 445.657 217.675L435.35 223.169C435.011 223.348 434.592 223.22 434.412 222.884C434.232 222.547 434.361 222.125 434.697 221.946L444.528 216.705L433.736 211.659L434.041 223.043C434.053 223.425 433.751 223.745 433.369 223.756C433.363 223.756 433.357 223.756 433.349 223.756L433.346 223.753Z" fill="white"/>
<path d="M475.035 255.295H401.124C400.469 255.295 399.938 255.826 399.938 256.481V259.159C399.938 259.814 400.469 260.345 401.124 260.345H475.035C475.69 260.345 476.221 259.814 476.221 259.159V256.481C476.221 255.826 475.69 255.295 475.035 255.295Z" fill="#91B3FA"/>
<path d="M475.035 263.709H401.124C400.469 263.709 399.938 264.24 399.938 264.895V267.572C399.938 268.227 400.469 268.758 401.124 268.758H475.035C475.69 268.758 476.221 268.227 476.221 267.572V264.895C476.221 264.24 475.69 263.709 475.035 263.709Z" fill="#91B3FA"/>
<path d="M475.035 272.123H401.124C400.469 272.123 399.938 272.654 399.938 273.309V275.986C399.938 276.641 400.469 277.172 401.124 277.172H475.035C475.69 277.172 476.221 276.641 476.221 275.986V273.309C476.221 272.654 475.69 272.123 475.035 272.123Z" fill="#91B3FA"/>
<path d="M453.721 280.536H401.124C400.469 280.536 399.938 281.067 399.938 281.722V284.399C399.938 285.054 400.469 285.585 401.124 285.585H453.721C454.376 285.585 454.907 285.054 454.907 284.399V281.722C454.907 281.067 454.376 280.536 453.721 280.536Z" fill="#91B3FA"/>
<path d="M475.035 293.997H401.124C400.469 293.997 399.938 294.528 399.938 295.183V297.86C399.938 298.515 400.469 299.046 401.124 299.046H475.035C475.69 299.046 476.221 298.515 476.221 297.86V295.183C476.221 294.528 475.69 293.997 475.035 293.997Z" fill="#91B3FA"/>
<path d="M453.721 302.41H401.124C400.469 302.41 399.938 302.941 399.938 303.596V306.273C399.938 306.928 400.469 307.459 401.124 307.459H453.721C454.376 307.459 454.907 306.928 454.907 306.273V303.596C454.907 302.941 454.376 302.41 453.721 302.41Z" fill="#91B3FA"/>
<path d="M476.173 390.184C532.872 390.184 578.835 344.22 578.835 287.522C578.835 230.823 532.872 184.859 476.173 184.859C419.474 184.859 373.511 230.823 373.511 287.522C373.511 344.22 419.474 390.184 476.173 390.184Z" fill="url(#paint12_linear_418_1443)"/>
<path d="M569.359 312.726C569.31 312.726 569.259 312.72 569.21 312.706C568.897 312.623 568.711 312.304 568.794 311.99C570.887 304.047 571.947 295.816 571.947 287.522C571.947 287.2 572.21 286.938 572.532 286.938C572.854 286.938 573.116 287.2 573.116 287.522C573.116 295.916 572.041 304.246 569.923 312.287C569.855 312.549 569.618 312.723 569.356 312.723L569.359 312.726Z" fill="url(#paint13_linear_418_1443)"/>
<path d="M571.662 274.507C571.633 274.51 571.608 274.512 571.579 274.512C571.291 274.512 571.04 274.302 571 274.008C567.804 251.379 556.525 230.58 539.239 215.444C521.79 200.164 499.392 191.751 476.173 191.751C466.459 191.751 456.879 193.199 447.693 196.056C447.385 196.153 447.057 195.979 446.96 195.671C446.864 195.363 447.037 195.033 447.345 194.938C456.643 192.047 466.342 190.579 476.173 190.579C499.677 190.579 522.349 199.098 540.012 214.563C557.509 229.884 568.925 250.937 572.161 273.845C572.206 274.165 571.984 274.461 571.662 274.507Z" fill="url(#paint14_linear_418_1443)"/>
<path d="M476.173 263.721C491.757 263.721 504.391 251.088 504.391 235.504C504.391 219.92 491.757 207.287 476.173 207.287C460.589 207.287 447.956 219.92 447.956 235.504C447.956 251.088 460.589 263.721 476.173 263.721Z" fill="url(#paint15_linear_418_1443)"/>
<path d="M496.617 240.199C499.224 228.891 492.17 217.61 480.861 215.004C469.553 212.397 458.273 219.451 455.666 230.76C453.059 242.068 460.114 253.348 471.422 255.955C482.73 258.562 494.011 251.507 496.617 240.199Z" fill="url(#paint16_linear_418_1443)"/>
<path d="M476.173 368.572C491.757 368.572 504.391 355.939 504.391 340.355C504.391 324.771 491.757 312.138 476.173 312.138C460.589 312.138 447.956 324.771 447.956 340.355C447.956 355.939 460.589 368.572 476.173 368.572Z" fill="url(#paint17_linear_418_1443)"/>
<path d="M423.748 316.147C439.332 316.147 451.965 303.514 451.965 287.93C451.965 272.346 439.332 259.713 423.748 259.713C408.164 259.713 395.53 272.346 395.53 287.93C395.53 303.514 408.164 316.147 423.748 316.147Z" fill="url(#paint18_linear_418_1443)"/>
<path d="M476.173 361.368C487.778 361.368 497.185 351.961 497.185 340.356C497.185 328.751 487.778 319.343 476.173 319.343C464.568 319.343 455.16 328.751 455.16 340.356C455.16 351.961 464.568 361.368 476.173 361.368Z" fill="url(#paint19_linear_418_1443)"/>
<path d="M438.604 302.789C446.81 294.583 446.81 281.278 438.604 273.073C430.398 264.867 417.093 264.867 408.887 273.073C400.682 281.278 400.682 294.583 408.887 302.789C417.093 310.995 430.398 310.995 438.604 302.789Z" fill="url(#paint20_linear_418_1443)"/>
<path d="M548.549 307.884C559.569 296.865 559.569 278.999 548.549 267.979C537.53 256.959 519.664 256.959 508.644 267.979C497.625 278.999 497.625 296.865 508.644 307.884C519.664 318.904 537.53 318.904 548.549 307.884Z" fill="url(#paint21_linear_418_1443)"/>
<path d="M528.597 308.942C540.201 308.942 549.609 299.535 549.609 287.93C549.609 276.325 540.201 266.917 528.597 266.917C516.992 266.917 507.584 276.325 507.584 287.93C507.584 299.535 516.992 308.942 528.597 308.942Z" fill="url(#paint22_linear_418_1443)"/>
<path d="M478.525 299.531C483.83 299.531 488.131 295.231 488.131 289.926C488.131 284.621 483.83 280.32 478.525 280.32C473.22 280.32 468.92 284.621 468.92 289.926C468.92 295.231 473.22 299.531 478.525 299.531Z" fill="url(#paint23_linear_418_1443)"/>
<path d="M208.788 142.019C208.726 141.994 174.55 82.1436 169.931 76.5126C169.152 75.5661 167.952 75.0842 166.735 75.2268L157.195 76.3644L145.987 100.607L164.656 89.7332C162.809 102.509 186.792 121.497 195.018 128.425C195.853 129.13 195.921 130.387 195.166 131.177L191.881 134.615C197.273 140.081 203.494 143.588 210.516 145.213L208.786 142.019H208.788Z" fill="url(#paint24_linear_418_1443)"/>
<path d="M193.786 132.761C193.786 132.761 191.69 133.437 190.981 135.304C190.641 136.197 191.006 137.209 191.785 137.765C195.234 140.237 206.619 148.22 211.873 149.782C212.304 149.91 212.714 149.52 212.617 149.081C212.347 147.861 211.477 145.423 208.666 141.856L208.917 142.366C209.236 143.011 208.532 143.684 207.907 143.33C204.395 141.346 197.239 137.006 193.789 132.758L193.786 132.761Z" fill="url(#paint25_linear_418_1443)"/>
<path d="M195.477 156.707C195.42 156.67 190.291 144.317 190.234 144.279C185.532 115.654 174.063 91.1407 170.678 84.6915C170.108 83.6081 169.03 82.8897 167.807 82.787L158.236 81.9688L142.355 103.443L162.841 96.5749C158.447 108.712 178.091 132.162 184.743 140.61C185.418 141.468 185.23 142.714 184.332 143.336L180.42 146.039C184.594 152.482 189.977 157.178 196.523 160.186L195.474 156.707H195.477Z" fill="url(#paint26_linear_418_1443)"/>
<path d="M182.658 144.605C182.658 144.605 180.469 144.844 179.397 146.529C178.883 147.336 179.037 148.4 179.685 149.101C182.564 152.22 192.095 162.342 196.925 164.936C197.321 165.15 197.8 164.851 197.795 164.4C197.778 163.151 197.416 160.588 195.388 156.525L195.531 157.076C195.713 157.771 194.889 158.287 194.348 157.814C191.309 155.16 185.179 149.46 182.661 144.605H182.658Z" fill="url(#paint27_linear_418_1443)"/>
<path d="M113.434 77.447C113.434 77.447 104.775 90.3254 104.065 96.2015C103.355 102.078 106.46 104.108 115.524 104.857C142.495 107.087 155.79 99.0041 155.79 99.0041C157.634 87.2405 158.949 84.2469 174.356 77.8518C174.356 77.8518 154.866 79.4 150.946 77.8775C147.023 76.355 113.437 77.447 113.437 77.447H113.434Z" fill="url(#paint28_linear_418_1443)"/>
<path d="M147.963 5.29158C147.963 5.29158 141.933 -1.84471 135.521 6.911C134.36 8.49621 129.898 7.18756 128.265 10.5062C127.421 12.2197 125.596 13.192 123.717 12.847C119.038 11.9831 111.392 11.9118 107.614 19.242C104.732 24.8387 106.958 28.1146 109.838 29.9821C111.954 31.3534 112.709 34.139 111.429 36.3115C110.203 38.3956 109.972 41.2182 113.14 44.6139C120.242 52.2263 134.298 39.7841 134.298 39.7841L145.46 13.4086L147.96 5.29158H147.963Z" fill="url(#paint29_linear_418_1443)"/>
<path d="M136.848 75.7429C136.848 75.7429 146.932 66.1404 151.896 59.7825C154.579 56.3441 155.423 51.8194 154.18 47.6397C151.913 40.0044 147.888 32.0983 147.52 30.8667C146.958 28.9792 135.651 29.0591 135.651 29.0591C135.651 29.0591 113.404 43.497 104.662 67.9566L114.478 71.013C114.478 71.013 120.286 61.2679 126.028 55.0725C126.028 55.0725 116.098 68.1932 115.747 73.5647L136.851 75.7458L136.848 75.7429Z" fill="url(#paint30_linear_418_1443)"/>
<path d="M156.063 79.5315L148.487 71.289L139.737 73.644C139.737 73.644 129.536 75.2235 123.697 73.644L117.858 72.0645L104.663 67.9561L102.59 73.8122C102.063 75.3005 102.59 76.9513 103.879 77.8636C105.019 78.6762 106.359 79.5657 107.212 79.9392C108.948 80.7005 147.238 80.1787 147.238 80.1787L156.063 79.5315Z" fill="url(#paint31_linear_418_1443)"/>
<path d="M143.423 15.4644L135.825 29.5944C136.327 32.6793 144.096 32.7648 145.297 30.923C145.419 30.7349 145.488 30.5182 145.536 30.2986L150.081 20.8558C150.275 19.9349 147.751 16.8329 146.922 16.391L143.902 14.783C142.739 14.1643 147.592 14.1158 143.426 15.4615L143.423 15.4644Z" fill="url(#paint32_linear_418_1443)"/>
<path d="M158.801 12.15C158.801 12.15 159.659 16.9227 155.907 22.9927C152.155 29.0627 148.417 28.789 146.521 26.625C144.623 24.461 142.35 20.8544 143.385 14.8015C144.42 8.74862 157.51 6.06288 158.804 12.15H158.801Z" fill="url(#paint33_linear_418_1443)"/>
<path d="M147.925 15.4566C147.925 15.4566 154.001 7.47638 158.665 14.4331L158.585 16.8365C158.585 16.8365 164.652 16.5543 163.994 10.9633C163.335 5.37228 158.383 1.55181 151.517 3.46204C144.652 5.37228 140.64 7.54766 139.865 12.3147C139.089 17.0817 142.981 16.3034 142.981 16.3034C142.981 16.3034 144.467 13.0132 146.263 12.7908C148.059 12.5656 147.409 15.1686 147.409 15.1686L147.922 15.4595L147.925 15.4566Z" fill="url(#paint34_linear_418_1443)"/>
<path d="M146.531 15.2456C146.531 15.2456 149.679 11.1628 146.813 10.3132C143.948 9.46641 144.056 14.3161 144.242 16.118L146.531 15.2427V15.2456Z" fill="url(#paint35_linear_418_1443)"/>
<path d="M130.983 82.7959C131.008 82.7959 131.037 82.7959 131.062 82.7959L165.911 82.7589C166.772 82.7589 167.471 82.0604 167.471 81.1965C167.471 80.3354 166.77 79.6227 165.909 79.6369L131.06 79.674C130.199 79.674 129.5 80.3725 129.503 81.2364C129.503 82.0718 130.162 82.7532 130.986 82.7931L130.983 82.7959Z" fill="url(#paint36_linear_418_1443)"/>
<path d="M197.242 51.1548H168.218C166.077 51.1548 164.129 52.3893 163.214 54.328L149.797 82.7791H185.863C187.243 82.7791 188.483 81.9352 188.991 80.6522L199.395 54.3252C199.996 52.8056 198.876 51.1548 197.239 51.1548H197.242Z" fill="url(#paint37_linear_418_1443)"/>
<path d="M176.794 65.7409C176.164 67.6939 176.628 69.5927 177.832 69.9805C179.035 70.3682 180.517 69.0967 181.147 67.1437C181.778 65.1907 181.313 63.2918 180.11 62.9041C178.906 62.5163 177.424 63.7879 176.794 65.7409Z" fill="#7D97F4"/>
<path d="M326.025 370.539C330.017 372.512 334.014 374.12 336.705 375.137C335.055 372.38 331.157 366.251 327.183 362.747L324.092 361.167C324.092 361.167 322.302 362.33 320.28 365.906C320.52 366.792 321.654 368.38 326.025 370.539Z" fill="url(#paint38_linear_418_1443)"/>
<path d="M336.726 375.178C336.726 375.178 336.711 375.152 336.703 375.141C334.011 374.123 330.014 372.515 326.023 370.542C321.652 368.383 320.517 366.795 320.278 365.909C320.184 366.074 320.092 366.237 319.998 366.41C319.573 367.203 319.867 368.19 320.66 368.612C323.887 370.325 331.91 374.519 335.99 376.059C336.529 376.261 337.019 375.671 336.726 375.178Z" fill="url(#paint39_linear_418_1443)"/>
<path d="M325.333 356.643C325.781 356.822 324.161 358.841 323.842 361.381C323.771 361.954 323.976 362.519 324.5 362.758C324.843 362.912 325.25 363.083 325.678 363.231C326.319 363.454 327.029 363.192 327.36 362.596L330.456 356.999L325.333 356.643Z" fill="url(#paint40_linear_418_1443)"/>
<path d="M276.679 389.322C281.064 389.396 285.301 389.146 288.129 388.915C285.498 387.155 279.442 383.338 274.427 381.895L272.06 381.824C271.388 381.804 270.772 382.209 270.541 382.842C270.201 383.771 269.777 385.337 269.608 387.617C270.196 388.307 271.875 389.243 276.676 389.322H276.679Z" fill="url(#paint41_linear_418_1443)"/>
<path d="M288.165 388.94C288.165 388.94 288.14 388.923 288.128 388.917C285.303 389.145 281.066 389.396 276.678 389.325C271.877 389.245 270.195 388.31 269.611 387.62C269.596 387.805 269.582 387.99 269.573 388.184C269.528 389.068 270.206 389.824 271.09 389.866C274.685 390.032 283.598 390.385 287.88 390.034C288.445 389.989 288.633 389.256 288.163 388.94H288.165Z" fill="url(#paint42_linear_418_1443)"/>
<path d="M272.944 376.815C273.423 376.854 271.812 379.586 271.516 382.1C271.447 382.673 271.975 383.15 272.548 383.224C272.919 383.272 273.36 383.318 273.811 383.332C274.489 383.358 275.091 382.899 275.234 382.234L278.267 376.746L272.944 376.812V376.815Z" fill="url(#paint43_linear_418_1443)"/>
<path d="M271.612 378.488C274.249 371.278 292.702 321.443 302.598 311.12L314.244 314.182L315.85 312.602C315.85 312.602 343.859 324.326 346.813 327.876C349.236 330.789 330.122 360.68 330.122 360.68C330.122 360.68 326.752 361.544 324.004 358.59L331.394 337.05C331.696 336.167 331.223 335.206 330.336 334.912L308.887 327.756C308.052 327.476 307.14 327.807 306.678 328.557C300.924 337.92 281.112 370.442 277.157 380.729C277.046 381.02 276.75 381.197 276.442 381.145C275.535 380.994 273.642 380.618 272.185 379.888C271.663 379.629 271.412 379.027 271.615 378.48L271.612 378.488Z" fill="url(#paint44_linear_418_1443)"/>
<path d="M308.15 326.9C308.078 326.892 308.01 326.858 307.961 326.798C307.862 326.678 307.882 326.498 308.001 326.399L311.197 323.787C311.317 323.687 311.497 323.707 311.596 323.827C311.696 323.947 311.676 324.126 311.557 324.226L308.361 326.838C308.298 326.889 308.224 326.909 308.15 326.9Z" fill="url(#paint45_linear_418_1443)"/>
<path d="M338.516 269.519C335.613 266.132 332.777 264.761 327.61 264.071C323.81 263.563 320.152 265.724 318.692 269.268L301.323 311.41C305.323 314.963 311.336 316.194 318.857 315.687L340.956 288.151C342.425 285.793 343.326 283.13 343.591 280.365C344.027 275.786 341.923 273.493 338.519 269.522L338.516 269.519Z" fill="url(#paint46_linear_418_1443)"/>
<path d="M330.216 253.927C330.216 253.927 327.416 261.761 325.7 265.251C325.472 265.716 325.817 266.269 326.301 266.449C328.066 267.104 332.246 268.55 334.393 268.385C334.826 268.35 335.186 268.04 335.28 267.615L337.692 256.781L330.216 253.924V253.927Z" fill="url(#paint47_linear_418_1443)"/>
<path d="M339.913 246.078C339.913 246.078 341.826 252.282 341.652 255.407C341.478 258.532 341.92 260.621 338.259 260.844C334.598 261.066 331.773 258.939 330.481 255.663C330.481 255.663 328.448 250.608 329.241 248.721C330.036 246.834 339.913 246.075 339.913 246.075V246.078Z" fill="url(#paint48_linear_418_1443)"/>
<path d="M331.955 253.579L332.409 253.63C332.409 253.63 330.969 249.585 332.688 249.094C334.407 248.604 341.064 248.005 342.73 245.852C344.332 243.777 343.448 240.766 341.732 239.76C341.623 239.697 341.484 239.734 341.412 239.839L341.23 240.105C341.104 240.287 340.822 240.224 340.785 240.008C340.751 239.802 340.486 239.728 340.355 239.891C339.847 240.532 338.558 241.527 335.371 241.753C330.849 242.075 327.718 243.54 327.305 246.594C327.279 246.788 327.06 246.87 326.906 246.751C326.601 246.514 326.088 246.363 325.324 246.873C323.992 247.76 324.195 250.468 326.615 252.952C326.729 253.069 326.706 253.268 326.561 253.342C326.042 253.602 325.238 254.272 326.994 255.478C328.79 256.712 329.934 256.729 330.373 256.667C330.49 256.65 330.581 256.555 330.587 256.436L330.724 253.704C330.729 253.562 330.855 253.456 330.997 253.473L331.964 253.582L331.955 253.579Z" fill="url(#paint49_linear_418_1443)"/>
<path d="M332.003 254.158C332.003 254.158 331.444 250.269 329.631 251.138C327.818 252.008 330.036 255.472 331.381 255.766L332.003 254.158Z" fill="url(#paint50_linear_418_1443)"/>
<path d="M378.016 252.219C377.465 252.083 372.556 264.414 372.556 264.414L373.69 267.818C373.69 267.818 377.189 267.861 377.408 264.975C377.639 261.893 380.285 252.787 378.016 252.219Z" fill="url(#paint51_linear_418_1443)"/>
<path d="M372.567 264.414C363.095 272.702 347.292 273.001 337.23 271.995C336.737 274.073 336.024 277.865 336.264 281.7C361.895 283.377 373.69 267.815 373.69 267.815C373.69 264.919 372.567 264.411 372.567 264.411V264.414Z" fill="url(#paint52_linear_418_1443)"/>
<path d="M337.233 271.998C333.63 271.639 330.744 271.145 329.182 270.721C316.389 267.251 316.389 279.166 323.197 282.002C325.775 283.077 333.977 282.57 336.267 281.703C336.027 277.865 336.74 274.076 337.233 271.998Z" fill="url(#paint53_linear_418_1443)"/>
<path d="M376.051 232.162L374.622 231.766C374.457 231.72 374.36 231.549 374.406 231.384C374.451 231.218 374.622 231.121 374.788 231.167C374.788 231.167 374.791 231.167 374.794 231.167L374.811 231.173L376.199 231.592H376.213C376.367 231.643 376.456 231.806 376.41 231.96C376.365 232.111 376.205 232.199 376.051 232.156V232.162Z" fill="#BDD0FB"/>
<path d="M371.825 230.765L369.137 229.496C368.948 229.408 368.869 229.183 368.957 228.994C369.045 228.806 369.271 228.726 369.459 228.815C369.459 228.815 369.462 228.815 369.464 228.818L369.499 228.835L372.096 230.135L372.124 230.149C372.293 230.235 372.364 230.44 372.278 230.611C372.196 230.779 371.993 230.848 371.825 230.768V230.765Z" fill="#BDD0FB"/>
<path d="M366.578 227.973L364.169 226.223C363.975 226.08 363.933 225.809 364.072 225.616C364.215 225.422 364.486 225.379 364.68 225.519C364.68 225.519 364.68 225.519 364.682 225.521L364.714 225.544L367.032 227.292L367.06 227.315C367.24 227.452 367.277 227.708 367.14 227.888C367.006 228.067 366.752 228.105 366.573 227.973H366.578Z" fill="#BDD0FB"/>
<path d="M361.921 224.273L359.839 222.143C359.651 221.952 359.654 221.644 359.848 221.456C360.039 221.268 360.347 221.271 360.535 221.464C360.535 221.464 360.535 221.464 360.538 221.467L360.566 221.496L362.559 223.606L362.585 223.634C362.759 223.819 362.75 224.11 362.565 224.284C362.382 224.458 362.094 224.45 361.921 224.27V224.273Z" fill="#BDD0FB"/>
<path d="M357.932 219.857L356.201 217.431C356.03 217.188 356.084 216.855 356.327 216.684C356.569 216.512 356.902 216.567 357.074 216.809C357.074 216.809 357.074 216.812 357.076 216.815L357.099 216.849L358.744 219.241L358.767 219.272C358.927 219.506 358.867 219.823 358.636 219.982C358.405 220.139 358.091 220.085 357.932 219.857Z" fill="#BDD0FB"/>
<path d="M354.649 214.884L353.284 212.236C353.135 211.948 353.25 211.594 353.538 211.446C353.825 211.298 354.179 211.412 354.327 211.7C354.327 211.7 354.327 211.702 354.33 211.705L354.35 211.745L355.633 214.345L355.65 214.382C355.787 214.662 355.673 214.998 355.396 215.135C355.123 215.272 354.789 215.161 354.649 214.89V214.884Z" fill="#BDD0FB"/>
<path d="M352.107 209.493L351.12 206.676C351.003 206.342 351.18 205.98 351.511 205.863C351.844 205.746 352.206 205.923 352.323 206.254C352.323 206.254 352.323 206.26 352.323 206.262L352.337 206.308L353.247 209.059L353.261 209.099C353.367 209.421 353.193 209.766 352.871 209.872C352.554 209.977 352.212 209.806 352.101 209.493H352.107Z" fill="#BDD0FB"/>
<path d="M350.34 203.794L349.764 200.863C349.692 200.498 349.929 200.147 350.294 200.076C350.659 200.005 351.01 200.242 351.081 200.606V200.612L351.092 200.658L351.62 203.503L351.628 203.549C351.694 203.905 351.46 204.247 351.104 204.313C350.75 204.378 350.411 204.148 350.34 203.794Z" fill="#BDD0FB"/>
<path d="M349.401 197.895L349.256 194.904C349.236 194.516 349.535 194.188 349.923 194.168C350.311 194.148 350.639 194.448 350.659 194.836V194.844V194.895L350.767 197.784V197.835C350.784 198.214 350.487 198.533 350.108 198.548C349.732 198.562 349.415 198.271 349.396 197.895H349.401Z" fill="#BDD0FB"/>
<path d="M349.333 191.918L349.604 188.945C349.641 188.54 349.998 188.243 350.402 188.28C350.807 188.318 351.104 188.674 351.067 189.079V189.087L351.061 189.133L350.767 192.013L350.762 192.058C350.722 192.452 350.368 192.74 349.975 192.7C349.584 192.66 349.296 192.312 349.333 191.921V191.918Z" fill="#BDD0FB"/>
<path d="M350.061 185.994L350.694 183.078C350.782 182.664 351.19 182.402 351.603 182.493C352.016 182.582 352.279 182.989 352.188 183.403V183.411L352.176 183.454L351.532 186.277L351.52 186.319C351.429 186.721 351.027 186.975 350.622 186.884C350.22 186.793 349.969 186.396 350.058 185.994H350.061Z" fill="#BDD0FB"/>
<path d="M351.497 180.201L352.46 177.378C352.603 176.962 353.053 176.739 353.47 176.882C353.886 177.025 354.108 177.475 353.966 177.891V177.9L353.949 177.94L352.985 180.671L352.971 180.711C352.828 181.116 352.381 181.33 351.976 181.187C351.571 181.045 351.36 180.603 351.497 180.201Z" fill="#BDD0FB"/>
<path d="M353.573 174.61L354.827 171.904C355.018 171.491 355.511 171.308 355.925 171.502C356.338 171.693 356.521 172.186 356.327 172.6V172.608L356.304 172.645L355.058 175.262L355.041 175.3C354.847 175.704 354.365 175.875 353.96 175.684C353.558 175.493 353.387 175.014 353.573 174.612V174.61Z" fill="#BDD0FB"/>
<path d="M356.212 169.267L357.72 166.695C357.96 166.287 358.485 166.15 358.895 166.39C359.303 166.629 359.44 167.154 359.2 167.565L359.195 167.573L359.175 167.607L357.681 170.094L357.661 170.128C357.421 170.527 356.902 170.655 356.506 170.416C356.11 170.179 355.981 169.666 356.212 169.267Z" fill="#BDD0FB"/>
<path d="M359.34 164.197L361.071 161.774C361.356 161.375 361.909 161.284 362.308 161.569C362.708 161.854 362.799 162.407 362.514 162.806L362.508 162.812L362.485 162.843L360.775 165.19L360.752 165.221C360.467 165.612 359.922 165.697 359.531 165.412C359.144 165.13 359.058 164.588 359.335 164.197H359.34Z" fill="#BDD0FB"/>
<path d="M362.91 159.431L364.843 157.167C365.165 156.791 365.732 156.745 366.108 157.067C366.485 157.39 366.53 157.957 366.208 158.333L366.185 158.362L364.292 160.566L364.269 160.594C363.947 160.968 363.386 161.01 363.009 160.688C362.633 160.366 362.59 159.804 362.912 159.431H362.91Z" fill="#BDD0FB"/>
<path d="M366.863 154.981L368.968 152.876C369.321 152.523 369.897 152.523 370.251 152.876C370.604 153.23 370.604 153.806 370.251 154.162L370.225 154.188L368.164 156.235L368.138 156.261C367.784 156.611 367.211 156.611 366.861 156.255C366.51 155.899 366.51 155.331 366.861 154.981H366.863Z" fill="#BDD0FB"/>
<path d="M371.152 150.854C371.893 150.193 372.655 149.557 373.413 148.915C373.801 148.588 374.38 148.639 374.707 149.027C375.035 149.414 374.984 149.993 374.596 150.321L374.582 150.335C373.838 150.957 373.094 151.578 372.367 152.22C371.988 152.553 371.412 152.519 371.078 152.14C370.744 151.761 370.776 151.188 371.155 150.851L371.152 150.854Z" fill="#BDD0FB"/>
<path d="M375.743 147.063L378.135 145.298C378.548 144.993 379.13 145.082 379.435 145.495C379.74 145.908 379.651 146.49 379.238 146.795L379.212 146.818L376.866 148.534L376.84 148.554C376.43 148.856 375.851 148.765 375.549 148.355C375.246 147.944 375.335 147.368 375.745 147.066L375.743 147.063Z" fill="#BDD0FB"/>
<path d="M380.589 143.621L383.101 142.033C383.54 141.756 384.119 141.885 384.395 142.324C384.672 142.763 384.543 143.342 384.104 143.618L384.076 143.638L381.615 145.183L381.587 145.2C381.15 145.474 380.575 145.343 380.298 144.907C380.024 144.471 380.153 143.895 380.589 143.621Z" fill="#BDD0FB"/>
<path d="M385.665 140.531L388.279 139.122C388.741 138.874 389.317 139.045 389.565 139.507C389.813 139.969 389.642 140.545 389.18 140.793H389.177L389.149 140.81L386.586 142.179L386.557 142.193C386.098 142.438 385.525 142.264 385.28 141.805C385.035 141.346 385.206 140.776 385.665 140.528V140.531Z" fill="#BDD0FB"/>
<path d="M390.939 137.802L393.645 136.573C394.127 136.354 394.697 136.567 394.916 137.049C395.136 137.531 394.922 138.101 394.44 138.321H394.438L394.409 138.335L391.757 139.527L391.729 139.541C391.247 139.758 390.683 139.541 390.466 139.062C390.249 138.58 390.46 138.019 390.942 137.802H390.939Z" fill="#BDD0FB"/>
<path d="M396.39 135.436L399.173 134.39C399.675 134.202 400.233 134.455 400.422 134.957C400.61 135.459 400.356 136.018 399.854 136.206H399.851L399.82 136.217L397.094 137.229L397.063 137.241C396.564 137.426 396.008 137.172 395.823 136.673C395.637 136.175 395.888 135.621 396.387 135.433L396.39 135.436Z" fill="#BDD0FB"/>
<path d="M401.989 133.437L404.837 132.576C405.356 132.42 405.904 132.713 406.058 133.232C406.214 133.751 405.921 134.298 405.402 134.452H405.399L405.368 134.464L402.579 135.296L402.548 135.305C402.032 135.459 401.49 135.165 401.336 134.649C401.182 134.133 401.473 133.591 401.989 133.437Z" fill="#BDD0FB"/>
<path d="M407.712 131.812L410.612 131.139C411.145 131.017 411.678 131.347 411.801 131.881C411.923 132.414 411.593 132.947 411.059 133.069H411.057L411.025 133.078L408.188 133.725L408.157 133.734C407.627 133.854 407.099 133.523 406.977 132.993C406.854 132.462 407.185 131.935 407.715 131.815L407.712 131.812Z" fill="#BDD0FB"/>
<path d="M413.525 130.563L416.459 130.087C417.001 129.999 417.514 130.367 417.6 130.911C417.685 131.456 417.32 131.966 416.776 132.052L416.744 132.057L413.873 132.522L413.842 132.528C413.3 132.616 412.787 132.248 412.699 131.704C412.61 131.162 412.978 130.649 413.523 130.561L413.525 130.563Z" fill="#BDD0FB"/>
<path d="M419.41 129.711L422.369 129.432C422.914 129.38 423.396 129.78 423.447 130.324C423.498 130.869 423.099 131.35 422.555 131.402H422.523L419.629 131.684H419.598C419.054 131.741 418.569 131.342 418.515 130.795C418.461 130.25 418.86 129.765 419.407 129.711H419.41Z" fill="#BDD0FB"/>
<path d="M425.34 129.249L428.314 129.163C428.856 129.149 429.309 129.574 429.326 130.119C429.343 130.66 428.916 131.114 428.371 131.131H428.34L425.432 131.222H425.4C424.856 131.239 424.402 130.811 424.385 130.267C424.368 129.722 424.796 129.269 425.34 129.252V129.249Z" fill="#BDD0FB"/>
<path d="M431.288 129.175L434.259 129.286C434.798 129.306 435.22 129.759 435.197 130.298C435.177 130.837 434.724 131.259 434.185 131.236H434.153L431.248 131.131H431.217C430.675 131.111 430.253 130.657 430.273 130.116C430.293 129.574 430.746 129.152 431.288 129.172V129.175Z" fill="#BDD0FB"/>
<path d="M437.226 129.5L440.183 129.813C440.716 129.87 441.104 130.346 441.047 130.88C440.99 131.413 440.514 131.801 439.981 131.743H439.949L437.058 131.441H437.024C436.488 131.381 436.1 130.905 436.154 130.369C436.209 129.833 436.688 129.446 437.224 129.5H437.226Z" fill="#BDD0FB"/>
<path d="M443.128 130.223L446.056 130.74C446.581 130.831 446.931 131.333 446.84 131.857C446.749 132.382 446.247 132.732 445.723 132.641L445.691 132.636L442.829 132.139L442.795 132.134C442.267 132.042 441.916 131.541 442.008 131.013C442.099 130.486 442.601 130.135 443.128 130.226V130.223Z" fill="#BDD0FB"/>
<path d="M448.961 131.355L451.847 132.074C452.36 132.202 452.674 132.721 452.545 133.237C452.417 133.75 451.898 134.064 451.382 133.936L451.351 133.927L448.531 133.229L448.497 133.22C447.981 133.092 447.667 132.57 447.795 132.057C447.924 131.541 448.445 131.227 448.959 131.355H448.961Z" fill="#BDD0FB"/>
<path d="M454.704 132.898L457.529 133.825C458.028 133.987 458.302 134.526 458.137 135.025C457.971 135.524 457.435 135.798 456.936 135.633L456.905 135.621L454.142 134.723L454.108 134.712C453.606 134.549 453.333 134.01 453.495 133.508C453.658 133.007 454.196 132.733 454.698 132.895L454.704 132.898Z" fill="#BDD0FB"/>
<path d="M460.32 134.852L463.069 135.961C463.554 136.157 463.787 136.708 463.593 137.192C463.397 137.677 462.846 137.911 462.362 137.717L462.342 137.708L459.636 136.622L459.613 136.613C459.126 136.417 458.889 135.867 459.086 135.379C459.283 134.891 459.833 134.655 460.32 134.852Z" fill="#BDD0FB"/>
<path d="M465.789 137.13L468.483 138.333C468.957 138.544 469.171 139.1 468.96 139.576C468.749 140.052 468.193 140.263 467.716 140.052H467.711L465.031 138.86L465.022 138.855C464.546 138.644 464.332 138.085 464.543 137.609C464.754 137.132 465.313 136.919 465.789 137.13Z" fill="#BDD0FB"/>
<path d="M471.163 139.547L473.838 140.759H473.843C474.314 140.973 474.522 141.529 474.308 141.999C474.094 142.47 473.544 142.678 473.073 142.467L470.388 141.258C469.914 141.044 469.706 140.491 469.917 140.018C470.128 139.544 470.684 139.336 471.157 139.547H471.163Z" fill="#BDD0FB"/>
<path d="M476.515 141.948L479.203 143.091L479.22 143.099C479.694 143.299 479.913 143.844 479.711 144.317C479.511 144.79 478.967 145.01 478.496 144.81L475.77 143.658C475.297 143.459 475.075 142.911 475.274 142.438C475.474 141.965 476.021 141.742 476.495 141.942L476.509 141.95L476.515 141.948Z" fill="#BDD0FB"/>
<path d="M481.915 144.166L484.649 145.152L484.681 145.163C485.16 145.337 485.408 145.865 485.234 146.344C485.06 146.823 484.535 147.071 484.056 146.9L481.256 145.896C480.775 145.722 480.527 145.195 480.698 144.713C480.872 144.231 481.399 143.983 481.881 144.154L481.912 144.166H481.915Z" fill="#BDD0FB"/>
<path d="M487.414 146.028L490.211 146.76L490.259 146.775C490.749 146.903 491.04 147.405 490.912 147.892C490.784 148.383 490.285 148.673 489.797 148.545L486.903 147.792C486.413 147.664 486.116 147.162 486.245 146.672C486.373 146.182 486.875 145.885 487.365 146.013L487.414 146.028Z" fill="#BDD0FB"/>
<path d="M493.037 147.325L495.889 147.69L495.957 147.698C496.456 147.761 496.807 148.217 496.744 148.716C496.681 149.215 496.225 149.566 495.729 149.503L492.744 149.127C492.245 149.064 491.888 148.608 491.954 148.106C492.02 147.604 492.473 147.251 492.975 147.316L493.04 147.325H493.037Z" fill="#BDD0FB"/>
<path d="M498.747 147.832L501.607 147.733H501.686C502.185 147.713 502.605 148.103 502.622 148.599C502.639 149.098 502.251 149.517 501.752 149.535L498.736 149.646C498.237 149.666 497.815 149.275 497.798 148.773C497.778 148.274 498.168 147.852 498.67 147.835H498.75L498.747 147.832Z" fill="#BDD0FB"/>
<path d="M504.435 147.37L507.212 146.723L507.3 146.703C507.782 146.592 508.264 146.891 508.378 147.373C508.489 147.855 508.193 148.337 507.711 148.451L504.76 149.143C504.275 149.257 503.791 148.958 503.677 148.473C503.563 147.989 503.862 147.504 504.347 147.39L504.435 147.37Z" fill="#BDD0FB"/>
<path d="M509.913 145.805L512.519 144.63L512.593 144.596C513.04 144.394 513.568 144.596 513.77 145.044C513.973 145.491 513.773 146.019 513.326 146.221L510.571 147.47C510.121 147.673 509.591 147.476 509.388 147.025C509.186 146.575 509.382 146.045 509.833 145.842L509.91 145.808L509.913 145.805Z" fill="#BDD0FB"/>
<path d="M515.008 143.222L517.368 141.6L517.431 141.557C517.833 141.281 518.381 141.383 518.657 141.785C518.934 142.187 518.834 142.735 518.432 143.011L515.951 144.731C515.549 145.01 514.996 144.91 514.717 144.505C514.438 144.1 514.537 143.55 514.942 143.271L515.005 143.225L515.008 143.222Z" fill="#BDD0FB"/>
<path d="M519.585 139.783L521.647 137.788L521.698 137.739C522.04 137.408 522.588 137.417 522.918 137.759C523.249 138.101 523.24 138.646 522.901 138.976L520.749 141.083C520.404 141.42 519.851 141.414 519.514 141.069C519.178 140.724 519.183 140.171 519.528 139.835H519.531L519.582 139.78L519.585 139.783Z" fill="#BDD0FB"/>
<path d="M523.543 135.633L525.263 133.329L525.302 133.275C525.582 132.901 526.112 132.824 526.486 133.104C526.859 133.383 526.936 133.908 526.66 134.284L524.875 136.707C524.595 137.087 524.059 137.169 523.68 136.89C523.301 136.61 523.218 136.074 523.498 135.695V135.69L523.54 135.635L523.543 135.633Z" fill="#BDD0FB"/>
<path d="M526.788 130.897L528.114 128.348L528.145 128.288C528.356 127.883 528.855 127.727 529.26 127.938C529.665 128.149 529.821 128.645 529.613 129.049L528.242 131.727C528.031 132.137 527.526 132.3 527.116 132.089C526.705 131.878 526.543 131.373 526.754 130.963V130.957L526.788 130.897Z" fill="#BDD0FB"/>
<path d="M529.229 125.7L530.113 122.968L530.136 122.903C530.273 122.478 530.729 122.244 531.154 122.384C531.576 122.521 531.81 122.974 531.676 123.399L530.766 126.267C530.629 126.697 530.17 126.937 529.74 126.8C529.309 126.663 529.07 126.204 529.206 125.774V125.768L529.229 125.702V125.7Z" fill="#BDD0FB"/>
<path d="M530.756 120.174L530.959 118.754C531.019 118.28 531.11 117.81 531.147 117.331C531.178 116.895 531.557 116.567 531.994 116.601C532.427 116.632 532.755 117.012 532.723 117.445V117.471C532.686 117.97 532.595 118.466 532.535 118.965L532.33 120.459C532.27 120.898 531.868 121.203 531.429 121.143C530.99 121.083 530.685 120.681 530.745 120.242V120.236L530.753 120.174H530.756Z" fill="#BDD0FB"/>
<path d="M531.284 114.46L531.184 111.587V111.524C531.167 111.099 531.501 110.74 531.928 110.726C532.353 110.711 532.71 111.042 532.727 111.467L532.849 114.466C532.866 114.897 532.533 115.262 532.099 115.279C531.666 115.296 531.304 114.962 531.287 114.529V114.523V114.458L531.284 114.46Z" fill="#BDD0FB"/>
<path d="M530.854 108.729L530.295 105.904L530.284 105.847C530.204 105.439 530.469 105.043 530.877 104.96C531.284 104.88 531.678 105.143 531.761 105.55L532.359 108.49C532.445 108.903 532.177 109.305 531.763 109.391C531.35 109.476 530.948 109.208 530.862 108.795V108.789L530.851 108.729H530.854Z" fill="#BDD0FB"/>
<path d="M529.52 103.127L528.531 100.419L528.511 100.365C528.371 99.9827 528.568 99.5607 528.95 99.421C529.329 99.2813 529.751 99.478 529.891 99.8544L530.937 102.666C531.08 103.05 530.886 103.481 530.498 103.624C530.113 103.766 529.683 103.572 529.54 103.184V103.179L529.52 103.125V103.127Z" fill="#BDD0FB"/>
<path d="M527.335 97.7894L525.938 95.2634L525.91 95.2149C525.719 94.8671 525.844 94.4309 526.192 94.2398C526.537 94.0488 526.97 94.1743 527.164 94.5164L528.629 97.1308C528.826 97.4815 528.701 97.9234 528.35 98.1202C527.999 98.3169 527.557 98.1914 527.361 97.8408L527.332 97.7866L527.335 97.7894Z" fill="#BDD0FB"/>
<path d="M524.351 92.857L522.577 90.5847L522.543 90.5391C522.306 90.234 522.36 89.7949 522.663 89.5583C522.965 89.3217 523.404 89.3758 523.641 89.6752L525.5 92.0245C525.742 92.3324 525.691 92.7772 525.383 93.0195C525.075 93.2619 524.63 93.2106 524.388 92.9026L524.353 92.8542L524.351 92.857Z" fill="#BDD0FB"/>
<path d="M520.624 88.4665L519.569 87.4857C519.216 87.1607 518.874 86.8214 518.5 86.5192C518.209 86.2797 518.167 85.8521 518.406 85.5612C518.643 85.2704 519.07 85.2277 519.361 85.4643L519.375 85.4757C519.763 85.7893 520.122 86.14 520.493 86.4736L521.596 87.4886C521.876 87.7452 521.896 88.1843 521.636 88.4637C521.377 88.7431 520.941 88.763 520.661 88.5036H520.658L520.621 88.4665H520.624Z" fill="#BDD0FB"/>
<path d="M516.219 84.7548L513.798 83.1867L513.752 83.1581C513.445 82.9586 513.359 82.548 513.556 82.2429C513.752 81.9379 514.16 81.8495 514.468 82.0462L516.991 83.6571C517.305 83.8567 517.396 84.2729 517.197 84.5837C516.997 84.8973 516.581 84.9886 516.27 84.789H516.267L516.222 84.7576L516.219 84.7548Z" fill="#BDD0FB"/>
<path d="M511.255 81.818L508.612 80.6548L508.567 80.6348C508.242 80.4923 508.093 80.1131 508.236 79.788C508.378 79.463 508.755 79.3176 509.08 79.4573L511.825 80.6462C512.156 80.7888 512.31 81.1737 512.165 81.5044C512.022 81.8351 511.637 81.9891 511.306 81.8437H511.304L511.258 81.8209L511.255 81.818Z" fill="#BDD0FB"/>
<path d="M505.883 79.6906L503.086 78.9408L503.041 78.9294C502.716 78.841 502.522 78.5074 502.61 78.1824C502.696 77.8602 503.029 77.6664 503.352 77.749L506.248 78.4903C506.585 78.5759 506.787 78.918 506.702 79.2544C506.616 79.5909 506.274 79.7933 505.937 79.7077C505.937 79.7077 505.937 79.7077 505.935 79.7077L505.883 79.6935V79.6906Z" fill="#BDD0FB"/>
<path d="M500.241 78.4107L497.361 78.1L497.315 78.0943C496.999 78.06 496.768 77.7749 496.802 77.4585C496.836 77.142 497.119 76.9139 497.432 76.9453L500.406 77.2304C500.734 77.2617 500.973 77.5525 500.942 77.8804C500.911 78.2083 500.62 78.4478 500.292 78.4164C500.292 78.4164 500.292 78.4164 500.289 78.4164L500.241 78.4107Z" fill="#BDD0FB"/>
<path d="M494.467 78.0176L491.576 78.1658H491.534C491.231 78.1829 490.978 77.952 490.961 77.6526C490.946 77.3533 491.174 77.0995 491.471 77.0796L494.45 76.8942C494.761 76.8743 495.026 77.1109 495.046 77.4188C495.066 77.7268 494.83 77.9948 494.522 78.0147C494.522 78.0147 494.522 78.0147 494.519 78.0147H494.47L494.467 78.0176Z" fill="#BDD0FB"/>
<path d="M488.709 78.5477L487.292 78.8471L486.582 78.9982C486.345 79.0438 486.111 79.1151 485.878 79.1692L485.858 79.1749C485.581 79.2405 485.305 79.0723 485.239 78.7957C485.173 78.522 485.339 78.2483 485.612 78.1771C485.852 78.1172 486.091 78.0402 486.334 77.9917L487.061 77.8292L488.518 77.5042C488.803 77.4415 489.085 77.6211 489.151 77.9062C489.216 78.1913 489.034 78.4736 488.749 78.5391H488.743L488.709 78.5477Z" fill="#BDD0FB"/>
<path d="M483.087 79.9963L480.31 80.9315H480.304C480.053 81.0199 479.779 80.883 479.694 80.6321C479.608 80.3812 479.742 80.1104 479.99 80.0248L482.776 79.0498C483.035 78.9585 483.318 79.0954 483.409 79.3548C483.5 79.6143 483.363 79.8965 483.104 79.9878L483.089 79.9935L483.087 79.9963Z" fill="#BDD0FB"/>
<path d="M477.521 81.8867L474.693 82.762C474.456 82.8361 474.205 82.7021 474.134 82.4655C474.063 82.2317 474.191 81.9808 474.425 81.9067L474.448 81.8981L477.227 81.0029L477.244 80.9972C477.49 80.9174 477.749 81.0514 477.829 81.2966C477.909 81.5418 477.775 81.8012 477.53 81.881C477.53 81.881 477.527 81.881 477.524 81.881L477.521 81.8867Z" fill="#BDD0FB"/>
<path d="M471.796 83.4578C470.818 83.646 469.829 83.7857 468.834 83.857C468.606 83.8741 468.406 83.7001 468.389 83.4721C468.372 83.244 468.543 83.0472 468.768 83.0273C469.726 82.9475 470.681 82.802 471.625 82.6082C471.859 82.5597 472.087 82.7108 472.135 82.9446C472.184 83.1784 472.033 83.4065 471.799 83.4549C471.799 83.4549 471.796 83.4549 471.793 83.4549L471.796 83.4578Z" fill="#BDD0FB"/>
<path d="M465.823 83.8391C464.814 83.7279 463.824 83.4912 462.875 83.1548C462.675 83.0835 462.573 82.8668 462.641 82.6673C462.713 82.4705 462.929 82.365 463.126 82.4335C464.027 82.7414 464.962 82.9552 465.903 83.0465C466.122 83.0693 466.282 83.2631 466.262 83.4827C466.239 83.7022 466.046 83.8619 465.826 83.8419C465.826 83.8419 465.823 83.8419 465.82 83.8419L465.823 83.8391Z" fill="#BDD0FB"/>
<path d="M460.155 81.8548C459.297 81.3302 458.49 80.7201 457.76 80.0273C457.621 79.8933 457.615 79.6738 457.746 79.5312C457.877 79.3915 458.097 79.3858 458.239 79.5169C458.938 80.167 459.71 80.7372 460.531 81.2276C460.705 81.3302 460.762 81.5555 460.66 81.7294C460.557 81.9033 460.332 81.9603 460.158 81.8577H460.155V81.8548Z" fill="#BDD0FB"/>
<path d="M455.838 77.6986C455.302 76.8404 454.886 75.8967 454.661 74.8988C454.621 74.7278 454.729 74.5567 454.9 74.5196C455.071 74.4826 455.239 74.5881 455.279 74.7563C455.496 75.6715 455.889 76.5439 456.403 77.3422C456.502 77.4962 456.457 77.7043 456.3 77.8041C456.146 77.9039 455.938 77.8583 455.838 77.7014C455.838 77.7014 455.838 77.7014 455.838 77.6986Z" fill="#BDD0FB"/>
<path d="M454.621 71.8309C454.723 71.3319 454.88 70.8444 455.08 70.3796C455.145 70.2314 455.316 70.163 455.464 70.2285C455.613 70.2913 455.681 70.4623 455.618 70.6106C455.436 71.044 455.299 71.4916 455.211 71.9506C455.179 72.1131 455.023 72.2215 454.857 72.1901C454.695 72.1587 454.586 72.0019 454.618 71.8366V71.8337L454.621 71.8309Z" fill="#BDD0FB"/>
<path d="M455.193 58.0688L450.383 70.1489L444.271 61.6954L455.193 58.0688Z" fill="#7D97F4"/>
<path d="M403.642 29.498L424.862 71.104C425.27 71.8995 425.983 72.4982 426.838 72.7576C427.693 73.0171 428.617 72.9173 429.398 72.4811L470.369 49.601C470.839 49.3387 471.101 48.8198 471.033 48.2867C470.967 47.7535 470.582 47.3145 470.064 47.1748L403.642 29.4951V29.498Z" fill="#91B3FA"/>
<path d="M455.189 58.0689L403.642 29.498L448.589 61.7839L447.397 65.1881L455.189 58.0689Z" fill="#7D97F4"/>
<path d="M444.658 63.9529L450.383 70.1483L448.59 61.7832L444.658 63.9529Z" fill="#7D97F4"/>
<defs>
<linearGradient id="paint0_linear_418_1443" x1="0.00296633" y1="195.756" x2="616.341" y2="195.756" gradientUnits="userSpaceOnUse">
<stop stop-color="#DAE3FE"/>
<stop offset="1" stop-color="#E9EFFD"/>
</linearGradient>
<linearGradient id="paint1_linear_418_1443" x1="97.428" y1="196.187" x2="200.772" y2="196.187" gradientUnits="userSpaceOnUse">
<stop stop-color="#DAE3FE"/>
<stop offset="1" stop-color="#E9EFFD"/>
</linearGradient>
<linearGradient id="paint2_linear_418_1443" x1="303.332" y1="413.372" x2="297.801" y2="303.87" gradientUnits="userSpaceOnUse">
<stop stop-color="#09005D"/>
<stop offset="1" stop-color="#1A0F91"/>
</linearGradient>
<linearGradient id="paint3_linear_418_1443" x1="370.757" y1="46.6693" x2="282.65" y2="239.138" gradientUnits="userSpaceOnUse">
<stop stop-color="#09005D"/>
<stop offset="1" stop-color="#1A0F91"/>
</linearGradient>
<linearGradient id="paint4_linear_418_1443" x1="328.732" y1="259.036" x2="310.767" y2="335.166" gradientUnits="userSpaceOnUse">
<stop stop-color="#09005D"/>
<stop offset="1" stop-color="#1A0F91"/>
</linearGradient>
<linearGradient id="paint5_linear_418_1443" x1="377.642" y1="125.313" x2="124.439" y2="269.878" gradientUnits="userSpaceOnUse">
<stop stop-color="#4042E2"/>
<stop offset="1" stop-color="#4F52FF"/>
</linearGradient>
<linearGradient id="paint6_linear_418_1443" x1="211.016" y1="183.089" x2="282.507" y2="183.089" gradientUnits="userSpaceOnUse">
<stop stop-color="#FE7062"/>
<stop offset="1" stop-color="#FF928E"/>
</linearGradient>
<linearGradient id="paint7_linear_418_1443" x1="247.988" y1="264.857" x2="250.557" y2="136.547" gradientUnits="userSpaceOnUse">
<stop stop-color="#4042E2"/>
<stop offset="1" stop-color="#4F52FF"/>
</linearGradient>
<linearGradient id="paint8_linear_418_1443" x1="192.3" y1="133.773" x2="192.3" y2="193.652" gradientUnits="userSpaceOnUse">
<stop stop-color="#E1473D"/>
<stop offset="1" stop-color="#E9605A"/>
</linearGradient>
<linearGradient id="paint9_linear_418_1443" x1="257.98" y1="255.6" x2="273.103" y2="255.6" gradientUnits="userSpaceOnUse">
<stop stop-color="#E1473D"/>
<stop offset="1" stop-color="#E9605A"/>
</linearGradient>
<linearGradient id="paint10_linear_418_1443" x1="451.201" y1="136.482" x2="410.675" y2="192.027" gradientUnits="userSpaceOnUse">
<stop stop-color="#FE7062"/>
<stop offset="1" stop-color="#FF928E"/>
</linearGradient>
<linearGradient id="paint11_linear_418_1443" x1="451.199" y1="198.181" x2="410.674" y2="253.726" gradientUnits="userSpaceOnUse">
<stop stop-color="#53D8FF"/>
<stop offset="1" stop-color="#3840F7"/>
</linearGradient>
<linearGradient id="paint12_linear_418_1443" x1="382.386" y1="418.823" x2="784.311" y2="-143.872" gradientUnits="userSpaceOnUse">
<stop stop-color="#FE7062"/>
<stop offset="1" stop-color="#FF928E"/>
</linearGradient>
<linearGradient id="paint13_linear_418_1443" x1="605.924" y1="103.98" x2="596.8" y2="155.3" gradientUnits="userSpaceOnUse">
<stop stop-color="#FF928E"/>
<stop offset="1" stop-color="#FEB3B1"/>
</linearGradient>
<linearGradient id="paint14_linear_418_1443" x1="535.031" y1="91.3752" x2="525.907" y2="142.695" gradientUnits="userSpaceOnUse">
<stop stop-color="#FF928E"/>
<stop offset="1" stop-color="#FEB3B1"/>
</linearGradient>
<linearGradient id="paint15_linear_418_1443" x1="498.301" y1="143.676" x2="486.896" y2="191.004" gradientUnits="userSpaceOnUse">
<stop stop-color="#E1473D"/>
<stop offset="1" stop-color="#E9605A"/>
</linearGradient>
<linearGradient id="paint16_linear_418_1443" x1="540.475" y1="132.806" x2="424.721" y2="317.554" gradientUnits="userSpaceOnUse">
<stop stop-color="#FF928E"/>
<stop offset="1" stop-color="#FEB3B1"/>
</linearGradient>
<linearGradient id="paint17_linear_418_1443" x1="496.536" y1="212.349" x2="492.544" y2="237.439" gradientUnits="userSpaceOnUse">
<stop stop-color="#E1473D"/>
<stop offset="1" stop-color="#E9605A"/>
</linearGradient>
<linearGradient id="paint18_linear_418_1443" x1="439.953" y1="210.141" x2="431.4" y2="251.197" gradientUnits="userSpaceOnUse">
<stop stop-color="#E1473D"/>
<stop offset="1" stop-color="#E9605A"/>
</linearGradient>
<linearGradient id="paint19_linear_418_1443" x1="587.696" y1="162.353" x2="471.942" y2="347.104" gradientUnits="userSpaceOnUse">
<stop stop-color="#FF928E"/>
<stop offset="1" stop-color="#FEB3B1"/>
</linearGradient>
<linearGradient id="paint20_linear_418_1443" x1="526.462" y1="123.988" x2="410.708" y2="308.739" gradientUnits="userSpaceOnUse">
<stop stop-color="#FF928E"/>
<stop offset="1" stop-color="#FEB3B1"/>
</linearGradient>
<linearGradient id="paint21_linear_418_1443" x1="552.577" y1="206.003" x2="545.734" y2="229.382" gradientUnits="userSpaceOnUse">
<stop stop-color="#E1473D"/>
<stop offset="1" stop-color="#E9605A"/>
</linearGradient>
<linearGradient id="paint22_linear_418_1443" x1="601.759" y1="171.163" x2="486.004" y2="355.914" gradientUnits="userSpaceOnUse">
<stop stop-color="#FF928E"/>
<stop offset="1" stop-color="#FEB3B1"/>
</linearGradient>
<linearGradient id="paint23_linear_418_1443" x1="468.917" y1="289.926" x2="488.131" y2="289.926" gradientUnits="userSpaceOnUse">
<stop stop-color="#E1473D"/>
<stop offset="1" stop-color="#E9605A"/>
</linearGradient>
<linearGradient id="paint24_linear_418_1443" x1="206.046" y1="72.7321" x2="160.998" y2="149.997" gradientUnits="userSpaceOnUse">
<stop stop-color="#FF928E"/>
<stop offset="1" stop-color="#FEB3B1"/>
</linearGradient>
<linearGradient id="paint25_linear_418_1443" x1="209.111" y1="97.8381" x2="204.834" y2="123.783" gradientUnits="userSpaceOnUse">
<stop stop-color="#09005D"/>
<stop offset="1" stop-color="#1A0F91"/>
</linearGradient>
<linearGradient id="paint26_linear_418_1443" x1="188.746" y1="59.1942" x2="182.758" y2="81.7179" gradientUnits="userSpaceOnUse">
<stop stop-color="#FF928E"/>
<stop offset="1" stop-color="#FEB3B1"/>
</linearGradient>
<linearGradient id="paint27_linear_418_1443" x1="200.138" y1="105.787" x2="194.151" y2="131.444" gradientUnits="userSpaceOnUse">
<stop stop-color="#09005D"/>
<stop offset="1" stop-color="#1A0F91"/>
</linearGradient>
<linearGradient id="paint28_linear_418_1443" x1="-1044.31" y1="413.206" x2="-1085.75" y2="424.611" gradientUnits="userSpaceOnUse">
<stop stop-color="#4042E2"/>
<stop offset="1" stop-color="#4F52FF"/>
</linearGradient>
<linearGradient id="paint29_linear_418_1443" x1="157.092" y1="-12.4475" x2="133.664" y2="14.5941" gradientUnits="userSpaceOnUse">
<stop stop-color="#09005D"/>
<stop offset="1" stop-color="#1A0F91"/>
</linearGradient>
<linearGradient id="paint30_linear_418_1443" x1="155.412" y1="33.1504" x2="28.3953" y2="155.673" gradientUnits="userSpaceOnUse">
<stop stop-color="#FE7062"/>
<stop offset="1" stop-color="#FF928E"/>
</linearGradient>
<linearGradient id="paint31_linear_418_1443" x1="143.084" y1="50.3534" x2="134.246" y2="66.6046" gradientUnits="userSpaceOnUse">
<stop stop-color="#FF928E"/>
<stop offset="1" stop-color="#FEB3B1"/>
</linearGradient>
<linearGradient id="paint32_linear_418_1443" x1="148.37" y1="14.6433" x2="128.7" y2="53.9884" gradientUnits="userSpaceOnUse">
<stop stop-color="#FF928E"/>
<stop offset="1" stop-color="#FEB3B1"/>
</linearGradient>
<linearGradient id="paint33_linear_418_1443" x1="735.234" y1="-306.851" x2="710.256" y2="-292.962" gradientUnits="userSpaceOnUse">
<stop stop-color="#FF928E"/>
<stop offset="1" stop-color="#FEB3B1"/>
</linearGradient>
<linearGradient id="paint34_linear_418_1443" x1="171.835" y1="6.81121" x2="139.129" y2="13.3721" gradientUnits="userSpaceOnUse">
<stop stop-color="#09005D"/>
<stop offset="1" stop-color="#1A0F91"/>
</linearGradient>
<linearGradient id="paint35_linear_418_1443" x1="731.862" y1="-312.915" x2="706.883" y2="-299.026" gradientUnits="userSpaceOnUse">
<stop stop-color="#FF928E"/>
<stop offset="1" stop-color="#FEB3B1"/>
</linearGradient>
<linearGradient id="paint36_linear_418_1443" x1="149.729" y1="50.1851" x2="149.349" y2="59.6878" gradientUnits="userSpaceOnUse">
<stop stop-color="#09005D"/>
<stop offset="1" stop-color="#1A0F91"/>
</linearGradient>
<linearGradient id="paint37_linear_418_1443" x1="186.282" y1="86.5198" x2="167.083" y2="55.5369" gradientUnits="userSpaceOnUse">
<stop stop-color="#09005D"/>
<stop offset="1" stop-color="#1A0F91"/>
</linearGradient>
<linearGradient id="paint38_linear_418_1443" x1="321.021" y1="363.893" x2="338.519" y2="371.556" gradientUnits="userSpaceOnUse">
<stop stop-color="#4042E2"/>
<stop offset="1" stop-color="#4F52FF"/>
</linearGradient>
<linearGradient id="paint39_linear_418_1443" x1="150.848" y1="813.957" x2="174.296" y2="755.439" gradientUnits="userSpaceOnUse">
<stop stop-color="#4042E2"/>
<stop offset="1" stop-color="#4F52FF"/>
</linearGradient>
<linearGradient id="paint40_linear_418_1443" x1="324.519" y1="358.331" x2="328.948" y2="360.271" gradientUnits="userSpaceOnUse">
<stop stop-color="#FF928E"/>
<stop offset="1" stop-color="#FEB3B1"/>
</linearGradient>
<linearGradient id="paint41_linear_418_1443" x1="269.368" y1="385.677" x2="288.18" y2="385.125" gradientUnits="userSpaceOnUse">
<stop stop-color="#4042E2"/>
<stop offset="1" stop-color="#4F52FF"/>
</linearGradient>
<linearGradient id="paint42_linear_418_1443" x1="269.417" y1="233.897" x2="265.575" y2="170.974" gradientUnits="userSpaceOnUse">
<stop stop-color="#4042E2"/>
<stop offset="1" stop-color="#4F52FF"/>
</linearGradient>
<linearGradient id="paint43_linear_418_1443" x1="271.772" y1="379.551" x2="277.812" y2="380.259" gradientUnits="userSpaceOnUse">
<stop stop-color="#FF928E"/>
<stop offset="1" stop-color="#FEB3B1"/>
</linearGradient>
<linearGradient id="paint44_linear_418_1443" x1="278.2" y1="313.519" x2="335.911" y2="388.142" gradientUnits="userSpaceOnUse">
<stop stop-color="#4042E2"/>
<stop offset="1" stop-color="#4F52FF"/>
</linearGradient>
<linearGradient id="paint45_linear_418_1443" x1="306.926" y1="239.695" x2="308.637" y2="291.014" gradientUnits="userSpaceOnUse">
<stop stop-color="#09005D"/>
<stop offset="1" stop-color="#1A0F91"/>
</linearGradient>
<linearGradient id="paint46_linear_418_1443" x1="360.083" y1="260.781" x2="257.458" y2="337.636" gradientUnits="userSpaceOnUse">
<stop stop-color="#FE7062"/>
<stop offset="1" stop-color="#FF928E"/>
</linearGradient>
<linearGradient id="paint47_linear_418_1443" x1="334.878" y1="252.242" x2="326.324" y2="279.897" gradientUnits="userSpaceOnUse">
<stop stop-color="#FF928E"/>
<stop offset="1" stop-color="#FEB3B1"/>
</linearGradient>
<linearGradient id="paint48_linear_418_1443" x1="309.416" y1="-413.664" x2="310.155" y2="-394.646" gradientUnits="userSpaceOnUse">
<stop stop-color="#FF928E"/>
<stop offset="1" stop-color="#FEB3B1"/>
</linearGradient>
<linearGradient id="paint49_linear_418_1443" x1="330.462" y1="241.272" x2="341.87" y2="259.929" gradientUnits="userSpaceOnUse">
<stop stop-color="#09005D"/>
<stop offset="1" stop-color="#1A0F91"/>
</linearGradient>
<linearGradient id="paint50_linear_418_1443" x1="304.505" y1="-413.473" x2="305.244" y2="-394.455" gradientUnits="userSpaceOnUse">
<stop stop-color="#FF928E"/>
<stop offset="1" stop-color="#FEB3B1"/>
</linearGradient>
<linearGradient id="paint51_linear_418_1443" x1="387.016" y1="243.869" x2="375.327" y2="262.686" gradientUnits="userSpaceOnUse">
<stop stop-color="#FF928E"/>
<stop offset="1" stop-color="#FEB3B1"/>
</linearGradient>
<linearGradient id="paint52_linear_418_1443" x1="375.92" y1="236.975" x2="364.23" y2="255.792" gradientUnits="userSpaceOnUse">
<stop stop-color="#FF928E"/>
<stop offset="1" stop-color="#FEB3B1"/>
</linearGradient>
<linearGradient id="paint53_linear_418_1443" x1="365.855" y1="205.602" x2="356.162" y2="223.849" gradientUnits="userSpaceOnUse">
<stop stop-color="#FE7062"/>
<stop offset="1" stop-color="#FF928E"/>
</linearGradient>
</defs>
</svg>
