<svg width="40" height="40" viewBox="0 0 40 40" fill="none" xmlns="http://www.w3.org/2000/svg">
<g clip-path="url(#clip0_26_1507)">
<path d="M20 20C21.9778 20 23.9112 19.4135 25.5557 18.3147C27.2002 17.2159 28.4819 15.6541 29.2388 13.8268C29.9957 11.9996 30.1937 9.98891 29.8079 8.0491C29.422 6.10929 28.4696 4.32746 27.0711 2.92894C25.6725 1.53041 23.8907 0.578004 21.9509 0.192152C20.0111 -0.193701 18.0004 0.00433286 16.1732 0.761209C14.3459 1.51809 12.7841 2.79981 11.6853 4.4443C10.5865 6.08879 10 8.02219 10 10C10.0026 12.6514 11.0571 15.1934 12.9319 17.0681C14.8066 18.9429 17.3486 19.9974 20 20ZM20 3.33334C21.3185 3.33334 22.6075 3.72433 23.7038 4.45687C24.8001 5.18942 25.6546 6.23061 26.1592 7.44878C26.6638 8.66696 26.7958 10.0074 26.5386 11.3006C26.2813 12.5938 25.6464 13.7817 24.714 14.7141C23.7817 15.6464 22.5938 16.2813 21.3006 16.5386C20.0074 16.7958 18.667 16.6638 17.4488 16.1592C16.2306 15.6546 15.1894 14.8001 14.4569 13.7038C13.7243 12.6075 13.3333 11.3185 13.3333 10C13.3333 8.23189 14.0357 6.5362 15.286 5.28596C16.5362 4.03572 18.2319 3.33334 20 3.33334Z" fill="#4285F4"/>
<path d="M20 23.333C16.0231 23.3374 12.2104 24.9192 9.39827 27.7313C6.58618 30.5434 5.00441 34.3561 5 38.333C5 38.775 5.17559 39.199 5.48816 39.5115C5.80072 39.8241 6.22464 39.9997 6.66667 39.9997C7.10869 39.9997 7.53262 39.8241 7.84518 39.5115C8.15774 39.199 8.33333 38.775 8.33333 38.333C8.33333 35.2388 9.5625 32.2714 11.7504 30.0834C13.9383 27.8955 16.9058 26.6663 20 26.6663C23.0942 26.6663 26.0617 27.8955 28.2496 30.0834C30.4375 32.2714 31.6667 35.2388 31.6667 38.333C31.6667 38.775 31.8423 39.199 32.1548 39.5115C32.4674 39.8241 32.8913 39.9997 33.3333 39.9997C33.7754 39.9997 34.1993 39.8241 34.5118 39.5115C34.8244 39.199 35 38.775 35 38.333C34.9956 34.3561 33.4138 30.5434 30.6017 27.7313C27.7896 24.9192 23.9769 23.3374 20 23.333Z" fill="#4285F4"/>
</g>
<defs>
<clipPath id="clip0_26_1507">
<rect width="40" height="40" fill="white"/>
</clipPath>
</defs>
</svg>
