<svg width="40" height="40" viewBox="0 0 40 40" fill="none" xmlns="http://www.w3.org/2000/svg">
<g clip-path="url(#clip0_26_1515)">
<path d="M31.6667 0H8.33333C6.12401 0.00264643 4.00593 0.88147 2.4437 2.4437C0.88147 4.00593 0.00264643 6.12401 0 8.33333L0 31.6667C0.00264643 33.876 0.88147 35.9941 2.4437 37.5563C4.00593 39.1185 6.12401 39.9974 8.33333 40H31.6667C33.876 39.9974 35.9941 39.1185 37.5563 37.5563C39.1185 35.9941 39.9974 33.876 40 31.6667V8.33333C39.9974 6.12401 39.1185 4.00593 37.5563 2.4437C35.9941 0.88147 33.876 0.00264643 31.6667 0ZM36.6667 31.6667C36.6667 32.9927 36.1399 34.2645 35.2022 35.2022C34.2645 36.1399 32.9927 36.6667 31.6667 36.6667H8.33333C7.00725 36.6667 5.73548 36.1399 4.7978 35.2022C3.86012 34.2645 3.33333 32.9927 3.33333 31.6667V8.33333C3.33333 7.00725 3.86012 5.73548 4.7978 4.7978C5.73548 3.86012 7.00725 3.33333 8.33333 3.33333H31.6667C32.9927 3.33333 34.2645 3.86012 35.2022 4.7978C36.1399 5.73548 36.6667 7.00725 36.6667 8.33333V31.6667Z" fill="#4285F4"/>
<path d="M15.555 26.532L9.02335 20.0003C8.71081 19.6879 8.28696 19.5124 7.84502 19.5124C7.40308 19.5124 6.97923 19.6879 6.66669 20.0003C6.35424 20.3129 6.17871 20.7367 6.17871 21.1787C6.17871 21.6206 6.35424 22.0445 6.66669 22.357L13.1984 28.8887C13.5079 29.1983 13.8754 29.444 14.2799 29.6116C14.6844 29.7792 15.118 29.8655 15.5559 29.8655C15.9937 29.8655 16.4273 29.7792 16.8318 29.6116C17.2363 29.444 17.6038 29.1983 17.9134 28.8887L33.3334 13.4687C33.6458 13.1561 33.8213 12.7323 33.8213 12.2903C33.8213 11.8484 33.6458 11.4245 33.3334 11.112C33.0208 10.7995 32.597 10.624 32.155 10.624C31.7131 10.624 31.2892 10.7995 30.9767 11.112L15.555 26.532Z" fill="#4285F4"/>
</g>
<defs>
<clipPath id="clip0_26_1515">
<rect width="40" height="40" fill="white"/>
</clipPath>
</defs>
</svg>
