<svg width="40" height="40" viewBox="0 0 40 40" fill="none" xmlns="http://www.w3.org/2000/svg">
<path d="M20.4437 9.58398C14.9397 9.58398 10.4633 14.0599 10.4612 19.5616C10.4604 21.447 10.988 23.2832 11.9868 24.8719L12.2241 25.2494L11.2161 28.9315L14.9927 27.9409L15.357 28.1571C16.8891 29.0662 18.6452 29.5473 20.4357 29.548H20.4397C25.9397 29.548 30.4159 25.0716 30.4181 19.5695C30.4191 16.9033 29.3822 14.3963 27.4983 12.5102C25.6144 10.6242 23.1089 9.5848 20.4437 9.58398ZM26.313 23.8518C26.0631 24.5524 24.8646 25.1919 24.2883 25.278C23.7714 25.3553 23.1175 25.3875 22.3989 25.1592C21.9632 25.021 21.4045 24.8363 20.6888 24.5273C17.6796 23.2279 15.7143 20.1981 15.5643 19.9978C15.4144 19.7977 14.3394 18.3713 14.3394 16.8947C14.3394 15.4183 15.1144 14.6925 15.3894 14.3921C15.6642 14.0919 15.9893 14.0168 16.1893 14.0168C16.3892 14.0168 16.5894 14.0187 16.7641 14.0274C16.9483 14.0367 17.1956 13.9574 17.4392 14.5423C17.6891 15.143 18.289 16.6196 18.364 16.7697C18.4391 16.9198 18.489 17.095 18.3891 17.2952C18.2891 17.4953 18.2391 17.6205 18.0891 17.7956C17.9392 17.9708 17.774 18.1867 17.6391 18.3211C17.489 18.4708 17.3326 18.6331 17.5076 18.9333C17.6826 19.2338 18.2846 20.216 19.1764 21.0115C20.3221 22.0334 21.2887 22.3501 21.5887 22.5003C21.8887 22.6506 22.0637 22.6253 22.2386 22.4253C22.4137 22.2251 22.9886 21.5493 23.1885 21.249C23.3885 20.9488 23.5885 20.9989 23.8634 21.0989C24.1383 21.1992 25.6132 21.9247 25.9132 22.0748C26.2131 22.225 26.4131 22.3001 26.4881 22.4253C26.563 22.5503 26.563 23.1509 26.313 23.8518Z" fill="#373C45"/>
<path d="M20.0008 0C8.955 0 0 8.95338 0 19.9992C0 31.045 8.955 40 20.0008 40C31.0458 40 40.0008 31.045 40.0008 19.9992C40.0008 8.95338 31.0458 0 20.0008 0ZM20.4397 31.5757C20.4393 31.5757 20.44 31.5757 20.4397 31.5757H20.4348C18.4255 31.575 16.4511 31.0708 14.6977 30.1144L8.33341 31.7839L10.0366 25.5628C8.98603 23.7421 8.43324 21.6769 8.43413 19.5609C8.43673 12.9417 13.8224 7.55637 20.4397 7.55637C23.6512 7.55767 26.6655 8.80791 28.9321 11.0772C31.1987 13.3463 32.4464 16.3626 32.4452 19.5705C32.4423 26.1898 27.0563 31.5757 20.4397 31.5757Z" fill="#373C45"/>
</svg>
