<svg width="69" height="48" viewBox="0 0 69 48" fill="none" xmlns="http://www.w3.org/2000/svg">
<g clip-path="url(#clip0_1489_4096)">
<path d="M26.0572 16.457H6.85717C5.0392 16.4592 3.29632 17.1824 2.01082 18.4679C0.725326 19.7534 0.00217764 21.4962 0 23.3142L0 39.7714C0.00217764 41.5894 0.725326 43.3322 2.01082 44.6177C3.29632 45.9032 5.0392 46.6264 6.85717 46.6286H26.0572C27.8752 46.6264 29.6181 45.9032 30.9036 44.6177C32.1891 43.3322 32.9122 41.5894 32.9144 39.7714V23.3142C32.9122 21.4962 32.1891 19.7534 30.9036 18.4679C29.6181 17.1824 27.8752 16.4592 26.0572 16.457ZM6.85717 19.1999H26.0572C27.1484 19.1999 28.1949 19.6334 28.9665 20.4049C29.7381 21.1765 30.1715 22.223 30.1715 23.3142V24.6856H2.74287V23.3142C2.74287 22.223 3.17634 21.1765 3.94792 20.4049C4.7195 19.6334 5.76599 19.1999 6.85717 19.1999ZM26.0572 43.8857H6.85717C5.76599 43.8857 4.7195 43.4522 3.94792 42.6806C3.17634 41.9091 2.74287 40.8626 2.74287 39.7714V27.4285H30.1715V39.7714C30.1715 40.8626 29.7381 41.9091 28.9665 42.6806C28.1949 43.4522 27.1484 43.8857 26.0572 43.8857ZM26.0572 32.9142C26.0572 33.278 25.9127 33.6268 25.6556 33.884C25.3984 34.1412 25.0495 34.2857 24.6858 34.2857H8.2286C7.86487 34.2857 7.51604 34.1412 7.25885 33.884C7.00166 33.6268 6.85717 33.278 6.85717 32.9142C6.85717 32.5505 7.00166 32.2017 7.25885 31.9445C7.51604 31.6873 7.86487 31.5428 8.2286 31.5428H24.6858C25.0495 31.5428 25.3984 31.6873 25.6556 31.9445C25.9127 32.2017 26.0572 32.5505 26.0572 32.9142ZM20.5715 38.4C20.5715 38.7637 20.427 39.1125 20.1698 39.3697C19.9126 39.6269 19.5638 39.7714 19.2001 39.7714H8.2286C7.86487 39.7714 7.51604 39.6269 7.25885 39.3697C7.00166 39.1125 6.85717 38.7637 6.85717 38.4C6.85717 38.0362 7.00166 37.6874 7.25885 37.4302C7.51604 37.173 7.86487 37.0285 8.2286 37.0285H19.2001C19.5638 37.0285 19.9126 37.173 20.1698 37.4302C20.427 37.6874 20.5715 38.0362 20.5715 38.4ZM4.1143 21.9428C4.1143 21.6715 4.19473 21.4064 4.34543 21.1808C4.49612 20.9553 4.71031 20.7795 4.96091 20.6757C5.21151 20.5719 5.48725 20.5448 5.75329 20.5977C6.01932 20.6506 6.26368 20.7812 6.45548 20.973C6.64728 21.1648 6.7779 21.4092 6.83082 21.6752C6.88373 21.9412 6.85657 22.217 6.75277 22.4676C6.64897 22.7182 6.47319 22.9324 6.24766 23.0831C6.02213 23.2338 5.75698 23.3142 5.48573 23.3142C5.12201 23.3142 4.77318 23.1697 4.51598 22.9125C4.25879 22.6553 4.1143 22.3065 4.1143 21.9428ZM8.2286 21.9428C8.2286 21.6715 8.30903 21.4064 8.45973 21.1808C8.61042 20.9553 8.82461 20.7795 9.07521 20.6757C9.32581 20.5719 9.60155 20.5448 9.86759 20.5977C10.1336 20.6506 10.378 20.7812 10.5698 20.973C10.7616 21.1648 10.8922 21.4092 10.9451 21.6752C10.998 21.9412 10.9709 22.217 10.8671 22.4676C10.7633 22.7182 10.5875 22.9324 10.362 23.0831C10.1364 23.2338 9.87128 23.3142 9.60003 23.3142C9.23631 23.3142 8.88748 23.1697 8.63028 22.9125C8.37309 22.6553 8.2286 22.3065 8.2286 21.9428ZM12.3429 21.9428C12.3429 21.6715 12.4233 21.4064 12.574 21.1808C12.7247 20.9553 12.9389 20.7795 13.1895 20.6757C13.4401 20.5719 13.7159 20.5448 13.9819 20.5977C14.2479 20.6506 14.4923 20.7812 14.6841 20.973C14.8759 21.1648 15.0065 21.4092 15.0594 21.6752C15.1123 21.9412 15.0852 22.217 14.9814 22.4676C14.8776 22.7182 14.7018 22.9324 14.4763 23.0831C14.2507 23.2338 13.9856 23.3142 13.7143 23.3142C13.3506 23.3142 13.0018 23.1697 12.7446 22.9125C12.4874 22.6553 12.3429 22.3065 12.3429 21.9428Z" fill="#0A76E5"/>
</g>
<g clip-path="url(#clip1_1489_4096)">
<path d="M61.7135 1.37109H42.5134C40.6955 1.37327 38.9526 2.09642 37.6671 3.38192C36.3816 4.66741 35.6584 6.4103 35.6562 8.22826V24.6855C35.6584 26.5034 36.3816 28.2463 37.6671 29.5318C38.9526 30.8173 40.6955 31.5405 42.5134 31.5426H61.7135C63.5315 31.5405 65.2743 30.8173 66.5598 29.5318C67.8453 28.2463 68.5685 26.5034 68.5707 24.6855V8.22826C68.5685 6.4103 67.8453 4.66741 66.5598 3.38192C65.2743 2.09642 63.5315 1.37327 61.7135 1.37109ZM42.5134 4.11396H61.7135C62.8047 4.11396 63.8512 4.54743 64.6227 5.31901C65.3943 6.09059 65.8278 7.13708 65.8278 8.22826V9.59969H38.3991V8.22826C38.3991 7.13708 38.8326 6.09059 39.6042 5.31901C40.3757 4.54743 41.4222 4.11396 42.5134 4.11396ZM61.7135 28.7998H42.5134C41.4222 28.7998 40.3757 28.3663 39.6042 27.5947C38.8326 26.8231 38.3991 25.7766 38.3991 24.6855V12.3426H65.8278V24.6855C65.8278 25.7766 65.3943 26.8231 64.6227 27.5947C63.8512 28.3663 62.8047 28.7998 61.7135 28.7998ZM61.7135 17.8283C61.7135 18.192 61.569 18.5408 61.3118 18.798C61.0546 19.0552 60.7058 19.1997 60.3421 19.1997H43.8849C43.5211 19.1997 43.1723 19.0552 42.9151 18.798C42.6579 18.5408 42.5134 18.192 42.5134 17.8283C42.5134 17.4646 42.6579 17.1157 42.9151 16.8585C43.1723 16.6014 43.5211 16.4569 43.8849 16.4569H60.3421C60.7058 16.4569 61.0546 16.6014 61.3118 16.8585C61.569 17.1157 61.7135 17.4646 61.7135 17.8283ZM56.2278 23.314C56.2278 23.6778 56.0833 24.0266 55.8261 24.2838C55.5689 24.541 55.22 24.6855 54.8563 24.6855H43.8849C43.5211 24.6855 43.1723 24.541 42.9151 24.2838C42.6579 24.0266 42.5134 23.6778 42.5134 23.314C42.5134 22.9503 42.6579 22.6015 42.9151 22.3443C43.1723 22.0871 43.5211 21.9426 43.8849 21.9426H54.8563C55.22 21.9426 55.5689 22.0871 55.8261 22.3443C56.0833 22.6015 56.2278 22.9503 56.2278 23.314ZM39.7706 6.85683C39.7706 6.58558 39.851 6.32043 40.0017 6.0949C40.1524 5.86937 40.3666 5.69359 40.6172 5.58979C40.8678 5.48599 41.1435 5.45883 41.4095 5.51175C41.6756 5.56466 41.9199 5.69528 42.1117 5.88708C42.3035 6.07888 42.4341 6.32324 42.4871 6.58927C42.54 6.85531 42.5128 7.13106 42.409 7.38165C42.3052 7.63225 42.1294 7.84644 41.9039 7.99713C41.6784 8.14783 41.4132 8.22826 41.142 8.22826C40.7783 8.22826 40.4294 8.08377 40.1722 7.82658C39.915 7.56938 39.7706 7.22055 39.7706 6.85683ZM43.8849 6.85683C43.8849 6.58558 43.9653 6.32043 44.116 6.0949C44.2667 5.86937 44.4809 5.69359 44.7315 5.58979C44.9821 5.48599 45.2578 5.45883 45.5238 5.51175C45.7899 5.56466 46.0342 5.69528 46.226 5.88708C46.4178 6.07888 46.5484 6.32324 46.6014 6.58927C46.6543 6.85531 46.6271 7.13106 46.5233 7.38165C46.4195 7.63225 46.2437 7.84644 46.0182 7.99713C45.7927 8.14783 45.5275 8.22826 45.2563 8.22826C44.8926 8.22826 44.5437 8.08377 44.2865 7.82658C44.0293 7.56938 43.8849 7.22055 43.8849 6.85683ZM47.9992 6.85683C47.9992 6.58558 48.0796 6.32043 48.2303 6.0949C48.381 5.86937 48.5952 5.69359 48.8458 5.58979C49.0964 5.48599 49.3721 5.45883 49.6381 5.51175C49.9042 5.56466 50.1485 5.69528 50.3403 5.88708C50.5321 6.07888 50.6627 6.32324 50.7157 6.58927C50.7686 6.85531 50.7414 7.13106 50.6376 7.38165C50.5338 7.63225 50.358 7.84644 50.1325 7.99713C49.907 8.14783 49.6418 8.22826 49.3706 8.22826C49.0069 8.22826 48.658 8.08377 48.4008 7.82658C48.1436 7.56938 47.9992 7.22055 47.9992 6.85683Z" fill="#0A76E5"/>
</g>
<defs>
<clipPath id="clip0_1489_4096">
<rect width="32.9144" height="32.9144" fill="white" transform="translate(0 15.0859)"/>
</clipPath>
<clipPath id="clip1_1489_4096">
<rect width="32.9144" height="32.9144" fill="white" transform="translate(35.6562)"/>
</clipPath>
</defs>
</svg>
