<svg width="48" height="48" viewBox="0 0 48 48" fill="none" xmlns="http://www.w3.org/2000/svg">
<g clip-path="url(#clip0_415_2140)">
<path d="M11.5939 8.91155H29.5005L45.7397 0.646787C46.5272 0.245965 47.4456 0.828773 47.445 1.69221L47.4462 38.2107C47.4462 39.1166 46.4671 39.6683 45.696 39.234L29.4999 30.9913H21.4188V38.4958L24.4933 45.8597C24.8153 46.6364 24.2348 47.4817 23.411 47.4817L16.4162 47.4834C15.8906 47.4834 15.4456 47.1376 15.2959 46.6614L12.1682 39.0231C12.1086 38.8774 12.0803 38.7266 12.0803 38.5786L12.0763 30.9913H11.5939C5.51973 30.9913 0.553955 26.0261 0.553955 19.9514C0.553955 13.8773 5.51973 8.91155 11.5939 8.91155ZM15.754 15.501C18.2117 15.501 20.2044 17.4938 20.2044 19.9514C20.2044 22.4091 18.2117 24.4019 15.754 24.4019C13.2964 24.4019 11.3036 22.4091 11.3036 19.9514C11.3036 17.4938 13.2964 15.501 15.754 15.501ZM15.754 17.8493C14.5929 17.8493 13.6518 18.7904 13.6518 19.9514C13.6518 21.1125 14.5929 22.0536 15.754 22.0536C16.9151 22.0536 17.8562 21.1125 17.8562 19.9514C17.8562 18.7904 16.9151 17.8493 15.754 17.8493ZM19.0711 30.9913H14.4246V38.3575L17.2003 45.1352H21.6507L19.1919 39.2448C19.1142 39.0883 19.0711 38.912 19.0711 38.7255V30.9913ZM30.9535 10.8045V29.0989L45.0979 36.2967V3.60618L30.9535 10.8045ZM28.6058 11.2598H11.5939C6.8163 11.2598 2.90219 15.1733 2.90219 19.9514C2.90219 24.7296 6.81574 28.6431 11.5939 28.6431C17.2643 28.6431 22.9354 28.6431 28.6058 28.6431V11.2598Z" fill="#717171"/>
</g>
<defs>
<clipPath id="clip0_415_2140">
<rect width="48" height="48" fill="white"/>
</clipPath>
</defs>
</svg>
