<svg width="48" height="48" viewBox="0 0 48 48" fill="none" xmlns="http://www.w3.org/2000/svg">
<g clip-path="url(#clip0_1833_7584)">
<path d="M33.1817 14.818C32.3378 13.9741 31.1933 13.5 29.9998 13.5C28.8063 13.5 27.6618 13.9741 26.8178 14.818L26.1211 15.5146L28.2424 17.6359L28.9391 16.9391C29.2205 16.6578 29.6021 16.4998 29.9999 16.4998C30.3977 16.4999 30.7793 16.6579 31.0606 16.9393C31.3419 17.2206 31.4999 17.6022 31.4999 18C31.4999 18.3979 31.3418 18.7794 31.0604 19.0607L26.1211 23.9999L28.2425 26.1212L33.1817 21.1819C34.0256 20.338 34.4997 19.1934 34.4997 17.9999C34.4997 16.8065 34.0256 15.6619 33.1817 14.818Z" fill="#FF8A6D"/>
<path d="M19.0609 31.061C18.7796 31.3423 18.398 31.5003 18.0002 31.5003C17.6023 31.5003 17.2208 31.3422 16.9395 31.0609C16.6582 30.7795 16.5001 30.3979 16.5002 30.0001C16.5002 29.6023 16.6583 29.2207 16.9396 28.9394L21.879 24.0002L19.7577 21.8789L14.8183 26.8183C14.3974 27.2355 14.0631 27.7317 13.8345 28.2784C13.606 28.8252 13.4876 29.4117 13.4863 30.0043C13.485 30.5969 13.6008 31.1839 13.827 31.7317C14.0532 32.2794 14.3853 32.7771 14.8043 33.1961C15.2234 33.6152 15.7211 33.9473 16.2688 34.1735C16.8166 34.3997 17.4036 34.5154 17.9962 34.5141C18.5888 34.5128 19.1753 34.3945 19.722 34.1659C20.2688 33.9373 20.765 33.603 21.1822 33.1822L21.879 32.4856L19.7577 30.3641L19.0609 31.061Z" fill="#FF8A6D"/>
<path d="M21.1817 14.8178C20.3365 13.98 19.1939 13.5111 18.0038 13.5137C16.8138 13.5163 15.6732 13.9902 14.8317 14.8317C13.9902 15.6732 13.5163 16.8138 13.5137 18.0038C13.5111 19.1939 13.98 20.3365 14.8178 21.1817L15.5145 21.8784L17.6358 19.7571L16.9391 19.0604C16.7998 18.9211 16.6893 18.7557 16.6139 18.5738C16.5385 18.3918 16.4997 18.1967 16.4997 17.9997C16.4997 17.6019 16.6577 17.2203 16.939 16.939C17.2203 16.6577 17.6018 16.4996 17.9997 16.4996C18.3975 16.4996 18.7791 16.6576 19.0604 16.9389L23.9997 21.8784L26.121 19.757L21.1817 14.8178Z" fill="#FF8A6D"/>
<path d="M33.1822 26.8178L32.4854 26.1211L30.3643 28.2424L31.0609 28.9391C31.3422 29.2204 31.5002 29.602 31.5002 29.9998C31.5003 30.3977 31.3422 30.7792 31.0609 31.0605C30.7796 31.3418 30.3981 31.4999 30.0003 31.4999C29.6024 31.4999 29.2209 31.3419 28.9396 31.0606L24.0002 26.1211L21.8789 28.2424L26.8183 33.1817C27.6634 34.0195 28.8061 34.4885 29.9961 34.4858C31.1862 34.4832 32.3268 34.0093 33.1683 33.1678C34.0098 32.3263 34.4837 31.1858 34.4863 29.9957C34.4889 28.8057 34.02 27.663 33.1822 26.8178Z" fill="#FF8A6D"/>
<path d="M24 46.5001C23.7345 46.5004 23.4736 46.4301 23.2442 46.2965L5.24415 35.7965C5.01767 35.6642 4.82979 35.475 4.69923 35.2475C4.56867 35.02 4.49998 34.7623 4.5 34.5001V13.5001C4.4999 13.2379 4.56856 12.9802 4.69914 12.7529C4.82972 12.5255 5.01764 12.3364 5.24415 12.2044L23.2442 1.70436C23.4736 1.57052 23.7344 1.5 24 1.5C24.2656 1.5 24.5264 1.57052 24.7559 1.70436L42.7559 12.2044L41.2441 14.7958L24 4.73661L7.5 14.3614V33.6388L24 43.2643L40.5 33.6388V22.5001H43.5V34.5001C43.5 34.7623 43.4313 35.02 43.3008 35.2475C43.1702 35.475 42.9823 35.6642 42.7559 35.7965L24.7559 46.2965C24.5264 46.4301 24.2655 46.5004 24 46.5001Z" fill="#FF8A6D"/>
</g>
<defs>
<clipPath id="clip0_1833_7584">
<rect width="48" height="48" fill="white"/>
</clipPath>
</defs>
</svg>
