<svg width="48" height="48" viewBox="0 0 48 48" fill="none" xmlns="http://www.w3.org/2000/svg">
<g clip-path="url(#clip0_1833_7597)">
<path d="M42 24V33H6V9H24V6H6C5.20435 6 4.44129 6.31607 3.87868 6.87868C3.31607 7.44129 3 8.20435 3 9V33C3 33.7956 3.31607 34.5587 3.87868 35.1213C4.44129 35.6839 5.20435 36 6 36H18V42H12V45H36V42H30V36H42C42.7957 36 43.5587 35.6839 44.1213 35.1213C44.6839 34.5587 45 33.7956 45 33V24H42ZM27 42H21V36H27V42Z" fill="#FF8A6D"/>
<path d="M31.5 22.5L24 15.06L26.385 12.705L31.5 17.775L42.615 6.75L45 9.12L31.5 22.5Z" fill="#FF8A6D"/>
</g>
<defs>
<clipPath id="clip0_1833_7597">
<rect width="48" height="48" fill="white"/>
</clipPath>
</defs>
</svg>
