<svg width="48" height="48" viewBox="0 0 48 48" fill="none" xmlns="http://www.w3.org/2000/svg">
<g clip-path="url(#clip0_1833_7594)">
<path d="M39 15.0005H34.8575C35.8338 13.5574 36.2125 11.792 35.9138 10.0755C35.6152 8.35901 34.6625 6.82522 33.2562 5.79674C31.8498 4.76825 30.0994 4.32524 28.3731 4.56088C26.6469 4.79653 25.0792 5.69246 24 7.06023C22.9184 5.69922 21.3521 4.80949 19.6292 4.57737C17.9063 4.34525 16.1604 4.78874 14.7572 5.81496C13.3539 6.84119 12.4021 8.37055 12.1012 10.0828C11.8002 11.795 12.1734 13.5572 13.1425 15.0005H9C8.20466 15.0015 7.44217 15.3179 6.87978 15.8803C6.31738 16.4426 6.00099 17.2051 6 18.0005V24.0005C6.00099 24.7958 6.31738 25.5583 6.87978 26.1207C7.44217 26.6831 8.20466 26.9995 9 27.0005V42.0005C9.00099 42.7958 9.31738 43.5583 9.87978 44.1207C10.4422 44.6831 11.2047 44.9995 12 45.0005H36C36.7953 44.9995 37.5578 44.6831 38.1202 44.1207C38.6826 43.5583 38.999 42.7958 39 42.0005V27.0005C39.7953 26.9995 40.5578 26.6831 41.1202 26.1207C41.6826 25.5583 41.999 24.7958 42 24.0005V18.0005C41.999 17.2051 41.6826 16.4426 41.1202 15.8803C40.5578 15.3179 39.7953 15.0015 39 15.0005ZM25.5 11.2505C25.5 10.5088 25.7199 9.78377 26.132 9.16709C26.544 8.5504 27.1297 8.06976 27.8149 7.78593C28.5002 7.5021 29.2542 7.42784 29.9816 7.57253C30.709 7.71723 31.3772 8.07438 31.9016 8.59883C32.4261 9.12327 32.7833 9.79146 32.9279 10.5189C33.0726 11.2463 32.9984 12.0003 32.7145 12.6855C32.4307 13.3708 31.9501 13.9564 31.3334 14.3685C30.7167 14.7805 29.9917 15.0005 29.25 15.0005H25.5V11.2505ZM18.75 7.50048C19.7442 7.50167 20.6973 7.89714 21.4003 8.60014C22.1033 9.30314 22.4988 10.2563 22.5 11.2505V15.0005H18.75C17.7554 15.0005 16.8016 14.6054 16.0983 13.9021C15.3951 13.1989 15 12.245 15 11.2505C15 10.2559 15.3951 9.30209 16.0983 8.59883C16.8016 7.89556 17.7554 7.50048 18.75 7.50048ZM9 18.0005H22.5V24.0005H9V18.0005ZM12 27.0005H22.5V42.0005H12V27.0005ZM36.0018 42.0005H25.5V27.0005H36L36.0018 42.0005ZM25.5 24.0005V18.0005H39L39.0018 24.0005H25.5Z" fill="#FF8A6D"/>
</g>
<defs>
<clipPath id="clip0_1833_7594">
<rect width="48" height="48" fill="white"/>
</clipPath>
</defs>
</svg>
