<svg width="40" height="40" viewBox="0 0 40 40" fill="none" xmlns="http://www.w3.org/2000/svg">
<path d="M20 0C8.95431 0 0 8.95594 0 20C0 31.0457 8.95431 39.9984 20 39.9984C31.0457 39.9984 40 31.0457 40 20C40 8.95594 31.0449 0 20 0ZM25.293 19.9163H21.8298C21.8298 25.4506 21.8298 32.2672 21.8298 32.2672H16.6969C16.6969 32.2672 16.6969 25.5204 16.6969 19.9163H14.2554V15.5557H16.6969V12.7302C16.6969 10.7078 17.6569 7.55086 21.8778 7.55086L25.6788 7.56548V11.801C25.6788 11.801 23.3673 11.801 22.919 11.801C22.4682 11.801 21.8307 12.026 21.8307 12.9876V15.5566H25.7438L25.293 19.9163Z" fill="#373C45"/>
</svg>
