<svg width="20" height="21" viewBox="0 0 20 21" fill="none" xmlns="http://www.w3.org/2000/svg">
<g clip-path="url(#clip0_415_3180)">
<path d="M17.5 6.125H6.875C6.70924 6.125 6.55027 6.05915 6.43306 5.94194C6.31585 5.82473 6.25 5.66576 6.25 5.5C6.25 5.33424 6.31585 5.17527 6.43306 5.05806C6.55027 4.94085 6.70924 4.875 6.875 4.875H17.5C17.6658 4.875 17.8247 4.94085 17.9419 5.05806C18.0592 5.17527 18.125 5.33424 18.125 5.5C18.125 5.66576 18.0592 5.82473 17.9419 5.94194C17.8247 6.05915 17.6658 6.125 17.5 6.125Z" fill="#3F3F3F"/>
<path d="M4.375 6.125H2.5C2.33424 6.125 2.17527 6.05915 2.05806 5.94194C1.94085 5.82473 1.875 5.66576 1.875 5.5C1.875 5.33424 1.94085 5.17527 2.05806 5.05806C2.17527 4.94085 2.33424 4.875 2.5 4.875H4.375C4.54076 4.875 4.69973 4.94085 4.81694 5.05806C4.93415 5.17527 5 5.33424 5 5.5C5 5.66576 4.93415 5.82473 4.81694 5.94194C4.69973 6.05915 4.54076 6.125 4.375 6.125Z" fill="#3F3F3F"/>
<path d="M13.125 11.125H2.5C2.33424 11.125 2.17527 11.0592 2.05806 10.9419C1.94085 10.8247 1.875 10.6658 1.875 10.5C1.875 10.3342 1.94085 10.1753 2.05806 10.0581C2.17527 9.94085 2.33424 9.875 2.5 9.875H13.125C13.2908 9.875 13.4497 9.94085 13.5669 10.0581C13.6842 10.1753 13.75 10.3342 13.75 10.5C13.75 10.6658 13.6842 10.8247 13.5669 10.9419C13.4497 11.0592 13.2908 11.125 13.125 11.125Z" fill="#3F3F3F"/>
<path d="M6.875 16.125H2.5C2.33424 16.125 2.17527 16.0592 2.05806 15.9419C1.94085 15.8247 1.875 15.6658 1.875 15.5C1.875 15.3342 1.94085 15.1753 2.05806 15.0581C2.17527 14.9408 2.33424 14.875 2.5 14.875H6.875C7.04076 14.875 7.19973 14.9408 7.31694 15.0581C7.43415 15.1753 7.5 15.3342 7.5 15.5C7.5 15.6658 7.43415 15.8247 7.31694 15.9419C7.19973 16.0592 7.04076 16.125 6.875 16.125Z" fill="#3F3F3F"/>
<path d="M5.625 7.375C5.25416 7.375 4.89165 7.26503 4.58331 7.05901C4.27496 6.85298 4.03464 6.56014 3.89273 6.21753C3.75081 5.87492 3.71368 5.49792 3.78603 5.13421C3.85838 4.77049 4.03695 4.4364 4.29918 4.17418C4.5614 3.91195 4.89549 3.73338 5.25921 3.66103C5.62292 3.58868 5.99992 3.62581 6.34253 3.76773C6.68514 3.90964 6.97798 4.14996 7.18401 4.45831C7.39003 4.76665 7.5 5.12916 7.5 5.5C7.5 5.99728 7.30246 6.4742 6.95083 6.82583C6.5992 7.17746 6.12228 7.375 5.625 7.375ZM5.625 4.875C5.50139 4.875 5.38055 4.91166 5.27777 4.98033C5.17499 5.04901 5.09488 5.14662 5.04758 5.26082C5.00027 5.37503 4.98789 5.50069 5.01201 5.62193C5.03613 5.74317 5.09565 5.85453 5.18306 5.94194C5.27047 6.02935 5.38183 6.08888 5.50307 6.11299C5.62431 6.13711 5.74997 6.12473 5.86418 6.07743C5.97838 6.03012 6.07599 5.95001 6.14467 5.84723C6.21335 5.74445 6.25 5.62361 6.25 5.5C6.25 5.33424 6.18415 5.17527 6.06694 5.05806C5.94973 4.94085 5.79076 4.875 5.625 4.875Z" fill="#3F3F3F"/>
<path d="M14.375 12.375C14.0042 12.375 13.6416 12.265 13.3333 12.059C13.025 11.853 12.7846 11.5601 12.6427 11.2175C12.5008 10.8749 12.4637 10.4979 12.536 10.1342C12.6084 9.77049 12.787 9.4364 13.0492 9.17418C13.3114 8.91195 13.6455 8.73338 14.0092 8.66103C14.3729 8.58868 14.7499 8.62581 15.0925 8.76773C15.4351 8.90964 15.728 9.14996 15.934 9.45831C16.14 9.76665 16.25 10.1292 16.25 10.5C16.25 10.9973 16.0525 11.4742 15.7008 11.8258C15.3492 12.1775 14.8723 12.375 14.375 12.375ZM14.375 9.875C14.2514 9.875 14.1306 9.91166 14.0278 9.98033C13.925 10.049 13.8449 10.1466 13.7976 10.2608C13.7503 10.375 13.7379 10.5007 13.762 10.6219C13.7861 10.7432 13.8457 10.8545 13.9331 10.9419C14.0205 11.0294 14.1318 11.0889 14.2531 11.113C14.3743 11.1371 14.5 11.1247 14.6142 11.0774C14.7284 11.0301 14.826 10.95 14.8947 10.8472C14.9633 10.7445 15 10.6236 15 10.5C15 10.3342 14.9342 10.1753 14.8169 10.0581C14.6997 9.94085 14.5408 9.875 14.375 9.875Z" fill="#3F3F3F"/>
<path d="M8.125 17.375C7.75416 17.375 7.39165 17.265 7.08331 17.059C6.77496 16.853 6.53464 16.5601 6.39273 16.2175C6.25081 15.8749 6.21368 15.4979 6.28603 15.1342C6.35838 14.7705 6.53695 14.4364 6.79918 14.1742C7.0614 13.912 7.39549 13.7334 7.75921 13.661C8.12292 13.5887 8.49992 13.6258 8.84253 13.7677C9.18514 13.9096 9.47798 14.15 9.68401 14.4583C9.89003 14.7666 10 15.1292 10 15.5C10 15.9973 9.80246 16.4742 9.45083 16.8258C9.0992 17.1775 8.62228 17.375 8.125 17.375ZM8.125 14.875C8.00139 14.875 7.88055 14.9117 7.77777 14.9803C7.67499 15.049 7.59488 15.1466 7.54758 15.2608C7.50027 15.375 7.48789 15.5007 7.51201 15.6219C7.53613 15.7432 7.59565 15.8545 7.68306 15.9419C7.77047 16.0294 7.88183 16.0889 8.00307 16.113C8.12431 16.1371 8.24997 16.1247 8.36418 16.0774C8.47838 16.0301 8.57599 15.95 8.64467 15.8472C8.71335 15.7445 8.75 15.6236 8.75 15.5C8.75 15.3342 8.68415 15.1753 8.56694 15.0581C8.44973 14.9408 8.29076 14.875 8.125 14.875Z" fill="#3F3F3F"/>
<path d="M17.5 11.125H15.625C15.4592 11.125 15.3003 11.0592 15.1831 10.9419C15.0658 10.8247 15 10.6658 15 10.5C15 10.3342 15.0658 10.1753 15.1831 10.0581C15.3003 9.94085 15.4592 9.875 15.625 9.875H17.5C17.6658 9.875 17.8247 9.94085 17.9419 10.0581C18.0592 10.1753 18.125 10.3342 18.125 10.5C18.125 10.6658 18.0592 10.8247 17.9419 10.9419C17.8247 11.0592 17.6658 11.125 17.5 11.125Z" fill="#3F3F3F"/>
<path d="M17.5 16.125H9.375C9.20924 16.125 9.05027 16.0592 8.93306 15.9419C8.81585 15.8247 8.75 15.6658 8.75 15.5C8.75 15.3342 8.81585 15.1753 8.93306 15.0581C9.05027 14.9408 9.20924 14.875 9.375 14.875H17.5C17.6658 14.875 17.8247 14.9408 17.9419 15.0581C18.0592 15.1753 18.125 15.3342 18.125 15.5C18.125 15.6658 18.0592 15.8247 17.9419 15.9419C17.8247 16.0592 17.6658 16.125 17.5 16.125Z" fill="#3F3F3F"/>
</g>
<defs>
<clipPath id="clip0_415_3180">
<rect width="20" height="20" fill="white" transform="translate(0 0.5)"/>
</clipPath>
</defs>
</svg>
