<svg width="24" height="24" viewBox="0 0 24 24" fill="none" xmlns="http://www.w3.org/2000/svg">
<g clip-path="url(#clip0_721_2491)">
<path d="M5.79729 4.45553H14.7506L22.8702 0.323149C23.2639 0.122738 23.7232 0.414142 23.7229 0.845862L23.7234 19.1051C23.7234 19.5581 23.2339 19.8339 22.8484 19.6168L14.7503 15.4954H10.7098V19.2477L12.247 22.9296C12.408 23.318 12.1178 23.7406 11.7059 23.7406L8.20846 23.7415C7.94569 23.7415 7.72317 23.5686 7.64833 23.3305L6.08444 19.5113C6.05468 19.4385 6.04051 19.363 6.04051 19.2891L6.03852 15.4954H5.79729C2.76023 15.4954 0.277344 13.0128 0.277344 9.97548C0.277344 6.93842 2.76023 4.45553 5.79729 4.45553ZM7.87737 7.75026C9.1062 7.75026 10.1026 8.74665 10.1026 9.97548C10.1026 11.2043 9.1062 12.2007 7.87737 12.2007C6.64854 12.2007 5.65216 11.2043 5.65216 9.97548C5.65216 8.74665 6.64854 7.75026 7.87737 7.75026ZM7.87737 8.92438C7.29683 8.92438 6.82628 9.39494 6.82628 9.97548C6.82628 10.556 7.29683 11.0266 7.87737 11.0266C8.45791 11.0266 8.92847 10.556 8.92847 9.97548C8.92847 9.39494 8.45791 8.92438 7.87737 8.92438ZM9.53594 15.4954H7.21264V19.1785L8.6005 22.5674H10.8257L9.59631 19.6221C9.55748 19.5439 9.53594 19.4557 9.53594 19.3625V15.4954ZM15.4771 5.40202V14.5492L22.5493 18.1481V1.80285L15.4771 5.40202ZM14.3033 5.62965H5.79729C3.40852 5.62965 1.45146 7.58642 1.45146 9.97548C1.45146 12.3645 3.40823 14.3213 5.79729 14.3213C8.63253 14.3213 11.468 14.3213 14.3033 14.3213V5.62965Z" fill="#333333"/>
</g>
<defs>
<clipPath id="clip0_721_2491">
<rect width="24" height="24" fill="white"/>
</clipPath>
</defs>
</svg>
