<svg width="16" height="16" viewBox="0 0 16 16" fill="none" xmlns="http://www.w3.org/2000/svg">
<path fill-rule="evenodd" clip-rule="evenodd" d="M14.582 5.236C13.957 5.072 12.4875 5.074 10.338 5.017C10.4395 4.548 10.463 4.125 10.463 3.374C10.463 1.58 9.156 0 8 0C7.1835 0 6.5105 0.6675 6.5 1.4885C6.489 2.4955 6.1775 4.2345 4.5 5.1165C4.377 5.1815 4.025 5.355 3.9735 5.3775L4 5.4C3.7375 5.1735 3.3735 5 3 5H1.5C0.673 5 0 5.673 0 6.5V14.5C0 15.327 0.673 16 1.5 16H3C3.595 16 4.093 15.6405 4.334 15.1365C4.34 15.1385 4.3505 15.1415 4.3575 15.1425C4.3905 15.1515 4.4295 15.161 4.477 15.1735C4.486 15.176 4.4905 15.177 4.5 15.1795C4.788 15.251 5.3425 15.3835 6.5275 15.656C6.7815 15.714 8.1235 16 9.5135 16H12.247C13.08 16 13.6805 15.6795 14.038 15.036C14.043 15.026 14.158 14.8015 14.252 14.498C14.3225 14.2695 14.3485 13.946 14.2635 13.618C14.8005 13.249 14.9735 12.691 15.086 12.328C15.2745 11.7325 15.218 11.285 15.087 10.9645C15.389 10.6795 15.6465 10.245 15.755 9.5815C15.8225 9.1705 15.75 8.7475 15.5605 8.3955C15.8435 8.0775 15.9725 7.6775 15.9875 7.3075L15.9935 7.203C15.997 7.1375 16 7.097 16 6.953C16 6.3215 15.5625 5.516 14.582 5.236ZM3.5 14.5C3.5 14.7765 3.2765 15 3 15H1.5C1.2235 15 1 14.7765 1 14.5V6.5C1 6.2235 1.2235 6 1.5 6H3C3.2765 6 3.5 6.2235 3.5 6.5V14.5ZM14.9885 7.2675C14.9785 7.5145 14.875 8 14 8C13.25 8 13 8 13 8C12.8615 8 12.75 8.112 12.75 8.25C12.75 8.388 12.8615 8.5 13 8.5C13 8.5 13.219 8.5 13.969 8.5C14.719 8.5 14.8175 9.122 14.769 9.422C14.707 9.795 14.532 10.5 13.6875 10.5C12.844 10.5 12.5 10.5 12.5 10.5C12.3615 10.5 12.25 10.6115 12.25 10.75C12.25 10.8875 12.3615 11 12.5 11C12.5 11 13.094 11 13.4845 11C14.3285 11 14.254 11.6435 14.133 12.0275C13.9735 12.532 13.876 13 12.8125 13C12.453 13 11.997 13 11.997 13C11.8585 13 11.747 13.1115 11.747 13.25C11.747 13.3875 11.8585 13.5 11.997 13.5C11.997 13.5 12.3435 13.5 12.781 13.5C13.328 13.5 13.3535 14.0175 13.2965 14.203C13.234 14.406 13.16 14.5565 13.157 14.5635C13.006 14.836 12.7625 15 12.247 15H9.5135C8.1405 15 6.7785 14.6885 6.7435 14.6805C4.6665 14.202 4.557 14.165 4.4265 14.128C4.4265 14.128 4.0035 14.0565 4.0035 13.6875L4 6.7815C4 6.547 4.1495 6.335 4.397 6.2605C4.428 6.2485 4.47 6.2355 4.5 6.223C6.784 5.277 7.4795 3.203 7.5 1.5C7.503 1.2605 7.6875 1 8 1C8.5285 1 9.463 2.061 9.463 3.374C9.463 4.5595 9.415 4.7645 9 6C14 6 13.965 6.072 14.406 6.1875C14.953 6.344 15 6.797 15 6.953C15 7.1245 14.995 7.0995 14.9885 7.2675Z" fill="#333333"/>
<path fill-rule="evenodd" clip-rule="evenodd" d="M2.25 13C1.836 13 1.5 13.336 1.5 13.75C1.5 14.164 1.836 14.5 2.25 14.5C2.664 14.5 3 14.164 3 13.75C3 13.336 2.664 13 2.25 13ZM2.25 14C2.1125 14 2 13.8875 2 13.75C2 13.6125 2.1125 13.5 2.25 13.5C2.3875 13.5 2.5 13.6125 2.5 13.75C2.5 13.8875 2.3875 14 2.25 14Z" fill="#333333"/>
</svg>
