<svg width="24" height="24" viewBox="0 0 24 24" fill="none" xmlns="http://www.w3.org/2000/svg">
<g clip-path="url(#clip0_26_1558)">
<path d="M22.9838 11.5502C17.6232 11.5502 14.9323 11.5502 13.6908 10.3091C12.4493 9.068 12.4493 6.37708 12.4493 1.01611C12.4493 0.896844 12.402 0.782459 12.3176 0.698123C12.2333 0.613786 12.1189 0.566406 11.9996 0.566406C11.8804 0.566406 11.766 0.613786 11.6816 0.698123C11.5973 0.782459 11.5499 0.896844 11.5499 1.01611C11.5499 6.37711 11.5499 9.06799 10.3085 10.3091C9.06702 11.5502 6.3761 11.5502 1.0155 11.5502C0.896137 11.5502 0.781659 11.5976 0.697254 11.682C0.612848 11.7664 0.56543 11.8809 0.56543 12.0002C0.56543 12.1196 0.612848 12.2341 0.697254 12.3185C0.781659 12.4029 0.896137 12.4503 1.0155 12.4503C6.3761 12.4503 9.06702 12.4503 10.3085 13.6914C11.5499 14.9329 11.5499 17.6238 11.5499 22.9844C11.5499 23.1036 11.5973 23.218 11.6816 23.3024C11.766 23.3867 11.8804 23.4341 11.9996 23.4341C12.1189 23.4341 12.2333 23.3867 12.3176 23.3024C12.402 23.218 12.4493 23.1036 12.4493 22.9844C12.4493 17.6238 12.4493 14.9329 13.6908 13.6914C14.9323 12.4503 17.6232 12.4503 22.9838 12.4503C23.1031 12.4503 23.2176 12.4029 23.302 12.3185C23.3864 12.2341 23.4338 12.1196 23.4338 12.0002C23.4338 11.8809 23.3864 11.7664 23.302 11.682C23.2176 11.5976 23.1031 11.5502 22.9838 11.5502Z" fill="#50B432"/>
</g>
<defs>
<clipPath id="clip0_26_1558">
<rect width="24" height="24" fill="white"/>
</clipPath>
</defs>
</svg>
