<svg width="28" height="28" viewBox="0 0 28 28" fill="none" xmlns="http://www.w3.org/2000/svg">
<path d="M25.375 6.125H2.625C1.1375 6.125 0 7.2625 0 8.75V19.25C0 20.7375 1.1375 21.875 2.625 21.875H25.375C26.8625 21.875 28 20.7375 28 19.25V8.75C28 7.2625 26.8625 6.125 25.375 6.125ZM7 13.125C8.4875 13.125 9.625 14.2625 9.625 15.75C9.625 17.2375 8.4875 18.375 7 18.375C5.5125 18.375 4.375 17.2375 4.375 15.75C4.375 15.225 4.725 14.875 5.25 14.875C5.775 14.875 6.125 15.225 6.125 15.75C6.125 16.275 6.475 16.625 7 16.625C7.525 16.625 7.875 16.275 7.875 15.75C7.875 15.225 7.525 14.875 7 14.875C5.5125 14.875 4.375 13.7375 4.375 12.25C4.375 10.7625 5.5125 9.625 7 9.625C8.4875 9.625 9.625 10.7625 9.625 12.25C9.625 12.775 9.275 13.125 8.75 13.125C8.225 13.125 7.875 12.775 7.875 12.25C7.875 11.725 7.525 11.375 7 11.375C6.475 11.375 6.125 11.725 6.125 12.25C6.125 12.775 6.475 13.125 7 13.125ZM14 13.125C15.4875 13.125 16.625 14.2625 16.625 15.75C16.625 17.2375 15.4875 18.375 14 18.375C12.5125 18.375 11.375 17.2375 11.375 15.75C11.375 15.225 11.725 14.875 12.25 14.875C12.775 14.875 13.125 15.225 13.125 15.75C13.125 16.275 13.475 16.625 14 16.625C14.525 16.625 14.875 16.275 14.875 15.75C14.875 15.225 14.525 14.875 14 14.875C12.5125 14.875 11.375 13.7375 11.375 12.25C11.375 10.7625 12.5125 9.625 14 9.625C15.4875 9.625 16.625 10.7625 16.625 12.25C16.625 12.775 16.275 13.125 15.75 13.125C15.225 13.125 14.875 12.775 14.875 12.25C14.875 11.725 14.525 11.375 14 11.375C13.475 11.375 13.125 11.725 13.125 12.25C13.125 12.775 13.475 13.125 14 13.125ZM22.75 18.375H19.25C18.725 18.375 18.375 18.025 18.375 17.5V10.5C18.375 9.975 18.725 9.625 19.25 9.625C19.775 9.625 20.125 9.975 20.125 10.5V16.625H22.75C23.275 16.625 23.625 16.975 23.625 17.5C23.625 18.025 23.275 18.375 22.75 18.375Z" fill="#FE5D35"/>
</svg>
