<svg width="24" height="24" viewBox="0 0 24 24" fill="none" xmlns="http://www.w3.org/2000/svg">
<g clip-path="url(#clip0_2012_4191)">
<path d="M19.9999 4.0521C8.35292 -5.6589 -6.71208 9.50009 3.13792 21.0811C3.38201 21.4012 3.70527 21.6523 4.07587 21.8095C4.44647 21.9668 4.85163 22.0248 5.25146 21.9779C5.65129 21.9309 6.03201 21.7807 6.35613 21.5419C6.68025 21.3031 6.9366 20.9841 7.09992 20.6161C7.44692 20.0971 7.78192 18.9291 8.58592 19.0001H15.4099C16.2099 18.9261 16.5709 20.1291 16.9099 20.6461C17.075 21.0029 17.3283 21.3118 17.6458 21.5437C17.9633 21.7756 18.3347 21.9229 18.7248 21.9716C19.115 22.0203 19.5111 21.9689 19.8759 21.8222C20.2407 21.6755 20.5621 21.4384 20.8099 21.1331C21.8824 19.9604 22.7125 18.5873 23.2525 17.0927C23.7925 15.5981 24.0318 14.0115 23.9565 12.4242C23.8812 10.8368 23.4929 9.27997 22.8139 7.84319C22.1349 6.40641 21.1786 5.11802 19.9999 4.0521ZM17.7069 8.7071L13.9319 12.4821C14.0459 12.9074 14.0164 13.3584 13.8479 13.7651C13.6795 14.1719 13.3815 14.5118 13.0002 14.7319C12.6189 14.9521 12.1756 15.0403 11.7391 14.9828C11.3026 14.9253 10.8972 14.7254 10.5859 14.4141C10.2746 14.1028 10.0747 13.6974 10.0172 13.2609C9.95976 12.8244 10.048 12.3811 10.2681 11.9998C10.4883 11.6185 10.8281 11.3206 11.2349 11.1521C11.6417 10.9836 12.0927 10.9541 12.5179 11.0681L16.2929 7.2931C16.4815 7.11094 16.7341 7.01014 16.9963 7.01242C17.2585 7.0147 17.5093 7.11987 17.6947 7.30528C17.8801 7.49069 17.9853 7.7415 17.9876 8.0037C17.9899 8.26589 17.8891 8.51849 17.7069 8.7071Z" fill="#FE5D35"/>
</g>
<defs>
<clipPath id="clip0_2012_4191">
<rect width="24" height="24" fill="white"/>
</clipPath>
</defs>
</svg>
