<svg width="40" height="40" viewBox="0 0 40 40" fill="none" xmlns="http://www.w3.org/2000/svg">
<g clip-path="url(#clip0_26_1505)">
<path d="M38.1717 10.8963C37.045 10.333 35.7167 10.4513 34.71 11.2096C34.645 11.258 34.5833 11.313 34.5267 11.3696L31.5983 14.3246C31.2467 10.0496 27.6967 6.66797 23.3333 6.66797H8.33333C3.73833 6.6663 0 10.4046 0 14.9996V24.9996C0 29.5946 3.73833 33.333 8.33333 33.333H23.3333C27.715 33.333 31.28 29.9213 31.6033 25.6213L34.53 28.5446C34.5867 28.5996 34.645 28.6496 34.7083 28.698C35.295 29.138 35.9883 29.3613 36.6883 29.3613C37.1933 29.3613 37.6983 29.2463 38.1717 29.0096C39.3 28.4463 40 27.3113 40 26.053V13.8563C40 12.5946 39.3 11.4596 38.1717 10.8963ZM23.3333 29.9996H8.33333C5.57667 29.9996 3.33333 27.7563 3.33333 24.9996V14.9996C3.33333 12.243 5.57667 9.99964 8.33333 9.99964H23.3333C26.09 9.99964 28.3333 12.243 28.3333 14.9996V24.9996C28.3333 27.7563 26.09 29.9996 23.3333 29.9996ZM31.6667 20.9713V18.9896L36.6667 13.943L36.7083 26.0063L31.6667 20.9696V20.9713Z" fill="#4285F4"/>
</g>
<defs>
<clipPath id="clip0_26_1505">
<rect width="40" height="40" fill="white"/>
</clipPath>
</defs>
</svg>
