<svg width="40" height="40" viewBox="0 0 40 40" fill="none" xmlns="http://www.w3.org/2000/svg">
<g clip-path="url(#clip0_26_1510)">
<path d="M31.6667 0H8.33333C6.12401 0.00264643 4.00593 0.88147 2.4437 2.4437C0.88147 4.00593 0.00264643 6.12401 0 8.33333L0 31.6667C0.00264643 33.876 0.88147 35.9941 2.4437 37.5563C4.00593 39.1185 6.12401 39.9974 8.33333 40H31.6667C33.876 39.9974 35.9941 39.1185 37.5563 37.5563C39.1185 35.9941 39.9974 33.876 40 31.6667V8.33333C39.9974 6.12401 39.1185 4.00593 37.5563 2.4437C35.9941 0.88147 33.876 0.00264643 31.6667 0ZM33.3333 18.3333H36.6667V21.6667H33.3333V18.3333ZM33.3333 15V11.6667H36.6667V15H33.3333ZM30 18.3333H10V3.33333H30V18.3333ZM6.66667 21.6667H3.33333V18.3333H6.66667V21.6667ZM6.66667 15H3.33333V11.6667H6.66667V15ZM3.33333 25H6.66667V28.3333H3.33333V25ZM10 21.6667H30V36.6667H10V21.6667ZM33.3333 25H36.6667V28.3333H33.3333V25ZM36.6667 8.33333H33.3333V3.64C34.3048 3.98347 35.1465 4.61872 35.7432 5.45883C36.3399 6.29895 36.6624 7.3029 36.6667 8.33333ZM6.66667 3.64V8.33333H3.33333C3.3376 7.3029 3.66014 6.29895 4.25681 5.45883C4.85349 4.61872 5.69515 3.98347 6.66667 3.64ZM3.33333 31.6667H6.66667V36.36C5.69515 36.0165 4.85349 35.3813 4.25681 34.5412C3.66014 33.701 3.3376 32.6971 3.33333 31.6667ZM33.3333 36.36V31.6667H36.6667C36.6624 32.6971 36.3399 33.701 35.7432 34.5412C35.1465 35.3813 34.3048 36.0165 33.3333 36.36Z" fill="#4285F4"/>
</g>
<defs>
<clipPath id="clip0_26_1510">
<rect width="40" height="40" fill="white"/>
</clipPath>
</defs>
</svg>
