<svg width="40" height="40" viewBox="0 0 40 40" fill="none" xmlns="http://www.w3.org/2000/svg">
<g clip-path="url(#clip0_1489_4084)">
<path d="M30 15.107C30.0002 14.4366 29.8678 13.7728 29.6104 13.1538C29.3529 12.5348 28.9755 11.9728 28.5 11.5003C27.5268 10.5717 26.2334 10.0537 24.8883 10.0537C23.5432 10.0537 22.2498 10.5717 21.2766 11.5003L1.49997 31.282C0.597339 32.2499 0.10571 33.5304 0.128701 34.8536C0.151693 36.1769 0.687508 37.4395 1.62322 38.3754C2.55894 39.3114 3.82146 39.8475 5.1447 39.8708C6.46795 39.8941 7.74856 39.4027 8.71664 38.5003L28.5 18.7187C28.9763 18.2457 29.3541 17.6829 29.6116 17.063C29.869 16.4431 30.0011 15.7783 30 15.107ZM6.35997 36.147C6.02305 36.4682 5.57544 36.6473 5.10997 36.6473C4.64451 36.6473 4.1969 36.4682 3.85997 36.147C3.529 35.8152 3.34313 35.3657 3.34313 34.897C3.34313 34.4283 3.529 33.9788 3.85997 33.647L16.8083 20.697L19.3166 23.2053L6.35997 36.147ZM26.1466 16.3603L21.6666 20.842L19.1666 18.3337L23.6483 13.8537C23.8081 13.6712 24.0036 13.5234 24.2228 13.4195C24.442 13.3157 24.6802 13.2579 24.9226 13.2499C25.165 13.2418 25.4065 13.2837 25.6321 13.3728C25.8577 13.4618 26.0626 13.5963 26.2341 13.7678C26.4057 13.9393 26.5401 14.1442 26.6292 14.3698C26.7183 14.5954 26.7601 14.8369 26.7521 15.0794C26.744 15.3218 26.6863 15.56 26.5824 15.7792C26.4786 15.9984 26.3308 16.1939 26.1483 16.3537L26.1466 16.3603ZM8.10497 4.75866L10.6883 4.02199L11.425 1.43866C11.5436 1.02413 11.7941 0.659521 12.1384 0.399959C12.4827 0.140396 12.9021 0 13.3333 0C13.7645 0 14.1839 0.140396 14.5282 0.399959C14.8725 0.659521 15.123 1.02413 15.2416 1.43866L15.9783 4.02199L18.5616 4.75866C18.9762 4.87733 19.3408 5.12776 19.6003 5.47206C19.8599 5.81636 20.0003 6.23581 20.0003 6.66699C20.0003 7.09817 19.8599 7.51763 19.6003 7.86193C19.3408 8.20623 18.9762 8.45665 18.5616 8.57533L15.9783 9.31199L15.2416 11.8953C15.123 12.3099 14.8725 12.6745 14.5282 12.934C14.1839 13.1936 13.7645 13.334 13.3333 13.334C12.9021 13.334 12.4827 13.1936 12.1384 12.934C11.7941 12.6745 11.5436 12.3099 11.425 11.8953L10.6883 9.31199L8.10497 8.57533C7.69045 8.45665 7.32584 8.20623 7.06627 7.86193C6.80671 7.51763 6.66632 7.09817 6.66632 6.66699C6.66632 6.23581 6.80671 5.81636 7.06627 5.47206C7.32584 5.12776 7.69045 4.87733 8.10497 4.75866ZM38.5616 28.5753L35.9783 29.312L35.2416 31.8953C35.123 32.3098 34.8725 32.6745 34.5282 32.934C34.1839 33.1936 33.7645 33.334 33.3333 33.334C32.9021 33.334 32.4827 33.1936 32.1384 32.934C31.7941 32.6745 31.5436 32.3098 31.425 31.8953L30.6883 29.312L28.105 28.5753C27.6905 28.4567 27.3258 28.2062 27.0663 27.8619C26.8067 27.5176 26.6663 27.0982 26.6663 26.667C26.6663 26.2358 26.8067 25.8164 27.0663 25.4721C27.3258 25.1278 27.6905 24.8773 28.105 24.7587L30.6883 24.022L31.425 21.4387C31.5436 21.0241 31.7941 20.6595 32.1384 20.4C32.4827 20.1404 32.9021 20 33.3333 20C33.7645 20 34.1839 20.1404 34.5282 20.4C34.8725 20.6595 35.123 21.0241 35.2416 21.4387L35.9783 24.022L38.5616 24.7587C38.9762 24.8773 39.3408 25.1278 39.6003 25.4721C39.8599 25.8164 40.0003 26.2358 40.0003 26.667C40.0003 27.0982 39.8599 27.5176 39.6003 27.8619C39.3408 28.2062 38.9762 28.4567 38.5616 28.5753ZM29.5916 4.16699L31.8516 3.52199L32.5 1.25866C32.6055 0.898354 32.8249 0.581945 33.1254 0.356847C33.4259 0.131748 33.7912 0.0100835 34.1666 0.0100835C34.5421 0.0100835 34.9074 0.131748 35.2079 0.356847C35.5084 0.581945 35.7278 0.898354 35.8333 1.25866L36.4783 3.51866L38.7383 4.16366C39.0986 4.26918 39.415 4.48861 39.6401 4.78909C39.8652 5.08956 39.9869 5.45489 39.9869 5.83033C39.9869 6.20576 39.8652 6.57109 39.6401 6.87156C39.415 7.17204 39.0986 7.39148 38.7383 7.49699L36.4783 8.14199L35.8333 10.407C35.7278 10.7673 35.5084 11.0837 35.2079 11.3088C34.9074 11.5339 34.5421 11.6556 34.1666 11.6556C33.7912 11.6556 33.4259 11.5339 33.1254 11.3088C32.8249 11.0837 32.6055 10.7673 32.5 10.407L31.855 8.14866L29.5916 7.50033C29.2313 7.39481 28.9149 7.17537 28.6898 6.8749C28.4647 6.57442 28.3431 6.2091 28.3431 5.83366C28.3431 5.45822 28.4647 5.09289 28.6898 4.79242C28.9149 4.49195 29.2313 4.27251 29.5916 4.16699Z" fill="#0A76E5"/>
</g>
<defs>
<clipPath id="clip0_1489_4084">
<rect width="40" height="40" fill="white"/>
</clipPath>
</defs>
</svg>
